{
.appVersion = "1342";
DisplayStrings = (
"ad/_corner.serif pnhesion",
"ADHESIDOMN\012BPRD/space COQGS/space EFLHJITU/space KYVXZW",
andnbnncnndnnennfnngnndhnninnjnnknnlnnmnnnnnonnpnnqapnnrnnsnntnnunnvnnwnnxnnyunnznn,
"HtEPHPANIOHSHHSsE\012PANOSE\012HOOHHlilPOoNOlienIAIENcIIlllascobdunghktypographlvwmnpqwmvadrunnynnnsnagjgypnns"
);
customParameters = (
{
name = licenseURL;
value = "http://scripts.sil.org/OFL";
},
{
name = license;
value = "This Font Software is licensed under the SIL Open Font License, Version 1.1. This license is available with a FAQ at: http://scripts.sil.org/OFL";
},
{
name = vendorID;
value = SUBY;
},
{
name = panose;
value = (
3,
8,
9,
2,
4,
3,
2,
2,
2,
0
);
},
{
name = unicodeRanges;
value = (
0,
1,
2,
3,
4,
5,
6,
16,
29,
31,
32,
33,
35,
36,
37,
38,
45,
62
);
},
{
name = fsType;
value = (
);
},
{
name = blueScale;
value = 0.03333;
},
{
name = blueShift;
value = 15;
},
{
name = glyphOrder;
value = (
.notdef,
NULL,
CR,
space,
exclam,
quotedbl,
numbersign,
dollar,
percent,
ampersand,
quotesingle,
parenleft,
parenright,
asterisk,
plus,
comma,
hyphen,
period,
slash,
zero,
one,
two,
three,
four,
five,
six,
seven,
eight,
nine,
colon,
semicolon,
less,
equal,
greater,
question,
at,
A,
B,
C,
D,
E,
F,
G,
H,
I,
J,
K,
L,
M,
N,
O,
P,
Q,
R,
S,
T,
U,
V,
W,
X,
Y,
Z,
bracketleft,
backslash,
bracketright,
asciicircum,
underscore,
grave,
a,
b,
c,
d,
e,
f,
g,
h,
i,
j,
k,
l,
m,
n,
o,
p,
q,
r,
s,
t,
u,
v,
w,
x,
y,
z,
braceleft,
bar,
braceright,
asciitilde,
uni00A0,
exclamdown,
cent,
sterling,
currency,
yen,
brokenbar,
section,
dieresis,
copyright,
ordfeminine,
guillemotleft,
logicalnot,
uni00AD,
registered,
macron,
degree,
plusminus,
twosuperior,
threesuperior,
acute,
mu,
paragraph,
periodcentered,
cedilla,
onesuperior,
ordmasculine,
guillemotright,
onequarter,
onehalf,
threequarters,
questiondown,
Agrave,
Aacute,
Acircumflex,
Atilde,
Adieresis,
Aring,
AE,
Ccedilla,
Egrave,
Eacute,
Ecircumflex,
Edieresis,
Igrave,
Iacute,
Icircumflex,
Idieresis,
Eth,
Ntilde,

glyphs = (
{
glyphname = exclam;
lastChange = "2021-02-18 09:46:58 +0000";
layers = (
{
background = {
paths = (
{
closed = 1;
nodes = (
"180 475 OFFCURVE",
"172 475 OFFCURVE",
"160 475 CURVE",
"152 475 OFFCURVE",
"142 473 OFFCURVE",
"140 455 CURVE SMOOTH",
"134 403 OFFCURVE",
"122 235 OFFCURVE",
"109 98 CURVE SMOOTH",
"102 28 OFFCURVE",
"94 -2 OFFCURVE",
"120 -2 CURVE SMOOTH",
"144 -2 OFFCURVE",
"206 51 OFFCURVE",
"213 134 CURVE SMOOTH",
"225 282 OFFCURVE",
"236 402 OFFCURVE",
"242 455 CURVE SMOOTH",
"244 473 OFFCURVE",
"235 475 OFFCURVE",
"226 475 CURVE"
);
},
{
closed = 1;
nodes = (
"240 588 OFFCURVE",
"267 615 OFFCURVE",
"267 648 CURVE SMOOTH",
"267 681 OFFCURVE",
"240 708 OFFCURVE",
"207 708 CURVE SMOOTH",
"174 708 OFFCURVE",
"147 681 OFFCURVE",
"147 648 CURVE SMOOTH",
"147 615 OFFCURVE",
"174 588 OFFCURVE",
"207 588 CURVE SMOOTH"
);
}
);
};
layerId = "B0B60A8F-2DEB-4A58-A43B-60A0DADABD8F";
paths = (
{
closed = 1;
nodes = (
"203 655 OFFCURVE",
"190 655 OFFCURVE",
"178 655 CURVE",
"170 655 OFFCURVE",
"160 653 OFFCURVE",
"158 635 CURVE SMOOTH",
"152 583 OFFCURVE",
"149 490 OFFCURVE",
"131 314 CURVE SMOOTH",
"128 288 OFFCURVE",
"126 193 OFFCURVE",
"147 193 CURVE SMOOTH",
"158 193 OFFCURVE",
"167 193 OFFCURVE",
"177 193 CURVE SMOOTH",
"205 193 OFFCURVE",
"221 288 OFFCURVE",
"224 314 CURVE SMOOTH",
"242 492 OFFCURVE",
"259 582 OFFCURVE",
"265 635 CURVE SMOOTH",
"267 653 OFFCURVE",
"258 655 OFFCURVE",
"249 655 CURVE"
);
},
{
closed = 1;
nodes = (
"188 0 OFFCURVE",
"215 27 OFFCURVE",
"215 60 CURVE SMOOTH",
"215 93 OFFCURVE",
"188 120 OFFCURVE",
"155 120 CURVE SMOOTH",
"122 120 OFFCURVE",
"95 93 OFFCURVE",
"95 60 CURVE SMOOTH",
"95 27 OFFCURVE",
"122 0 OFFCURVE",
"155 0 CURVE SMOOTH"
);
}
);
width = 300;
}
);
unicode = 0021;
},
{
glyphname = quotedbl;
lastChange = "2021-02-16 07:29:30 +0000";
layers = (
{
layerId = "B0B60A8F-2DEB-4A58-A43B-60A0DADABD8F";
paths = (
{
closed = 1;
nodes = (
"96 499 OFFCURVE",
"133 592 OFFCURVE",
"133 601 CURVE SMOOTH",
"133 610 OFFCURVE",
"127 611 OFFCURVE",
"124 611 CURVE SMOOTH",
"120 611 OFFCURVE",
"117 607 OFFCURVE",
"110 607 CURVE SMOOTH",
"106 607 OFFCURVE",
"99 607 OFFCURVE",
"94 607 CURVE SMOOTH",
"87 607 OFFCURVE",
"84 611 OFFCURVE",
"85 620 CURVE SMOOTH",
"86 630 OFFCURVE",
"90 663 OFFCURVE",
"92 680 CURVE SMOOTH",
"94 696 OFFCURVE",
"104 700 OFFCURVE",
"116 700 CURVE SMOOTH",
"168 700 OFFCURVE",
"202 662 OFFCURVE",
"202 611 CURVE SMOOTH",
"202 534 OFFCURVE",
"136 475 OFFCURVE",
"108 475 CURVE SMOOTH",
"100 475 OFFCURVE",
"96 478 OFFCURVE",
"96 483 CURVE SMOOTH"
);
},
{
closed = 1;
nodes = (
"256 499 OFFCURVE",
"293 592 OFFCURVE",
"293 601 CURVE SMOOTH",
"293 610 OFFCURVE",
"287 611 OFFCURVE",
"284 611 CURVE SMOOTH",
"280 611 OFFCURVE",
"277 607 OFFCURVE",
"270 607 CURVE SMOOTH",
"266 607 OFFCURVE",
"259 607 OFFCURVE",
"254 607 CURVE SMOOTH",
"247 607 OFFCURVE",
"244 611 OFFCURVE",
"245 620 CURVE SMOOTH",
"246 630 OFFCURVE",
"250 663 OFFCURVE",
"252 680 CURVE SMOOTH",
"254 696 OFFCURVE",
"264 700 OFFCURVE",
"276 700 CURVE SMOOTH",
"328 700 OFFCURVE",
"362 662 OFFCURVE",
"362 611 CURVE SMOOTH",
"362 534 OFFCURVE",
"296 475 OFFCURVE",
"268 475 CURVE SMOOTH",
"260 475 OFFCURVE",
"256 478 OFFCURVE",
"256 483 CURVE SMOOTH"
);
}
);
width = 447;
}
);
unicode = 0022;
},
{
glyphname = numbersign;
lastChange = "2021-02-21 15:10:08 +0000";
layers = (
{
background = {
paths = (
{
closed = 1;
nodes = (
"120 536 LINE",
"103 536 OFFCURVE",
"95 532 OFFCURVE",
"90 517 CURVE SMOOTH",
"73 464 LINE SMOOTH",
"68 449 OFFCURVE",
"75 442 OFFCURVE",
"94 442 CURVE SMOOTH",
"621 442 LINE",
"638 442 OFFCURVE",
"646 446 OFFCURVE",
"651 461 CURVE SMOOTH",
"668 514 LINE SMOOTH",
"673 529 OFFCURVE",
"666 536 OFFCURVE",
"647 536 CURVE SMOOTH"
);
},
{
closed = 1;
nodes = (
"70 296 LINE",
"53 296 OFFCURVE",
"45 292 OFFCURVE",
"40 277 CURVE SMOOTH",
"23 224 LINE SMOOTH",
"18 209 OFFCURVE",
"25 202 OFFCURVE",
"44 202 CURVE SMOOTH",
"571 202 LINE",
"588 202 OFFCURVE",
"596 206 OFFCURVE",
"601 221 CURVE SMOOTH",
"618 274 LINE SMOOTH",
"623 289 OFFCURVE",
"616 296 OFFCURVE",
"597 296 CURVE SMOOTH"
);
}
);
};
layerId = "B0B60A8F-2DEB-4A58-A43B-60A0DADABD8F";
paths = (
{
closed = 1;
nodes = (
"315 680 OFFCURVE",
"286 680 OFFCURVE",
"274 680 CURVE",
"266 680 OFFCURVE",
"252 678 OFFCURVE",
"246 656 CURVE SMOOTH",
"212 518 OFFCURVE",
"139 246 OFFCURVE",
"88 75 CURVE SMOOTH",
"73 28 OFFCURVE",
"63 0 OFFCURVE",
"103 0 CURVE SMOOTH",
"112 0 OFFCURVE",
"108 0 OFFCURVE",
"144 0 CURVE SMOOTH",
"171 0 OFFCURVE",
"171 28 OFFCURVE",
"183 71 CURVE SMOOTH",
"227 242 OFFCURVE",
"301 516 OFFCURVE",
"344 660 CURVE SMOOTH",
"349 678 OFFCURVE",
"340 680 OFFCURVE",
"331 680 CURVE"
);
},
{
closed = 1;
nodes = (
"565 680 OFFCURVE",
"536 680 OFFCURVE",
"524 680 CURVE",
"516 680 OFFCURVE",
"502 678 OFFCURVE",
"496 656 CURVE SMOOTH",
"462 518 OFFCURVE",
"389 246 OFFCURVE",
"338 75 CURVE SMOOTH",
"323 28 OFFCURVE",
"313 0 OFFCURVE",
"353 0 CURVE SMOOTH",
"362 0 OFFCURVE",
"358 0 OFFCURVE",
"394 0 CURVE SMOOTH",
"421 0 OFFCURVE",
"421 28 OFFCURVE",
"433 71 CURVE SMOOTH",
"477 242 OFFCURVE",
"551 516 OFFCURVE",
"594 660 CURVE SMOOTH",
"599 678 OFFCURVE",
"590 680 OFFCURVE",
"581 680 CURVE"
);
},
{
closed = 1;
nodes = (
"61 274 LINE",
"44 274 OFFCURVE",
"39 269 OFFCURVE",
"34 255 CURVE SMOOTH",
"27 234 LINE SMOOTH",
"22 219 OFFCURVE",
"29 212 OFFCURVE",
"42 212 CURVE SMOOTH",
"580 212 LINE",
"594 212 OFFCURVE",
"600 217 OFFCURVE",
"604 228 CURVE SMOOTH",
"612 252 LINE SMOOTH",
"617 266 OFFCURVE",
"612 274 OFFCURVE",
"596 274 CURVE SMOOTH"
);
},
{
closed = 1;
nodes = (
"110 514 LINE",
"93 514 OFFCURVE",
"88 509 OFFCURVE",
"83 495 CURVE SMOOTH",
"76 474 LINE SMOOTH",
"71 459 OFFCURVE",
"78 452 OFFCURVE",
"91 452 CURVE SMOOTH",
"629 452 LINE",
"643 452 OFFCURVE",
"649 457 OFFCURVE",
"653 468 CURVE SMOOTH",
"661 492 LINE SMOOTH",
"666 506 OFFCURVE",
"661 514 OFFCURVE",
"645 514 CURVE SMOOTH"
);
}
);
width = 688;
}
);
unicode = 0023;
},
{
glyphname = dollar;
lastChange = "2021-02-18 10:32:38 +0000";
layers = (
{
background = {
paths = (
{
closed = 1;
nodes = (
"118 600 OFFCURVE",
"246 688 OFFCURVE",
"382 688 CURVE SMOOTH",
"504 688 OFFCURVE",
"580 602 OFFCURVE",
"580 512 CURVE SMOOTH",
"580 483 OFFCURVE",
"574 475 OFFCURVE",
"554 475 CURVE",
"458 475 LINE",
"439 475 OFFCURVE",
"437 482 OFFCURVE",
"437 492 CURVE SMOOTH",
"437 505 OFFCURVE",
"442 531 OFFCURVE",
"442 567 CURVE SMOOTH",
"442 614 OFFCURVE",
"420 632 OFFCURVE",
"378 632 CURVE SMOOTH",
"317 632 OFFCURVE",
"263 571 OFFCURVE",
"263 529 CURVE",
"118 512 LINE"
);
},
{
closed = 1;
nodes = (
"184 253 OFFCURVE",
"189 250 OFFCURVE",
"189 234 CURVE SMOOTH",
"189 217 OFFCURVE",
"186 192 OFFCURVE",
"186 161 CURVE SMOOTH",
"186 94 OFFCURVE",
"227 60 OFFCURVE",
"278 60 CURVE SMOOTH",
"354 60 OFFCURVE",
"404 131 OFFCURVE",
"404 184 CURVE",
"551 184 LINE",
"551 90 OFFCURVE",
"446 -9 OFFCURVE",
"286 -9 CURVE SMOOTH",
"157 -9 OFFCURVE",
"43 64 OFFCURVE",
"43 208 CURVE SMOOTH",
"43 240 OFFCURVE",
"51 253 OFFCURVE",
"78 253 CURVE",
"169 253 LINE"
);
},
{
closed = 1;
nodes = (
"350 436 OFFCURVE",
"419 379 OFFCURVE",
"459 346 CURVE SMOOTH",
"507 307 OFFCURVE",
"551 255 OFFCURVE",
"551 184 CURVE",
"551 146 OFFCURVE",
"404 160 OFFCURVE",
"404 184 CURVE",
"404 227 OFFCURVE",
"361 255 OFFCURVE",
"332 279 CURVE SMOOTH",
"303 303 OFFCURVE",
"247 348 OFFCURVE",
"215 373 CURVE SMOOTH",
"152 422 OFFCURVE",
"118 464 OFFCURVE",
"118 512 CURVE SMOOTH",
"118 540 OFFCURVE",
"263 571 OFFCURVE",
"263 529 CURVE SMOOTH",
"263 504 OFFCURVE",
"290 486 OFFCURVE",
"326 456 CURVE SMOOTH"
);
}
);
};
layerId = "B0B60A8F-2DEB-4A58-A43B-60A0DADABD8F";
paths = (
{
closed = 1;
nodes = (
"383 726 OFFCURVE",
"395 724 OFFCURVE",
"391 704 CURVE SMOOTH",
"373 623 OFFCURVE",
"346 488 OFFCURVE",
"324 367 CURVE",
"305 301 LINE",
"290 215 OFFCURVE",
"267 90 OFFCURVE",
"255 21 CURVE SMOOTH",
"247 -27 OFFCURVE",
"246 -58 OFFCURVE",
"216 -58 CURVE SMOOTH",
"202 -58 OFFCURVE",
"196 -58 OFFCURVE",
"179 -58 CURVE SMOOTH",
"144 -58 OFFCURVE",
"155 -27 OFFCURVE",
"166 25 CURVE SMOOTH",
"184 110 OFFCURVE",
"212 241 OFFCURVE",
"231 349 CURVE",
"252 425 LINE",
"272 521 OFFCURVE",
"290 636 OFFCURVE",
"301 700 CURVE SMOOTH",
"305 724 OFFCURVE",
"318 726 OFFCURVE",
"327 726 CURVE",
"341 726 OFFCURVE",
"355 726 OFFCURVE",
"373 726 CURVE"
);
},
{
closed = 1;
nodes = (
"75 589 OFFCURVE",
"207 657 OFFCURVE",
"330 657 CURVE SMOOTH",
"442 657 OFFCURVE",
"523 579 OFFCURVE",
"523 496 CURVE SMOOTH",
"523 471 OFFCURVE",
"516 463 OFFCURVE",
"498 463 CURVE",
"434 463 LINE",
"416 463 OFFCURVE",
"415 470 OFFCURVE",
"415 479 CURVE SMOOTH",
"415 491 OFFCURVE",
"420 514 OFFCURVE",
"420 547 CURVE SMOOTH",
"420 590 OFFCURVE",
"376 606 OFFCURVE",
"326 606 CURVE SMOOTH",
"271 606 OFFCURVE",
"193 551 OFFCURVE",
"193 513 CURVE",
"75 513 LINE"
);
},
{
closed = 1;
nodes = (
"127 260 OFFCURVE",
"130 258 OFFCURVE",
"130 243 CURVE SMOOTH",
"130 227 OFFCURVE",
"128 205 OFFCURVE",
"128 177 CURVE SMOOTH",
"128 115 OFFCURVE",
"189 85 OFFCURVE",
"235 85 CURVE SMOOTH",
"304 85 OFFCURVE",
"373 147 OFFCURVE",
"373 198 CURVE",
"492 198 LINE",
"492 111 OFFCURVE",
"389 22 OFFCURVE",
"243 22 CURVE SMOOTH",
"126 22 OFFCURVE",
"20 88 OFFCURVE",
"20 219 CURVE SMOOTH",
"20 248 OFFCURVE",
"28 260 OFFCURVE",
"52 260 CURVE",
"112 260 LINE"
);
},
{
closed = 1;
nodes = (
"302 404 OFFCURVE",
"376 340 OFFCURVE",
"413 309 CURVE SMOOTH",
"454 273 OFFCURVE",
"492 238 OFFCURVE",
"492 198 CURVE",
"492 162 OFFCURVE",
"373 174 OFFCURVE",
"373 198 CURVE",
"373 221 OFFCURVE",
"329 255 OFFCURVE",
"302 278 CURVE SMOOTH",
"276 300 OFFCURVE",
"208 357 OFFCURVE",
"148 408 CURVE SMOOTH",
"110 440 OFFCURVE",
"75 480 OFFCURVE",
"75 513 CURVE SMOOTH",
"75 540 OFFCURVE",
"193 551 OFFCURVE",
"193 513 CURVE SMOOTH",
"193 489 OFFCURVE",
"247 451 OFFCURVE",
"280 423 CURVE SMOOTH"
);
}
);
width = 543;
}
);
unicode = 0024;
},
{
glyphname = ampersand;
lastChange = "2021-02-16 11:21:46 +0000";
layers = (
{
background = {
paths = (
{
closed = 1;
nodes = (
"292 659 OFFCURVE",
"60 431 OFFCURVE",
"60 194 CURVE SMOOTH",
"60 53 OFFCURVE",
"194 -11 OFFCURVE",
"318 -11 CURVE SMOOTH",
"419 -11 OFFCURVE",
"571 50 OFFCURVE",
"571 176 CURVE SMOOTH",
"571 208 OFFCURVE",
"547 251 OFFCURVE",
"523 251 CURVE SMOOTH",
"492 251 OFFCURVE",
"443 57 OFFCURVE",
"331 57 CURVE SMOOTH",
"272 57 OFFCURVE",
"199 122 OFFCURVE",
"199 169 CURVE SMOOTH",
"199 220 OFFCURVE",
"314 598 OFFCURVE",
"442 598 CURVE SMOOTH",
"474 598 OFFCURVE",
"495 563 OFFCURVE",
"495 541 CURVE SMOOTH",
"495 514 OFFCURVE",
"420 364 OFFCURVE",
"217 364 CURVE",
"213 297 LINE",
"316 320 OFFCURVE",
"419 335 OFFCURVE",
"507 351 CURVE SMOOTH",
"558 360 OFFCURVE",
"608 460 OFFCURVE",
"608 512 CURVE SMOOTH",
"608 584 OFFCURVE",
"547 659 OFFCURVE",
"450 659 CURVE SMOOTH"
);
}
);
};
backgroundImage = {
crop = "{{0, 0}, {2284, 3114}}";
imagePath = ../../../../Downloads/IMG_9767.jpg;
locked = "1";
transform = "{1, 0, 0, 1, -653, 866}";
};
layerId = "B0B60A8F-2DEB-4A58-A43B-60A0DADABD8F";
paths = (
{
closed = 1;
nodes = (
"240 710 OFFCURVE",
"40 462 OFFCURVE",
"40 225 CURVE SMOOTH",
"40 83 OFFCURVE",
"157 -11 OFFCURVE",
"318 -11 CURVE SMOOTH",
"499 -11 OFFCURVE",
"591 117 OFFCURVE",
"591 195 CURVE SMOOTH",
"591 249 OFFCURVE",
"547 285 OFFCURVE",
"533 292 CURVE",
"533 308 LINE",
"409 308 LINE",
"409 297 LINE",
"466 297 OFFCURVE",
"486 261 OFFCURVE",
"486 216 CURVE SMOOTH",
"486 150 OFFCURVE",
"437 57 OFFCURVE",
"329 57 CURVE SMOOTH",
"239 57 OFFCURVE",
"152 130 OFFCURVE",
"152 225 CURVE SMOOTH",
"152 346 OFFCURVE",
"277 650 OFFCURVE",
"366 650 CURVE SMOOTH",
"396 650 OFFCURVE",
"409 617 OFFCURVE",
"409 595 CURVE SMOOTH",
"409 554 OFFCURVE",
"316 450 OFFCURVE",
"146 450 CURVE",
"146 393 LINE",
"249 416 OFFCURVE",
"321 433 OFFCURVE",
"409 449 CURVE",
"464 522 LINE",
"464 529 LINE",
"470 536 OFFCURVE",
"503 571 OFFCURVE",
"503 612 CURVE SMOOTH",
"503 646 OFFCURVE",
"467 710 OFFCURVE",
"382 710 CURVE SMOOTH"
);
},
{
closed = 1;
nodes = (
"720 752 OFFCURVE",
"637 814 OFFCURVE",
"601 814 CURVE SMOOTH",
"596 814 OFFCURVE",
"590 812 OFFCURVE",
"585 797 CURVE SMOOTH",
"581 785 OFFCURVE",
"567 744 OFFCURVE",
"562 728 CURVE SMOOTH",
"557 713 OFFCURVE",
"567 707 OFFCURVE",
"576 705 CURVE SMOOTH",
"615 696 OFFCURVE",
"654 681 OFFCURVE",
"654 649 CURVE SMOOTH",
"654 601 OFFCURVE",
"587 542 OFFCURVE",
"464 522 CURVE",
"409 522 LINE",
"409 449 LINE",
"554 471 OFFCURVE",
"720 532 OFFCURVE",
"720 669 CURVE SMOOTH"
);
},
{
closed = 1;
nodes = (
"721 370 OFFCURVE",
"723 380 OFFCURVE",
"710 380 CURVE SMOOTH",
"649 380 OFFCURVE",
"527 380 OFFCURVE",
"475 380 CURVE SMOOTH",
"324 380 OFFCURVE",
"248 337 OFFCURVE",
"248 248 CURVE SMOOTH",
"248 183 OFFCURVE",
"295 119 OFFCURVE",
"360 119 CURVE SMOOTH",
"371 119 OFFCURVE",
"378 124 OFFCURVE",
"382 138 CURVE SMOOTH",
"399 193 LINE SMOOTH",
"404 209 OFFCURVE",
"406 219 OFFCURVE",
"393 219 CURVE SMOOTH",
"379 219 OFFCURVE",
"356 214 OFFCURVE",
"333 214 CURVE SMOOTH",
"312 214 OFFCURVE",
"292 240 OFFCURVE",
"293 261 CURVE SMOOTH",
"294 292 OFFCURVE",
"314 297 OFFCURVE",
"409 297 CURVE SMOOTH",
"463 297 OFFCURVE",
"522 297 OFFCURVE",
"682 297 CURVE SMOOTH",
"693 297 OFFCURVE",
"700 302 OFFCURVE",
"704 316 CURVE SMOOTH",
"709 332 OFFCURVE",
"711 338 OFFCURVE",
"716 354 CURVE SMOOTH"
);
}
);
width = 760;
}
);
unicode = 0026;
},
{
glyphname = quotesingle;
lastChange = "2021-02-16 07:27:35 +0000";
layers = (
{
layerId = "B0B60A8F-2DEB-4A58-A43B-60A0DADABD8F";
paths = (
{
closed = 1;
nodes = (
"96 499 OFFCURVE",
"133 592 OFFCURVE",
"133 601 CURVE SMOOTH",
"133 610 OFFCURVE",
"127 611 OFFCURVE",
"124 611 CURVE SMOOTH",
"120 611 OFFCURVE",
"117 607 OFFCURVE",
"110 607 CURVE SMOOTH",
"106 607 OFFCURVE",
"99 607 OFFCURVE",
"94 607 CURVE SMOOTH",
"87 607 OFFCURVE",
"84 611 OFFCURVE",
"85 620 CURVE SMOOTH",
"86 630 OFFCURVE",
"90 663 OFFCURVE",
"92 680 CURVE SMOOTH",
"94 696 OFFCURVE",
"104 700 OFFCURVE",
"116 700 CURVE SMOOTH",
"168 700 OFFCURVE",
"202 662 OFFCURVE",
"202 611 CURVE SMOOTH",
"202 534 OFFCURVE",
"136 475 OFFCURVE",
"108 475 CURVE SMOOTH",
"100 475 OFFCURVE",
"96 478 OFFCURVE",
"96 483 CURVE SMOOTH"
);
}
);
width = 287;
}
);
unicode = 0027;
},
{
glyphname = parenleft;
lastChange = "2021-02-16 07:32:00 +0000";
layers = (
{
layerId = "B0B60A8F-2DEB-4A58-A43B-60A0DADABD8F";
paths = (
{
closed = 1;
nodes = (
"290 -101 OFFCURVE",
"284 -104 OFFCURVE",
"265 -96 CURVE SMOOTH",
"170 -55 OFFCURVE",
"30 73 OFFCURVE",
"30 245 CURVE SMOOTH",
"30 509 OFFCURVE",
"279 705 OFFCURVE",
"358 739 CURVE SMOOTH",
"373 745 OFFCURVE",
"378 741 OFFCURVE",
"384 729 CURVE",
"397 701 LINE",
"403 687 OFFCURVE",
"395 682 OFFCURVE",
"383 675 CURVE SMOOTH",
"309 632 OFFCURVE",
"130 480 OFFCURVE",
"130 245 CURVE SMOOTH",
"130 91 OFFCURVE",
"231 2 OFFCURVE",
"296 -37 CURVE SMOOTH",
"308 -44 OFFCURVE",
"314 -50 OFFCURVE",
"309 -62 CURVE",
"296 -89 LINE"
);
}
);
width = 459;
}
);
unicode = 0028;
},
{
glyphname = parenright;
lastChange = "2021-02-16 07:35:24 +0000";
layers = (
{
layerId = "B0B60A8F-2DEB-4A58-A43B-60A0DADABD8F";
paths = (
{
closed = 1;
nodes = (
"138 742 OFFCURVE",
"144 745 OFFCURVE",
"163 737 CURVE SMOOTH",
"258 696 OFFCURVE",
"398 568 OFFCURVE",
"398 396 CURVE SMOOTH",
"398 122 OFFCURVE",
"146 -60 OFFCURVE",
"74 -96 CURVE SMOOTH",
"58 -104 OFFCURVE",
"54 -101 OFFCURVE",
"46 -87 CURVE",
"32 -59 LINE",
"27 -47 OFFCURVE",
"33 -41 OFFCURVE",
"45 -34 CURVE SMOOTH",
"119 9 OFFCURVE",
"298 161 OFFCURVE",
"298 396 CURVE SMOOTH",
"298 550 OFFCURVE",
"197 639 OFFCURVE",
"132 678 CURVE SMOOTH",
"120 685 OFFCURVE",
"114 691 OFFCURVE",
"119 703 CURVE",
"132 730 LINE"
);
}
);
width = 428;
}
);
unicode = 0029;
},
{
glyphname = asterisk;
lastChange = "2021-02-21 15:12:35 +0000";
layers = (
{
background = {
paths = (
{
closed = 1;
nodes = (
"208 716 OFFCURVE",
"220 709 OFFCURVE",
"220 657 CURVE SMOOTH",
"220 618 OFFCURVE",
"196 574 OFFCURVE",
"188 574 CURVE SMOOTH",
"183 574 OFFCURVE",
"177 578 OFFCURVE",
"177 581 CURVE SMOOTH",
"177 586 OFFCURVE",
"190 605 OFFCURVE",
"190 618 CURVE SMOOTH",
"190 634 OFFCURVE",
"176 644 OFFCURVE",
"167 651 CURVE SMOOTH",
"158 658 OFFCURVE",
"145 669 OFFCURVE",
"145 678 CURVE SMOOTH",
"145 687 OFFCURVE",
"160 716 OFFCURVE",
"188 716 CURVE"
);
},
{
closed = 1;
nodes = (
"58 637 OFFCURVE",
"69 647 OFFCURVE",
"117 631 CURVE SMOOTH",
"154 619 OFFCURVE",
"190 581 OFFCURVE",
"188 574 CURVE SMOOTH",
"186 569 OFFCURVE",
"179 565 OFFCURVE",
"177 565 CURVE SMOOTH",
"172 567 OFFCURVE",
"158 586 OFFCURVE",
"145 590 CURVE SMOOTH",
"131 594 OFFCURVE",
"115 585 OFFCURVE",
"107 579 CURVE SMOOTH",
"96 571 OFFCURVE",
"83 562 OFFCURVE",
"74 565 CURVE SMOOTH",
"66 568 OFFCURVE",
"43 591 OFFCURVE",
"52 618 CURVE"
);
},
{
closed = 1;
nodes = (
"88 469 OFFCURVE",
"81 482 OFFCURVE",
"112 525 CURVE SMOOTH",
"133 555 OFFCURVE",
"180 578 OFFCURVE",
"188 574 CURVE SMOOTH",
"191 571 OFFCURVE",
"193 564 OFFCURVE",
"191 561 CURVE SMOOTH",
"188 556 OFFCURVE",
"167 549 OFFCURVE",
"158 537 CURVE SMOOTH",
"150 525 OFFCURVE",
"155 508 OFFCURVE",
"157 498 CURVE SMOOTH",
"160 488 OFFCURVE",
"166 470 OFFCURVE",
"160 463 CURVE SMOOTH",
"156 456 OFFCURVE",
"127 441 OFFCURVE",
"103 458 CURVE"
);
},
{
closed = 1;
nodes = (
"256 446 OFFCURVE",
"241 443 OFFCURVE",
"210 485 CURVE SMOOTH",
"188 515 OFFCURVE",
"181 568 OFFCURVE",
"188 574 CURVE SMOOTH",
"191 575 OFFCURVE",
"199 575 OFFCURVE",
"201 573 CURVE SMOOTH",
"204 568 OFFCURVE",
"205 546 OFFCURVE",
"213 534 CURVE SMOOTH",
"222 523 OFFCURVE",
"239 521 OFFCURVE",
"251 521 CURVE SMOOTH",
"261 521 OFFCURVE",
"279 521 OFFCURVE",
"285 513 CURVE SMOOTH",
"289 506 OFFCURVE",
"295 474 OFFCURVE",
"271 457 CURVE"
);
},
{
closed = 1;
nodes = (
"330 598 OFFCURVE",
"328 584 OFFCURVE",
"279 567 CURVE SMOOTH",
"242 555 OFFCURVE",
"190 565 OFFCURVE",
"188 574 CURVE SMOOTH",
"187 577 OFFCURVE",
"189 585 OFFCURVE",
"193 586 CURVE SMOOTH",
"198 587 OFFCURVE",
"218 581 OFFCURVE",
"233 586 CURVE SMOOTH",
"246 590 OFFCURVE",
"253 607 OFFCURVE",
"257 616 CURVE SMOOTH",
"261 626 OFFCURVE",
"266 644 OFFCURVE",
"274 647 CURVE SMOOTH",
"283 649 OFFCURVE",
"316 644 OFFCURVE",
"324 616 CURVE"
);
}
);
};
layerId = "B0B60A8F-2DEB-4A58-A43B-60A0DADABD8F";
paths = (
{
closed = 1;
nodes = (
"57 639 OFFCURVE",
"77 639 CURVE SMOOTH",
"113 639 OFFCURVE",
"153 623 OFFCURVE",
"180 593 CURVE",
"181 593 LINE",
"185 602 OFFCURVE",
"190 610 OFFCURVE",
"190 618 CURVE SMOOTH",
"190 645 OFFCURVE",
"145 659 OFFCURVE",
"145 678 CURVE SMOOTH",
"145 687 OFFCURVE",
"160 716 OFFCURVE",
"188 716 CURVE SMOOTH",
"208 716 OFFCURVE",
"223 709 OFFCURVE",
"223 657 CURVE SMOOTH",
"223 631 OFFCURVE",
"213 603 OFFCURVE",
"204 588 CURVE",
"204 587 LINE",
"211 586 OFFCURVE",
"216 585 OFFCURVE",
"223 585 CURVE SMOOTH",
"262 585 OFFCURVE",
"257 648 OFFCURVE",
"278 648 CURVE SMOOTH",
"304 648 OFFCURVE",
"326 628 OFFCURVE",
"326 604 CURVE SMOOTH",
"326 578 OFFCURVE",
"276 559 OFFCURVE",
"242 559 CURVE SMOOTH",
"228 559 OFFCURVE",
"216 562 OFFCURVE",
"209 564 CURVE",
"208 564 LINE",
"214 533 OFFCURVE",
"213 521 OFFCURVE",
"253 521 CURVE SMOOTH",
"279 521 OFFCURVE",
"289 519 OFFCURVE",
"289 494 CURVE SMOOTH",
"289 471 OFFCURVE",
"272 450 OFFCURVE",
"255 450 CURVE SMOOTH",
"230 450 OFFCURVE",
"188 493 OFFCURVE",
"186 552 CURVE",
"185 552 LINE",
"167 543 OFFCURVE",
"153 536 OFFCURVE",
"153 521 CURVE SMOOTH",
"153 503 OFFCURVE",
"163 483 OFFCURVE",
"163 472 CURVE SMOOTH",
"162 457 OFFCURVE",
"143 450 OFFCURVE",
"128 450 CURVE SMOOTH",
"110 450 OFFCURVE",
"90 463 OFFCURVE",
"90 479 CURVE SMOOTH",
"90 509 OFFCURVE",
"125 554 OFFCURVE",
"166 570 CURVE",
"166 571 LINE",
"156 582 OFFCURVE",
"148 591 OFFCURVE",
"137 591 CURVE SMOOTH",
"113 591 OFFCURVE",
"95 564 OFFCURVE",
"78 564 CURVE SMOOTH",
"68 564 OFFCURVE",
"50 585 OFFCURVE",
"50 605 CURVE SMOOTH",
"50 620 OFFCURVE"
);
}
);
width = 376;
}
);
unicode = 002A;
},
{
glyphname = plus;
lastChange = "2021-02-18 10:41:25 +0000";
layers = (
{
background = {
paths = (
{
closed = 1;
nodes = (
"364 680 OFFCURVE",
"286 680 OFFCURVE",
"274 680 CURVE",
"266 680 OFFCURVE",
"257 678 OFFCURVE",
"256 660 CURVE SMOOTH",
"246 516 OFFCURVE",
"219 244 OFFCURVE",
"197 75 CURVE SMOOTH",
"191 28 OFFCURVE",
"185 0 OFFCURVE",
"225 0 CURVE SMOOTH",
"234 0 OFFCURVE",
"280 0 OFFCURVE",
"316 0 CURVE SMOOTH",
"343 0 OFFCURVE",
"340 28 OFFCURVE",
"343 71 CURVE SMOOTH",
"356 248 OFFCURVE",
"383 518 OFFCURVE",
"400 656 CURVE SMOOTH",
"403 678 OFFCURVE",
"386 680 OFFCURVE",
"376 680 CURVE"
);
}
);
};
layerId = "B0B60A8F-2DEB-4A58-A43B-60A0DADABD8F";
paths = (
{
closed = 1;
nodes = (
"109 371 LINE",
"92 371 OFFCURVE",
"81 367 OFFCURVE",
"79 352 CURVE SMOOTH",
"75 314 LINE SMOOTH",
"73 299 OFFCURVE",
"77 292 OFFCURVE",
"96 292 CURVE SMOOTH",
"483 292 LINE",
"500 292 OFFCURVE",
"511 296 OFFCURVE",
"513 311 CURVE SMOOTH",
"517 349 LINE SMOOTH",
"519 364 OFFCURVE",
"515 371 OFFCURVE",
"496 371 CURVE SMOOTH"
);
},
{
closed = 1;
nodes = (
"329 540 OFFCURVE",
"301 540 OFFCURVE",
"289 540 CURVE",
"279 540 OFFCURVE",
"270 538 OFFCURVE",
"268 515 CURVE SMOOTH",
"263 456 OFFCURVE",
"239 237 OFFCURVE",
"227 141 CURVE SMOOTH",
"224 119 OFFCURVE",
"230 110 OFFCURVE",
"252 110 CURVE SMOOTH",
"265 110 OFFCURVE",
"282 110 OFFCURVE",
"299 110 CURVE SMOOTH",
"316 110 OFFCURVE",
"320 117 OFFCURVE",
"322 141 CURVE SMOOTH",
"329 232 OFFCURVE",
"348 418 OFFCURVE",
"360 516 CURVE SMOOTH",
"363 538 OFFCURVE",
"351 540 OFFCURVE",
"341 540 CURVE"
);
}
);
width = 592;
}
);
unicode = 002B;
},
{
glyphname = comma;
lastChange = "2021-02-07 09:29:04 +0000";
layers = (
{
background = {
paths = (
{
closed = 1;
nodes = (
"44 -97 OFFCURVE",
"94 -7 OFFCURVE",
"94 -2 CURVE SMOOTH",
"94 7 OFFCURVE",
"93 10 OFFCURVE",
"87 10 CURVE SMOOTH",
"84 10 OFFCURVE",
"85 10 OFFCURVE",
"81 10 CURVE SMOOTH",
"76 10 OFFCURVE",
"73 0 OFFCURVE",
"67 0 CURVE SMOOTH",
"62 0 OFFCURVE",
"34 0 OFFCURVE",
"29 0 CURVE SMOOTH",
"22 0 OFFCURVE",
"19 4 OFFCURVE",
"20 13 CURVE SMOOTH",
"21 23 OFFCURVE",
"28 85 OFFCURVE",
"30 98 CURVE SMOOTH",
"31 109 OFFCURVE",
"37 113 OFFCURVE",
"48 113 CURVE SMOOTH",
"112 113 OFFCURVE",
"189 77 OFFCURVE",
"189 14 CURVE SMOOTH",
"189 -53 OFFCURVE",
"114 -122 OFFCURVE",
"61 -122 CURVE SMOOTH",
"53 -122 OFFCURVE",
"44 -119 OFFCURVE",
"44 -111 CURVE SMOOTH"
);
}
);
};
layerId = "B0B60A8F-2DEB-4A58-A43B-60A0DADABD8F";
paths = (
{
closed = 1;
nodes = (
"48 -87 OFFCURVE",
"103 -17 OFFCURVE",
"103 -2 CURVE SMOOTH",
"103 7 OFFCURVE",
"100 17 OFFCURVE",
"94 17 CURVE SMOOTH",
"91 17 OFFCURVE",
"91 17 OFFCURVE",
"88 17 CURVE SMOOTH",
"80 17 OFFCURVE",
"80 0 OFFCURVE",
"70 0 CURVE SMOOTH",
"66 0 OFFCURVE",
"39 0 OFFCURVE",
"34 0 CURVE SMOOTH",
"27 0 OFFCURVE",
"24 4 OFFCURVE",
"25 13 CURVE SMOOTH",
"26 23 OFFCURVE",
"33 76 OFFCURVE",
"35 93 CURVE SMOOTH",
"37 109 OFFCURVE",
"47 113 OFFCURVE",
"59 113 CURVE SMOOTH",
"111 113 OFFCURVE",
"185 70 OFFCURVE",
"185 14 CURVE SMOOTH",
"185 -63 OFFCURVE",
"88 -111 OFFCURVE",
"60 -111 CURVE SMOOTH",
"52 -111 OFFCURVE",
"48 -108 OFFCURVE",
"48 -103 CURVE SMOOTH"
);
}
);
width = 209;
}
);
unicode = 002C;
},
{
glyphname = hyphen;
lastChange = "2021-02-18 10:43:22 +0000";
layers = (
{
layerId = "B0B60A8F-2DEB-4A58-A43B-60A0DADABD8F";
paths = (
{
closed = 1;
nodes = (
"102 406 LINE",
"85 406 OFFCURVE",
"77 402 OFFCURVE",
"72 387 CURVE SMOOTH",
"57 339 LINE SMOOTH",
"52 324 OFFCURVE",
"59 317 OFFCURVE",
"78 317 CURVE SMOOTH",
"335 317 LINE",
"352 317 OFFCURVE",
"360 321 OFFCURVE",
"365 336 CURVE SMOOTH",
"380 384 LINE SMOOTH",
"385 399 OFFCURVE",
"378 406 OFFCURVE",
"359 406 CURVE SMOOTH"
);
}
);
width = 437;
}
);
unicode = 002D;
},
{
glyphname = period;
lastChange = "2021-02-04 10:11:19 +0000";
layers = (
{
background = {
paths = (
{
closed = 1;
nodes = (
"123 0 OFFCURVE",
"150 27 OFFCURVE",
"150 60 CURVE SMOOTH",
"150 93 OFFCURVE",
"123 120 OFFCURVE",
"90 120 CURVE SMOOTH",
"57 120 OFFCURVE",
"30 93 OFFCURVE",
"30 60 CURVE SMOOTH",
"30 27 OFFCURVE",
"57 0 OFFCURVE",
"90 0 CURVE SMOOTH"
);
}
);
};
layerId = "B0B60A8F-2DEB-4A58-A43B-60A0DADABD8F";
paths = (
{
closed = 1;
nodes = (
"123 0 OFFCURVE",
"150 27 OFFCURVE",
"150 60 CURVE SMOOTH",
"150 93 OFFCURVE",
"123 120 OFFCURVE",
"90 120 CURVE SMOOTH",
"57 120 OFFCURVE",
"30 93 OFFCURVE",
"30 60 CURVE SMOOTH",
"30 27 OFFCURVE",
"57 0 OFFCURVE",
"90 0 CURVE SMOOTH"
);
}
);
width = 180;
}
);
unicode = 002E;
},
{
glyphname = slash;
lastChange = "2021-02-18 10:29:22 +0000";
layers = (
{
background = {
paths = (
{
closed = 1;
nodes = (
"367 680 OFFCURVE",
"338 680 OFFCURVE",
"326 680 CURVE",
"318 680 OFFCURVE",
"304 678 OFFCURVE",
"298 656 CURVE SMOOTH",
"264 518 OFFCURVE",
"191 246 OFFCURVE",
"140 75 CURVE SMOOTH",
"125 28 OFFCURVE",
"115 0 OFFCURVE",
"155 0 CURVE SMOOTH",
"164 0 OFFCURVE",
"160 0 OFFCURVE",
"196 0 CURVE SMOOTH",
"223 0 OFFCURVE",
"223 28 OFFCURVE",
"235 71 CURVE SMOOTH",
"279 242 OFFCURVE",
"353 516 OFFCURVE",
"396 660 CURVE SMOOTH",
"401 678 OFFCURVE",
"392 680 OFFCURVE",
"383 680 CURVE"
);
}
);
};
layerId = "B0B60A8F-2DEB-4A58-A43B-60A0DADABD8F";
paths = (
{
closed = 1;
nodes = (
"389 690 OFFCURVE",
"340 690 OFFCURVE",
"328 690 CURVE",
"320 690 OFFCURVE",
"306 688 OFFCURVE",
"300 666 CURVE SMOOTH",
"266 528 OFFCURVE",
"149 94 OFFCURVE",
"98 -77 CURVE SMOOTH",
"83 -124 OFFCURVE",
"73 -152 OFFCURVE",
"113 -152 CURVE SMOOTH",
"122 -152 OFFCURVE",
"138 -152 OFFCURVE",
"174 -152 CURVE SMOOTH",
"201 -152 OFFCURVE",
"201 -124 OFFCURVE",
"213 -81 CURVE SMOOTH",
"257 90 OFFCURVE",
"375 526 OFFCURVE",
"418 670 CURVE SMOOTH",
"423 688 OFFCURVE",
"414 690 OFFCURVE",
"405 690 CURVE"
);
}
);
width = 504;
}
);
unicode = 002F;
},
{
glyphname = zero;
lastChange = "2021-02-16 05:39:41 +0000";
layers = (
{
background = {
paths = (
{
closed = 1;
nodes = (
"668 191 OFFCURVE",
"503 -9 OFFCURVE",
"269 -9 CURVE SMOOTH",
"112 -9 OFFCURVE",
"-33 72 OFFCURVE",
"-33 243 CURVE SMOOTH",
"-33 473 OFFCURVE",
"132 688 OFFCURVE",
"366 688 CURVE SMOOTH",
"523 688 OFFCURVE",
"668 607 OFFCURVE",
"668 436 CURVE SMOOTH"
);
},
{
closed = 1;
nodes = (
"450 61 OFFCURVE",
"518 283 OFFCURVE",
"518 418 CURVE SMOOTH",
"518 572 OFFCURVE",
"412 618 OFFCURVE",
"325 618 CURVE SMOOTH",
"185 618 OFFCURVE",
"117 396 OFFCURVE",
"117 261 CURVE SMOOTH",
"117 107 OFFCURVE",
"223 61 OFFCURVE",
"303 61 CURVE SMOOTH"
);
}
);
};
layerId = "B0B60A8F-2DEB-4A58-A43B-60A0DADABD8F";
paths = (
{
closed = 1;
nodes = (
"598 236 OFFCURVE",
"489 6 OFFCURVE",
"273 6 CURVE SMOOTH",
"140 6 OFFCURVE",
"37 84 OFFCURVE",
"37 241 CURVE SMOOTH",
"37 429 OFFCURVE",
"140 673 OFFCURVE",
"364 673 CURVE SMOOTH",
"490 673 OFFCURVE",
"598 605 OFFCURVE",
"598 450 CURVE SMOOTH"
);
},
{
closed = 1;
nodes = (
"421 66 OFFCURVE",
"483 324 OFFCURVE",
"483 481 CURVE SMOOTH",
"483 562 OFFCURVE",
"398 613 OFFCURVE",
"330 613 CURVE SMOOTH",
"211 613 OFFCURVE",
"152 346 OFFCURVE",
"152 198 CURVE SMOOTH",
"152 117 OFFCURVE",
"246 66 OFFCURVE",
"308 66 CURVE SMOOTH"
);
}
);
width = 635;
}
);
unicode = 0030;
},
{
glyphname = one;
lastChange = "2021-02-16 05:44:02 +0000";
layers = (
{
layerId = "B0B60A8F-2DEB-4A58-A43B-60A0DADABD8F";
paths = (
{
closed = 1;
nodes = (
"243 680 OFFCURVE",
"192 680 OFFCURVE",
"180 680 CURVE",
"172 680 OFFCURVE",
"163 678 OFFCURVE",
"162 660 CURVE SMOOTH",
"152 516 OFFCURVE",
"125 240 OFFCURVE",
"103 71 CURVE SMOOTH",
"97 28 OFFCURVE",
"91 0 OFFCURVE",
"118 0 CURVE SMOOTH",
"127 0 OFFCURVE",
"156 0 OFFCURVE",
"192 0 CURVE SMOOTH",
"219 0 OFFCURVE",
"216 28 OFFCURVE",
"219 71 CURVE SMOOTH",
"232 248 OFFCURVE",
"262 518 OFFCURVE",
"279 656 CURVE SMOOTH",
"282 678 OFFCURVE",
"265 680 OFFCURVE",
"255 680 CURVE"
);
},
{
closed = 1;
nodes = (
"180 680 LINE",
"165 680 OFFCURVE",
"149 680 OFFCURVE",
"134 680 CURVE SMOOTH",
"111 680 OFFCURVE",
"103 678 OFFCURVE",
"98 661 CURVE SMOOTH",
"94 648 OFFCURVE",
"86 621 OFFCURVE",
"81 604 CURVE SMOOTH",
"77 589 OFFCURVE",
"83 582 OFFCURVE",
"96 582 CURVE SMOOTH",
"100 582 OFFCURVE",
"116 582 OFFCURVE",
"122 582 CURVE SMOOTH",
"137 582 OFFCURVE",
"144 593 OFFCURVE",
"152 623 CURVE",
"154 623 OFFCURVE",
"173 623 OFFCURVE",
"175 623 CURVE"
);
}
);
width = 359;
}
);
unicode = 0031;
},
{
glyphname = two;
lastChange = "2021-02-16 06:13:04 +0000";
layers = (
{
layerId = "B0B60A8F-2DEB-4A58-A43B-60A0DADABD8F";
paths = (
{
closed = 1;
nodes = (
"40 111 OFFCURVE",
"59 130 OFFCURVE",
"92 158 CURVE SMOOTH",
"194 242 OFFCURVE",
"422 423 OFFCURVE",
"420 520 CURVE SMOOTH",
"419 579 OFFCURVE",
"382 640 OFFCURVE",
"323 640 CURVE SMOOTH",
"252 640 OFFCURVE",
"231 565 OFFCURVE",
"231 479 CURVE SMOOTH",
"231 469 OFFCURVE",
"229 462 OFFCURVE",
"210 462 CURVE SMOOTH",
"140 462 LINE SMOOTH",
"120 462 OFFCURVE",
"114 470 OFFCURVE",
"114 499 CURVE SMOOTH",
"114 589 OFFCURVE",
"213 685 OFFCURVE",
"331 685 CURVE SMOOTH",
"461 685 OFFCURVE",
"536 581 OFFCURVE",
"535 507 CURVE SMOOTH",
"534 398 OFFCURVE",
"332 236 OFFCURVE",
"221 144 CURVE SMOOTH",
"190 119 OFFCURVE",
"177 111 OFFCURVE",
"132 93 CURVE",
"132 84 LINE",
"184 84 OFFCURVE",
"373 102 OFFCURVE",
"402 107 CURVE SMOOTH",
"419 110 OFFCURVE",
"424 113 OFFCURVE",
"424 126 CURVE SMOOTH",
"424 156 LINE SMOOTH",
"424 164 OFFCURVE",
"430 167 OFFCURVE",
"436 167 CURVE SMOOTH",
"523 167 LINE SMOOTH",
"530 167 OFFCURVE",
"535 165 OFFCURVE",
"535 156 CURVE SMOOTH",
"535 53 OFFCURVE",
"454 0 OFFCURVE",
"386 0 CURVE SMOOTH",
"101 0 LINE SMOOTH",
"62 0 OFFCURVE",
"40 67 OFFCURVE",
"40 90 CURVE SMOOTH"
);
}
);
width = 575;
}
);
unicode = 0032;
},
{
glyphname = three;
lastChange = "2021-02-16 06:11:33 +0000";
layers = (
{
layerId = "B0B60A8F-2DEB-4A58-A43B-60A0DADABD8F";
paths = (
{
closed = 1;
nodes = (
"40 240 OFFCURVE",
"46 248 OFFCURVE",
"66 248 CURVE SMOOTH",
"136 248 LINE SMOOTH",
"155 248 OFFCURVE",
"157 241 OFFCURVE",
"157 231 CURVE SMOOTH",
"157 126 OFFCURVE",
"197 65 OFFCURVE",
"261 65 CURVE SMOOTH",
"327 65 OFFCURVE",
"412 172 OFFCURVE",
"413 245 CURVE SMOOTH",
"414 320 OFFCURVE",
"301 379 OFFCURVE",
"231 379 CURVE SMOOTH",
"211 379 OFFCURVE",
"205 388 OFFCURVE",
"205 398 CURVE SMOOTH",
"205 409 OFFCURVE",
"213 418 OFFCURVE",
"245 445 CURVE SMOOTH",
"309 498 OFFCURVE",
"380 547 OFFCURVE",
"431 599 CURVE",
"431 604 LINE",
"285 604 OFFCURVE",
"170 575 OFFCURVE",
"138 575 CURVE SMOOTH",
"123 575 OFFCURVE",
"116 583 OFFCURVE",
"121 599 CURVE SMOOTH",
"141 661 LINE SMOOTH",
"148 683 OFFCURVE",
"161 680 OFFCURVE",
"190 680 CURVE SMOOTH",
"470 680 LINE SMOOTH",
"497 680 OFFCURVE",
"525 631 OFFCURVE",
"525 601 CURVE SMOOTH",
"525 569 OFFCURVE",
"367 460 OFFCURVE",
"321 432 CURVE",
"321 426 LINE",
"325 426 OFFCURVE",
"332 426 OFFCURVE",
"337 426 CURVE SMOOTH",
"441 426 OFFCURVE",
"527 361 OFFCURVE",
"528 266 CURVE SMOOTH",
"529 138 OFFCURVE",
"417 0 OFFCURVE",
"260 0 CURVE SMOOTH",
"120 0 OFFCURVE",
"40 111 OFFCURVE",
"40 211 CURVE SMOOTH"
);
}
);
width = 568;
}
);
unicode = 0033;
},
{
glyphname = four;
lastChange = "2021-02-16 06:19:15 +0000";
layers = (
{
layerId = "B0B60A8F-2DEB-4A58-A43B-60A0DADABD8F";
paths = (
{
closed = 1;
nodes = (
"532 680 OFFCURVE",
"549 678 OFFCURVE",
"546 656 CURVE SMOOTH",
"529 518 OFFCURVE",
"499 248 OFFCURVE",
"486 71 CURVE SMOOTH",
"483 28 OFFCURVE",
"486 0 OFFCURVE",
"459 0 CURVE SMOOTH",
"423 0 OFFCURVE",
"394 0 OFFCURVE",
"385 0 CURVE SMOOTH",
"358 0 OFFCURVE",
"364 28 OFFCURVE",
"370 71 CURVE SMOOTH",
"392 240 OFFCURVE",
"426 516 OFFCURVE",
"436 660 CURVE SMOOTH",
"437 678 OFFCURVE",
"446 680 OFFCURVE",
"454 680 CURVE",
"466 680 OFFCURVE",
"510 680 OFFCURVE",
"522 680 CURVE"
);
},
{
closed = 1;
nodes = (
"50 215 OFFCURVE",
"54 223 OFFCURVE",
"75 247 CURVE SMOOTH",
"128 310 OFFCURVE",
"321 550 OFFCURVE",
"376 617 CURVE SMOOTH",
"425 675 OFFCURVE",
"437 680 OFFCURVE",
"454 680 CURVE SMOOTH",
"522 680 LINE",
"429 576 LINE",
"422 576 LINE",
"418 557 OFFCURVE",
"382 510 OFFCURVE",
"361 483 CURVE SMOOTH",
"311 418 OFFCURVE",
"251 342 OFFCURVE",
"202 281 CURVE SMOOTH",
"168 238 OFFCURVE",
"136 223 OFFCURVE",
"109 213 CURVE",
"109 206 LINE",
"285 206 OFFCURVE",
"553 237 OFFCURVE",
"585 237 CURVE SMOOTH",
"600 237 OFFCURVE",
"607 229 OFFCURVE",
"602 213 CURVE SMOOTH",
"582 149 LINE SMOOTH",
"575 127 OFFCURVE",
"562 130 OFFCURVE",
"533 130 CURVE SMOOTH",
"108 130 LINE SMOOTH",
"72 130 OFFCURVE",
"50 179 OFFCURVE",
"50 207 CURVE SMOOTH"
);
}
);
width = 624;
}
);
unicode = 0034;
},
{
glyphname = five;
lastChange = "2021-02-16 06:26:06 +0000";
layers = (
{
layerId = "B0B60A8F-2DEB-4A58-A43B-60A0DADABD8F";
paths = (
{
closed = 1;
nodes = (
"50 240 OFFCURVE",
"58 253 OFFCURVE",
"85 253 CURVE SMOOTH",
"145 253 LINE SMOOTH",
"160 253 OFFCURVE",
"165 250 OFFCURVE",
"165 234 CURVE SMOOTH",
"165 217 OFFCURVE",
"162 192 OFFCURVE",
"162 168 CURVE SMOOTH",
"162 97 OFFCURVE",
"234 56 OFFCURVE",
"277 56 CURVE SMOOTH",
"348 56 OFFCURVE",
"415 207 OFFCURVE",
"415 295 CURVE SMOOTH",
"415 351 OFFCURVE",
"337 408 OFFCURVE",
"286 408 CURVE SMOOTH",
"233 408 OFFCURVE",
"169 341 OFFCURVE",
"154 341 CURVE",
"139 361 LINE",
"180 412 LINE",
"187 412 LINE",
"214 440 OFFCURVE",
"272 481 OFFCURVE",
"337 481 CURVE SMOOTH",
"441 481 OFFCURVE",
"530 408 OFFCURVE",
"530 297 CURVE SMOOTH",
"530 116 OFFCURVE",
"395 -9 OFFCURVE",
"258 -9 CURVE SMOOTH",
"132 -9 OFFCURVE",
"50 84 OFFCURVE",
"50 208 CURVE SMOOTH"
);
},
{
closed = 1;
nodes = (
"125 480 OFFCURVE",
"157 627 OFFCURVE",
"164 656 CURVE SMOOTH",
"169 678 OFFCURVE",
"180 680 OFFCURVE",
"188 680 CURVE SMOOTH",
"518 680 LINE SMOOTH",
"527 680 OFFCURVE",
"537 678 OFFCURVE",
"531 658 CURVE SMOOTH",
"511 595 LINE SMOOTH",
"507 581 OFFCURVE",
"500 576 OFFCURVE",
"489 576 CURVE SMOOTH",
"467 576 OFFCURVE",
"372 607 OFFCURVE",
"256 607 CURVE SMOOTH",
"232 607 OFFCURVE",
"222 606 OFFCURVE",
"215 605 CURVE",
"201 555 OFFCURVE",
"183 445 OFFCURVE",
"180 412 CURVE SMOOTH",
"177 380 OFFCURVE",
"159 341 OFFCURVE",
"154 341 CURVE SMOOTH",
"147 341 OFFCURVE",
"133 349 OFFCURVE",
"121 355 CURVE SMOOTH",
"101 365 OFFCURVE",
"104 388 OFFCURVE",
"113 427 CURVE SMOOTH"
);
}
);
width = 593;
}
);
unicode = 0035;
},
{
glyphname = six;
lastChange = "2021-02-16 06:37:56 +0000";
layers = (
{
background = {
paths = (
{
closed = 1;
nodes = (
"613 201 OFFCURVE",
"492 -9 OFFCURVE",
"263 -9 CURVE SMOOTH",
"127 -9 OFFCURVE",
"12 72 OFFCURVE",
"12 223 CURVE SMOOTH",
"12 453 OFFCURVE",
"127 688 OFFCURVE",
"361 688 CURVE SMOOTH",
"493 688 OFFCURVE",
"613 607 OFFCURVE",
"613 455 CURVE SMOOTH"
);
},
{
closed = 1;
nodes = (
"421 61 OFFCURVE",
"496 323 OFFCURVE",
"496 488 CURVE SMOOTH",
"496 572 OFFCURVE",
"397 618 OFFCURVE",
"326 618 CURVE SMOOTH",
"201 618 OFFCURVE",
"129 346 OFFCURVE",
"129 191 CURVE SMOOTH",
"129 107 OFFCURVE",
"238 61 OFFCURVE",
"303 61 CURVE SMOOTH"
);
}
);
};
layerId = "B0B60A8F-2DEB-4A58-A43B-60A0DADABD8F";
paths = (
{
closed = 1;
nodes = (
"40 478 OFFCURVE",
"176 688 OFFCURVE",
"343 688 CURVE SMOOTH",
"467 688 OFFCURVE",
"510 614 OFFCURVE",
"510 524 CURVE SMOOTH",
"510 495 OFFCURVE",
"504 487 OFFCURVE",
"484 487 CURVE SMOOTH",
"414 487 LINE SMOOTH",
"395 487 OFFCURVE",
"393 494 OFFCURVE",
"393 504 CURVE SMOOTH",
"393 517 OFFCURVE",
"398 543 OFFCURVE",
"398 579 CURVE SMOOTH",
"398 620 OFFCURVE",
"364 643 OFFCURVE",
"337 643 CURVE SMOOTH",
"232 643 OFFCURVE",
"155 495 OFFCURVE",
"155 162 CURVE SMOOTH",
"155 109 OFFCURVE",
"237 57 OFFCURVE",
"289 57 CURVE SMOOTH",
"348 57 OFFCURVE",
"391 197 OFFCURVE",
"391 285 CURVE SMOOTH",
"391 341 OFFCURVE",
"327 381 OFFCURVE",
"283 381 CURVE SMOOTH",
"255 381 OFFCURVE",
"162 320 OFFCURVE",
"155 162 CURVE",
"140 162 LINE",
"140 357 LINE",
"171 357 LINE",
"206 401 OFFCURVE",
"268 446 OFFCURVE",
"336 446 CURVE SMOOTH",
"419 446 OFFCURVE",
"504 386 OFFCURVE",
"506 287 CURVE SMOOTH",
"509 106 OFFCURVE",
"393 -8 OFFCURVE",
"266 -8 CURVE SMOOTH",
"127 -8 OFFCURVE",
"40 96 OFFCURVE",
"40 222 CURVE SMOOTH"
);
}
);
width = 550;
}
);
unicode = 0036;
},
{
glyphname = seven;
lastChange = "2021-02-16 06:58:48 +0000";
layers = (
{
layerId = "B0B60A8F-2DEB-4A58-A43B-60A0DADABD8F";
paths = (
{
closed = 1;
nodes = (
"95 661 LINE SMOOTH",
"102 683 OFFCURVE",
"115 680 OFFCURVE",
"144 680 CURVE SMOOTH",
"481 680 LINE SMOOTH",
"508 680 OFFCURVE",
"536 631 OFFCURVE",
"536 601 CURVE SMOOTH",
"536 569 OFFCURVE",
"392 380 OFFCURVE",
"223 72 CURVE SMOOTH",
"190 12 OFFCURVE",
"181 0 OFFCURVE",
"159 0 CURVE SMOOTH",
"67 0 LINE SMOOTH",
"53 0 OFFCURVE",
"43 5 OFFCURVE",
"56 25 CURVE SMOOTH",
"159 179 OFFCURVE",
"326 419 OFFCURVE",
"390 520 CURVE SMOOTH",
"410 552 OFFCURVE",
"433 587 OFFCURVE",
"451 599 CURVE",
"451 604 LINE",
"305 604 OFFCURVE",
"122 567 OFFCURVE",
"90 567 CURVE SMOOTH",
"75 567 OFFCURVE",
"68 575 OFFCURVE",
"73 591 CURVE SMOOTH"
);
}
);
width = 516;
}
);
unicode = 0037;
},
{
glyphname = eight;
lastChange = "2021-02-16 06:58:27 +0000";
layers = (
{
background = {
paths = (
{
closed = 1;
nodes = (
"129 600 OFFCURVE",
"243 688 OFFCURVE",
"380 688 CURVE SMOOTH",
"494 688 OFFCURVE",
"552 632 OFFCURVE",
"552 574 CURVE SMOOTH",
"552 478 OFFCURVE",
"424 408 OFFCURVE",
"399 396 CURVE",
"399 385 LINE",
"357 415 LINE",
"371 427 OFFCURVE",
"457 532 OFFCURVE",
"457 576 CURVE SMOOTH",
"457 604 OFFCURVE",
"424 644 OFFCURVE",
"377 644 CURVE SMOOTH",
"309 644 OFFCURVE",
"249 576 OFFCURVE",
"249 529 CURVE",
"129 512 LINE"
);
},
{
closed = 1;
nodes = (
"281 345 LINE",
"265 331 OFFCURVE",
"170 218 OFFCURVE",
"170 156 CURVE SMOOTH",
"170 124 OFFCURVE",
"215 46 OFFCURVE",
"273 46 CURVE SMOOTH",
"363 46 OFFCURVE",
"422 138 OFFCURVE",
"422 200 CURVE",
"542 210 LINE",
"542 109 OFFCURVE",
"437 -9 OFFCURVE",
"280 -9 CURVE SMOOTH",
"137 -9 OFFCURVE",
"64 89 OFFCURVE",
"64 163 CURVE SMOOTH",
"64 265 OFFCURVE",
"206 351 OFFCURVE",
"234 365 CURVE",
"234 373 LINE"
);
},
{
closed = 1;
nodes = (
"332 436 OFFCURVE",
"405 384 OFFCURVE",
"444 356 CURVE SMOOTH",
"494 320 OFFCURVE",
"542 273 OFFCURVE",
"542 210 CURVE",
"542 165 OFFCURVE",
"422 167 OFFCURVE",
"422 200 CURVE",
"422 241 OFFCURVE",
"387 269 OFFCURVE",
"357 289 CURVE SMOOTH",
"325 311 OFFCURVE",
"270 348 OFFCURVE",
"234 373 CURVE SMOOTH",
"169 418 OFFCURVE",
"129 459 OFFCURVE",
"129 512 CURVE SMOOTH",
"129 540 OFFCURVE",
"249 576 OFFCURVE",
"249 529 CURVE SMOOTH",
"249 504 OFFCURVE",
"267 484 OFFCURVE",
"305 456 CURVE SMOOTH"
);
}
);
};
layerId = "B0B60A8F-2DEB-4A58-A43B-60A0DADABD8F";
paths = (
{
closed = 1;
nodes = (
"126 604 OFFCURVE",
"242 693 OFFCURVE",
"381 693 CURVE SMOOTH",
"497 693 OFFCURVE",
"566 636 OFFCURVE",
"566 577 CURVE SMOOTH",
"566 480 OFFCURVE",
"426 411 OFFCURVE",
"400 400 CURVE",
"400 386 LINE",
"354 417 LINE",
"368 429 OFFCURVE",
"467 527 OFFCURVE",
"467 577 CURVE SMOOTH",
"467 606 OFFCURVE",
"426 648 OFFCURVE",
"378 648 CURVE SMOOTH",
"309 648 OFFCURVE",
"248 579 OFFCURVE",
"248 532 CURVE",
"126 514 LINE"
);
},
{
closed = 1;
nodes = (
"284 345 LINE",
"267 331 OFFCURVE",
"158 226 OFFCURVE",
"158 158 CURVE SMOOTH",
"158 109 OFFCURVE",
"214 42 OFFCURVE",
"272 42 CURVE SMOOTH",
"364 42 OFFCURVE",
"434 135 OFFCURVE",
"434 198 CURVE",
"555 208 LINE",
"555 106 OFFCURVE",
"439 -14 OFFCURVE",
"280 -14 CURVE SMOOTH",
"135 -14 OFFCURVE",
"50 80 OFFCURVE",
"50 160 CURVE SMOOTH",
"50 270 OFFCURVE",
"205 353 OFFCURVE",
"233 367 CURVE",
"233 373 LINE"
);
},
{
closed = 1;
nodes = (
"332 437 OFFCURVE",
"417 385 OFFCURVE",
"456 356 CURVE SMOOTH",
"507 320 OFFCURVE",
"555 272 OFFCURVE",
"555 208 CURVE",
"555 163 OFFCURVE",
"434 165 OFFCURVE",
"434 198 CURVE",
"434 240 OFFCURVE",
"398 268 OFFCURVE",
"368 288 CURVE SMOOTH",
"335 311 OFFCURVE",
"269 348 OFFCURVE",
"233 373 CURVE SMOOTH",
"167 419 OFFCURVE",
"126 461 OFFCURVE",
"126 514 CURVE SMOOTH",
"126 543 OFFCURVE",
"248 579 OFFCURVE",
"248 532 CURVE SMOOTH",
"248 506 OFFCURVE",
"266 486 OFFCURVE",
"305 458 CURVE SMOOTH"
);
}
);
width = 616;
}
);
unicode = 0038;
},
{
glyphname = nine;
lastChange = "2021-02-16 07:09:03 +0000";
layers = (
{
background = {
paths = (
{
closed = 1;
nodes = (
"101 28 OFFCURVE",
"112 34 OFFCURVE",
"120 40 CURVE SMOOTH",
"183 89 OFFCURVE",
"357 202 OFFCURVE",
"357 525 CURVE SMOOTH",
"357 585 OFFCURVE",
"317 628 OFFCURVE",
"247 628 CURVE SMOOTH",
"188 628 OFFCURVE",
"155 482 OFFCURVE",
"155 388 CURVE SMOOTH",
"155 311 OFFCURVE",
"223 284 OFFCURVE",
"270 284 CURVE SMOOTH",
"319 284 OFFCURVE",
"357 387 OFFCURVE",
"357 525 CURVE",
"372 525 LINE",
"337 247 LINE",
"295 247 LINE",
"281 237 OFFCURVE",
"245 221 OFFCURVE",
"195 221 CURVE SMOOTH",
"114 221 OFFCURVE",
"40 280 OFFCURVE",
"40 389 CURVE SMOOTH",
"40 541 OFFCURVE",
"159 685 OFFCURVE",
"308 685 CURVE SMOOTH",
"428 685 OFFCURVE",
"472 584 OFFCURVE",
"472 485 CURVE SMOOTH",
"472 276 OFFCURVE",
"332 -4 OFFCURVE",
"154 -2 CURVE SMOOTH",
"124 -2 OFFCURVE",
"101 4 OFFCURVE",
"101 17 CURVE SMOOTH"
);
}
);
};
layerId = "B0B60A8F-2DEB-4A58-A43B-60A0DADABD8F";
paths = (
{
closed = 1;
nodes = (
"105 27 OFFCURVE",
"111 31 OFFCURVE",
"123 40 CURVE SMOOTH",
"195 94 OFFCURVE",
"373 202 OFFCURVE",
"373 525 CURVE SMOOTH",
"373 585 OFFCURVE",
"328 628 OFFCURVE",
"255 628 CURVE SMOOTH",
"194 628 OFFCURVE",
"157 482 OFFCURVE",
"157 388 CURVE SMOOTH",
"157 311 OFFCURVE",
"230 284 OFFCURVE",
"279 284 CURVE SMOOTH",
"330 284 OFFCURVE",
"373 387 OFFCURVE",
"373 525 CURVE",
"389 525 LINE",
"344 234 LINE",
"313 257 LINE",
"296 245 OFFCURVE",
"263 221 OFFCURVE",
"201 221 CURVE SMOOTH",
"117 221 OFFCURVE",
"40 280 OFFCURVE",
"40 389 CURVE SMOOTH",
"40 541 OFFCURVE",
"164 685 OFFCURVE",
"319 685 CURVE SMOOTH",
"448 685 OFFCURVE",
"495 597 OFFCURVE",
"495 494 CURVE SMOOTH",
"495 294 OFFCURVE",
"376 86 OFFCURVE",
"153 -22 CURVE SMOOTH",
"137 -30 OFFCURVE",
"133 -27 OFFCURVE",
"124 -13 CURVE",
"110 15 LINE"
);
}
);
width = 535;
}
);
unicode = 0039;
},
{
glyphname = colon;
lastChange = "2021-02-16 07:40:53 +0000";
layers = (
{
layerId = "B0B60A8F-2DEB-4A58-A43B-60A0DADABD8F";
paths = (
{
closed = 1;
nodes = (
"123 0 OFFCURVE",
"150 27 OFFCURVE",
"150 60 CURVE SMOOTH",
"150 93 OFFCURVE",
"123 120 OFFCURVE",
"90 120 CURVE SMOOTH",
"57 120 OFFCURVE",
"30 93 OFFCURVE",
"30 60 CURVE SMOOTH",
"30 27 OFFCURVE",
"57 0 OFFCURVE",
"90 0 CURVE SMOOTH"
);
},
{
closed = 1;
nodes = (
"152 240 OFFCURVE",
"179 267 OFFCURVE",
"179 300 CURVE SMOOTH",
"179 333 OFFCURVE",
"152 360 OFFCURVE",
"119 360 CURVE SMOOTH",
"86 360 OFFCURVE",
"59 333 OFFCURVE",
"59 300 CURVE SMOOTH",
"59 267 OFFCURVE",
"86 240 OFFCURVE",
"119 240 CURVE SMOOTH"
);
}
);
width = 209;
}
);
unicode = 003A;
},
{
glyphname = semicolon;
lastChange = "2021-02-21 15:14:23 +0000";
layers = (
{
layerId = "B0B60A8F-2DEB-4A58-A43B-60A0DADABD8F";
paths = (
{
closed = 1;
nodes = (
"152 240 OFFCURVE",
"179 267 OFFCURVE",
"179 300 CURVE SMOOTH",
"179 333 OFFCURVE",
"152 360 OFFCURVE",
"119 360 CURVE SMOOTH",
"86 360 OFFCURVE",
"59 333 OFFCURVE",
"59 300 CURVE SMOOTH",
"59 267 OFFCURVE",
"86 240 OFFCURVE",
"119 240 CURVE SMOOTH"
);
},
{
closed = 1;
nodes = (
"53 -87 OFFCURVE",
"108 -17 OFFCURVE",
"108 -2 CURVE SMOOTH",
"108 7 OFFCURVE",
"105 17 OFFCURVE",
"99 17 CURVE SMOOTH",
"96 17 OFFCURVE",
"96 17 OFFCURVE",
"93 17 CURVE SMOOTH",
"85 17 OFFCURVE",
"85 0 OFFCURVE",
"75 0 CURVE SMOOTH",
"71 0 OFFCURVE",
"44 0 OFFCURVE",
"39 0 CURVE SMOOTH",
"32 0 OFFCURVE",
"29 4 OFFCURVE",
"30 13 CURVE SMOOTH",
"31 23 OFFCURVE",
"38 76 OFFCURVE",
"40 93 CURVE SMOOTH",
"42 109 OFFCURVE",
"52 113 OFFCURVE",
"64 113 CURVE SMOOTH",
"116 113 OFFCURVE",
"190 70 OFFCURVE",
"190 14 CURVE SMOOTH",
"190 -63 OFFCURVE",
"93 -111 OFFCURVE",
"65 -111 CURVE SMOOTH",
"57 -111 OFFCURVE",
"53 -108 OFFCURVE",
"53 -103 CURVE SMOOTH"
);
}
);
width = 220;
}
);
unicode = 003B;
},
{
glyphname = less;
lastChange = "2021-02-18 10:47:56 +0000";
layers = (
{
layerId = "B0B60A8F-2DEB-4A58-A43B-60A0DADABD8F";
paths = (
{
closed = 1;
nodes = (
"62 213 OFFCURVE",
"69 208 OFFCURVE",
"82 202 CURVE SMOOTH",
"525 8 LINE SMOOTH",
"541 1 OFFCURVE",
"556 6 OFFCURVE",
"562 23 CURVE SMOOTH",
"581 74 LINE SMOOTH",
"588 92 OFFCURVE",
"584 98 OFFCURVE",
"570 104 CURVE SMOOTH",
"137 274 LINE",
"137 278 LINE",
"570 453 LINE SMOOTH",
"584 459 OFFCURVE",
"588 465 OFFCURVE",
"581 483 CURVE SMOOTH",
"562 534 LINE SMOOTH",
"556 551 OFFCURVE",
"541 556 OFFCURVE",
"525 549 CURVE SMOOTH",
"82 350 LINE SMOOTH",
"69 344 OFFCURVE",
"62 339 OFFCURVE",
"66 324 CURVE SMOOTH",
"78 276 LINE",
"66 228 LINE SMOOTH"
);
}
);
width = 649;
}
);
unicode = 003C;
},
{
glyphname = equal;
lastChange = "2021-02-18 10:41:55 +0000";
layers = (
{
background = {
paths = (
{
closed = 1;
nodes = (
"114 516 LINE",
"97 516 OFFCURVE",
"89 512 OFFCURVE",
"84 497 CURVE SMOOTH",
"67 444 LINE SMOOTH",
"62 429 OFFCURVE",
"69 422 OFFCURVE",
"88 422 CURVE SMOOTH",
"445 422 LINE",
"462 422 OFFCURVE",
"470 426 OFFCURVE",
"475 441 CURVE SMOOTH",
"492 494 LINE SMOOTH",
"497 509 OFFCURVE",
"490 516 OFFCURVE",
"471 516 CURVE SMOOTH"
);
},
{
closed = 1;
nodes = (
"64 296 LINE",
"47 296 OFFCURVE",
"39 292 OFFCURVE",
"34 277 CURVE SMOOTH",
"17 224 LINE SMOOTH",
"12 209 OFFCURVE",
"19 202 OFFCURVE",
"38 202 CURVE SMOOTH",
"395 202 LINE",
"412 202 OFFCURVE",
"420 206 OFFCURVE",
"425 221 CURVE SMOOTH",
"442 274 LINE SMOOTH",
"447 289 OFFCURVE",
"440 296 OFFCURVE",
"421 296 CURVE SMOOTH"
);
}
);
};
layerId = "B0B60A8F-2DEB-4A58-A43B-60A0DADABD8F";
paths = (
{
closed = 1;
nodes = (
"114 516 LINE",
"97 516 OFFCURVE",
"89 512 OFFCURVE",
"84 497 CURVE SMOOTH",
"69 449 LINE SMOOTH",
"64 434 OFFCURVE",
"71 427 OFFCURVE",
"90 427 CURVE SMOOTH",
"447 427 LINE",
"464 427 OFFCURVE",
"472 431 OFFCURVE",
"477 446 CURVE SMOOTH",
"492 494 LINE SMOOTH",
"497 509 OFFCURVE",
"490 516 OFFCURVE",
"471 516 CURVE SMOOTH"
);
},
{
closed = 1;
nodes = (
"92 291 LINE",
"75 291 OFFCURVE",
"67 287 OFFCURVE",
"62 272 CURVE SMOOTH",
"47 224 LINE SMOOTH",
"42 209 OFFCURVE",
"49 202 OFFCURVE",
"68 202 CURVE SMOOTH",
"425 202 LINE",
"442 202 OFFCURVE",
"450 206 OFFCURVE",
"455 221 CURVE SMOOTH",
"470 269 LINE SMOOTH",
"475 284 OFFCURVE",
"468 291 OFFCURVE",
"449 291 CURVE SMOOTH"
);
}
);
width = 539;
}
);
unicode = 003D;
},
{
glyphname = greater;
lastChange = "2021-02-18 10:48:38 +0000";
layers = (
{
layerId = "B0B60A8F-2DEB-4A58-A43B-60A0DADABD8F";
paths = (
{
closed = 1;
nodes = (
"571 276 LINE",
"583 324 LINE SMOOTH",
"587 339 OFFCURVE",
"580 344 OFFCURVE",
"567 350 CURVE SMOOTH",
"124 549 LINE SMOOTH",
"108 556 OFFCURVE",
"93 551 OFFCURVE",
"87 534 CURVE SMOOTH",
"68 483 LINE SMOOTH",
"61 465 OFFCURVE",
"65 459 OFFCURVE",
"79 453 CURVE SMOOTH",
"512 278 LINE",
"512 274 LINE",
"79 104 LINE SMOOTH",
"65 98 OFFCURVE",
"61 92 OFFCURVE",
"68 74 CURVE SMOOTH",
"87 23 LINE SMOOTH",
"93 6 OFFCURVE",
"108 1 OFFCURVE",
"124 8 CURVE SMOOTH",
"567 202 LINE SMOOTH",
"580 208 OFFCURVE",
"587 213 OFFCURVE",
"583 228 CURVE SMOOTH"
);
}
);
width = 649;
}
);
unicode = 003E;
},
{
glyphname = question;
lastChange = "2021-02-16 07:14:52 +0000";
layers = (
{
background = {
paths = (
{
closed = 1;
nodes = (
"122 208 OFFCURVE",
"123 193 OFFCURVE",
"140 193 CURVE SMOOTH",
"169 193 LINE SMOOTH",
"196 193 OFFCURVE",
"202 215 OFFCURVE",
"206 250 CURVE SMOOTH",
"219 364 LINE",
"332 364 OFFCURVE",
"421 413 OFFCURVE",
"421 510 CURVE SMOOTH",
"421 584 OFFCURVE",
"332 655 OFFCURVE",
"234 655 CURVE SMOOTH",
"168 655 OFFCURVE",
"138 640 OFFCURVE",
"138 583 CURVE SMOOTH",
"138 554 OFFCURVE",
"150 541 OFFCURVE",
"157 541 CURVE SMOOTH",
"181 541 OFFCURVE",
"202 605 OFFCURVE",
"221 605 CURVE SMOOTH",
"274 605 OFFCURVE",
"328 554 OFFCURVE",
"328 501 CURVE SMOOTH",
"328 456 OFFCURVE",
"293 433 OFFCURVE",
"217 415 CURVE SMOOTH",
"148 398 OFFCURVE",
"133 354 OFFCURVE",
"124 230 CURVE SMOOTH"
);
},
{
closed = 1;
nodes = (
"178 0 OFFCURVE",
"205 27 OFFCURVE",
"205 60 CURVE SMOOTH",
"205 93 OFFCURVE",
"178 120 OFFCURVE",
"145 120 CURVE SMOOTH",
"112 120 OFFCURVE",
"85 93 OFFCURVE",
"85 60 CURVE SMOOTH",
"85 27 OFFCURVE",
"112 0 OFFCURVE",
"145 0 CURVE SMOOTH"
);
}
);
};
layerId = "B0B60A8F-2DEB-4A58-A43B-60A0DADABD8F";
paths = (
{
closed = 1;
nodes = (
"117 208 OFFCURVE",
"118 193 OFFCURVE",
"135 193 CURVE SMOOTH",
"169 193 LINE SMOOTH",
"196 193 OFFCURVE",
"202 215 OFFCURVE",
"206 250 CURVE SMOOTH",
"220 374 LINE",
"333 374 OFFCURVE",
"434 405 OFFCURVE",
"434 495 CURVE SMOOTH",
"434 583 OFFCURVE",
"335 665 OFFCURVE",
"234 665 CURVE SMOOTH",
"168 665 OFFCURVE",
"130 648 OFFCURVE",
"130 589 CURVE SMOOTH",
"130 553 OFFCURVE",
"149 528 OFFCURVE",
"162 528 CURVE SMOOTH",
"189 528 OFFCURVE",
"202 625 OFFCURVE",
"229 625 CURVE SMOOTH",
"269 625 OFFCURVE",
"338 564 OFFCURVE",
"338 501 CURVE SMOOTH",
"338 456 OFFCURVE",
"293 433 OFFCURVE",
"217 415 CURVE SMOOTH",
"148 398 OFFCURVE",
"128 354 OFFCURVE",
"119 230 CURVE SMOOTH"
);
},
{
closed = 1;
nodes = (
"178 0 OFFCURVE",
"205 27 OFFCURVE",
"205 60 CURVE SMOOTH",
"205 93 OFFCURVE",
"178 120 OFFCURVE",
"145 120 CURVE SMOOTH",
"112 120 OFFCURVE",
"85 93 OFFCURVE",
"85 60 CURVE SMOOTH",
"85 27 OFFCURVE",
"112 0 OFFCURVE",
"145 0 CURVE SMOOTH"
);
}
);
width = 504;
}
);
unicode = 003F;
},
{
glyphname = at;
lastChange = "2021-02-18 09:42:31 +0000";
layers = (
{
layerId = "B0B60A8F-2DEB-4A58-A43B-60A0DADABD8F";
paths = (
{
closed = 1;
nodes = (
"539 129 LINE",
"533 77 OFFCURVE",
"483 -12 OFFCURVE",
"442 -12 CURVE SMOOTH",
"413 -12 OFFCURVE",
"350 15 OFFCURVE",
"350 87 CURVE SMOOTH",
"350 188 OFFCURVE",
"399 311 OFFCURVE",
"460 311 CURVE SMOOTH",
"495 311 OFFCURVE",
"537 262 OFFCURVE",
"557 234 CURVE",
"563 234 LINE",
"560 334 LINE",
"553 334 LINE",
"529 350 OFFCURVE",
"506 362 OFFCURVE",
"472 362 CURVE SMOOTH",
"361 362 OFFCURVE",
"258 207 OFFCURVE",
"258 77 CURVE SMOOTH",
"258 -24 OFFCURVE",
"329 -76 OFFCURVE",
"406 -76 CURVE SMOOTH",
"482 -76 OFFCURVE",
"540 -20 OFFCURVE",
"566 63 CURVE"
);
},
{
closed = 1;
nodes = (
"50 -144 OFFCURVE",
"196 -231 OFFCURVE",
"384 -231 CURVE SMOOTH",
"437 -231 OFFCURVE",
"520 -231 OFFCURVE",
"588 -231 CURVE SMOOTH",
"599 -231 OFFCURVE",
"605 -226 OFFCURVE",
"610 -212 CURVE",
"627 -160 LINE",
"634 -140 OFFCURVE",
"623 -138 OFFCURVE",
"614 -138 CURVE SMOOTH",
"591 -138 OFFCURVE",
"513 -164 OFFCURVE",
"442 -164 CURVE SMOOTH",
"329 -164 OFFCURVE",
"155 -119 OFFCURVE",
"155 43 CURVE SMOOTH",
"155 244 OFFCURVE",
"357 475 OFFCURVE",
"528 475 CURVE SMOOTH",
"620 475 OFFCURVE",
"737 401 OFFCURVE",
"737 239 CURVE SMOOTH",
"737 145 OFFCURVE",
"686 -18 OFFCURVE",
"626 -18 CURVE SMOOTH",
"613 -18 OFFCURVE",
"610 0 OFFCURVE",
"612 21 CURVE SMOOTH",
"624 182 OFFCURVE",
"639 295 OFFCURVE",
"646 345 CURVE SMOOTH",
"649 363 OFFCURVE",
"639 365 OFFCURVE",
"630 365 CURVE SMOOTH",
"577 365 LINE SMOOTH",
"563 365 OFFCURVE",
"562 357 OFFCURVE",
"560 334 CURVE SMOOTH",
"557 301 OFFCURVE",
"551 240 OFFCURVE",
"539 129 CURVE",
"542 7 LINE",
"547 7 LINE",
"547 -24 OFFCURVE",
"573 -76 OFFCURVE",
"632 -76 CURVE SMOOTH",
"747 -76 OFFCURVE",
"839 80 OFFCURVE",
"839 237 CURVE SMOOTH",
"839 428 OFFCURVE",
"706 535 OFFCURVE",
"538 535 CURVE SMOOTH",
"264 535 OFFCURVE",
"50 275 OFFCURVE",
"50 41 CURVE SMOOTH"
);
}
);
width = 889;
}
);
unicode = 0040;
},
{
glyphname = A;
lastChange = "2021-04-05 14:43:37 +0000";
layers = (
{
layerId = "B0B60A8F-2DEB-4A58-A43B-60A0DADABD8F";
paths = (
{
closed = 1;
nodes = (
"-32 -2 OFFCURVE",
"-26 -14 OFFCURVE",
"1 -14 CURVE SMOOTH",
"35 -14 OFFCURVE",
"84 8 OFFCURVE",
"97 40 CURVE SMOOTH",
"114 81 OFFCURVE",
"120 112 OFFCURVE",
"138 154 CURVE SMOOTH",
"330 599 LINE",
"308 587 LINE",
"421 84 LINE SMOOTH",
"433 31 OFFCURVE",
"453 -10 OFFCURVE",
"493 -10 CURVE SMOOTH",
"534 -10 OFFCURVE",
"580 17 OFFCURVE",
"580 44 CURVE SMOOTH",
"580 67 OFFCURVE",
"547 107 OFFCURVE",
"522 207 CURVE SMOOTH",
"484 360 OFFCURVE",
"447 512 OFFCURVE",
"419 665 CURVE SMOOTH",
"414 690 OFFCURVE",
"400 694 OFFCURVE",
"393 694 CURVE SMOOTH",
"355 694 OFFCURVE",
"284 684 OFFCURVE",
"272 659 CURVE SMOOTH",
"-18 29 LINE SMOOTH"
);
},
{
closed = 1;
nodes = (
"127 190 LINE",
"468 190 LINE",
"468 265 LINE",
"127 265 LINE"
);
}
);
width = 601;
}
);
unicode = 0041;
},
{
glyphname = B;
lastChange = "2021-01-28 21:20:25 +0000";
layers = (
{
layerId = "B0B60A8F-2DEB-4A58-A43B-60A0DADABD8F";
paths = (
{
closed = 1;
nodes = (
"176 680 OFFCURVE",
"127 680 OFFCURVE",
"115 680 CURVE",
"107 680 OFFCURVE",
"93 678 OFFCURVE",
"91 656 CURVE SMOOTH",
"81 518 OFFCURVE",
"55 246 OFFCURVE",
"34 75 CURVE SMOOTH",
"28 28 OFFCURVE",
"22 0 OFFCURVE",
"62 0 CURVE SMOOTH",
"71 0 OFFCURVE",
"87 0 OFFCURVE",
"123 0 CURVE SMOOTH",
"150 0 OFFCURVE",
"146 28 OFFCURVE",
"150 71 CURVE SMOOTH",
"164 242 OFFCURVE",
"190 516 OFFCURVE",
"208 660 CURVE SMOOTH",
"210 678 OFFCURVE",
"201 680 OFFCURVE",
"192 680 CURVE"
);
},
{
closed = 1;
nodes = (
"190 362 OFFCURVE",
"193 360 OFFCURVE",
"202 361 CURVE SMOOTH",
"261 370 OFFCURVE",
"392 393 OFFCURVE",
"414 393 CURVE",
"414 396 OFFCURVE",
"414 401 OFFCURVE",
"414 406 CURVE",
"484 434 OFFCURVE",
"558 487 OFFCURVE",
"558 557 CURVE SMOOTH",
"558 619 OFFCURVE",
"496 684 OFFCURVE",
"345 684 CURVE SMOOTH",
"290 684 OFFCURVE",
"270 680 OFFCURVE",
"192 680 CURVE",
"192 584 LINE",
"199 584 LINE",
"204 629 OFFCURVE",
"210 641 OFFCURVE",
"306 641 CURVE SMOOTH",
"402 641 OFFCURVE",
"443 604 OFFCURVE",
"443 553 CURVE SMOOTH",
"443 499 OFFCURVE",
"402 434 OFFCURVE",
"206 404 CURVE SMOOTH",
"195 402 OFFCURVE",
"194 400 OFFCURVE",
"193 390 CURVE",
"191 371 LINE"
);
},
{
closed = 1;
nodes = (
"405 394 OFFCURVE",
"451 332 OFFCURVE",
"451 277 CURVE SMOOTH",
"451 168 OFFCURVE",
"356 55 OFFCURVE",
"237 55 CURVE SMOOTH",
"189 55 OFFCURVE",
"150 65 OFFCURVE",
"154 120 CURVE",
"123 120 LINE",
"123 0 LINE",
"157 0 OFFCURVE",
"184 0 OFFCURVE",
"208 0 CURVE SMOOTH",
"499 0 OFFCURVE",
"573 176 OFFCURVE",
"573 267 CURVE SMOOTH",
"573 378 OFFCURVE",
"467 400 OFFCURVE",
"414 400 CURVE",
"301 377 LINE"
);
}
);
width = 603;
}
);
unicode = 0042;
},
{
glyphname = C;
lastChange = "2021-01-28 21:41:34 +0000";
layers = (
{
background = {
paths = (
{
closed = 1;
nodes = (
"708 206 OFFCURVE",
"543 -9 OFFCURVE",
"319 -9 CURVE SMOOTH",
"172 -9 OFFCURVE",
"27 72 OFFCURVE",
"27 243 CURVE SMOOTH",
"27 473 OFFCURVE",
"192 688 OFFCURVE",
"416 688 CURVE SMOOTH",
"563 688 OFFCURVE",
"708 607 OFFCURVE",
"708 436 CURVE SMOOTH"
);
},
{
closed = 1;
nodes = (
"500 56 OFFCURVE",
"573 283 OFFCURVE",
"573 418 CURVE SMOOTH",
"573 572 OFFCURVE",
"462 623 OFFCURVE",
"375 623 CURVE SMOOTH",
"235 623 OFFCURVE",
"162 396 OFFCURVE",
"162 261 CURVE SMOOTH",
"162 107 OFFCURVE",
"273 56 OFFCURVE",
"360 56 CURVE SMOOTH"
);
},
{
closed = 1;
nodes = (
"165 582 OFFCURVE",
"281 688 OFFCURVE",
"417 688 CURVE SMOOTH",
"529 688 OFFCURVE",
"605 601 OFFCURVE",
"601 512 CURVE SMOOTH",
"600 483 OFFCURVE",
"595 475 OFFCURVE",
"575 475 CURVE",
"505 475 LINE",
"486 475 OFFCURVE",
"484 482 OFFCURVE",
"484 492 CURVE SMOOTH",
"484 505 OFFCURVE",
"489 531 OFFCURVE",
"489 567 CURVE SMOOTH",
"489 614 OFFCURVE",
"462 644 OFFCURVE",
"413 644 CURVE SMOOTH",
"345 644 OFFCURVE",
"285 570 OFFCURVE",
"285 529 CURVE",
"165 512 LINE"
);
}
);
};
layerId = "B0B60A8F-2DEB-4A58-A43B-60A0DADABD8F";
paths = (
{
closed = 1;
nodes = (
"557 175 OFFCURVE",
"578 142 OFFCURVE",
"578 115 CURVE SMOOTH",
"578 80 OFFCURVE",
"453 -9 OFFCURVE",
"310 -9 CURVE SMOOTH",
"179 -9 OFFCURVE",
"30 69 OFFCURVE",
"30 237 CURVE SMOOTH",
"30 473 OFFCURVE",
"234 688 OFFCURVE",
"439 688 CURVE SMOOTH",
"569 688 OFFCURVE",
"629 587 OFFCURVE",
"629 463 CURVE SMOOTH",
"629 434 OFFCURVE",
"623 426 OFFCURVE",
"603 426 CURVE",
"526 426 LINE",
"507 426 OFFCURVE",
"505 433 OFFCURVE",
"505 443 CURVE SMOOTH",
"505 463 OFFCURVE",
"510 479 OFFCURVE",
"510 518 CURVE SMOOTH",
"510 589 OFFCURVE",
"482 630 OFFCURVE",
"423 630 CURVE SMOOTH",
"281 630 OFFCURVE",
"155 409 OFFCURVE",
"155 250 CURVE SMOOTH",
"155 103 OFFCURVE",
"263 56 OFFCURVE",
"324 56 CURVE SMOOTH",
"424 56 OFFCURVE",
"512 175 OFFCURVE",
"540 175 CURVE SMOOTH"
);
}
);
width = 669;
}
);
unicode = 0043;
},
{
glyphname = D;
lastChange = "2021-01-28 10:45:46 +0000";
layers = (
{
background = {
paths = (
{
closed = 1;
nodes = (
"535 0 OFFCURVE",
"546 2 OFFCURVE",
"542 20 CURVE SMOOTH",
"531 73 OFFCURVE",
"432 523 OFFCURVE",
"410 631 CURVE SMOOTH",
"402 668 OFFCURVE",
"395 680 OFFCURVE",
"377 680 CURVE SMOOTH",
"352 680 OFFCURVE",
"302 663 OFFCURVE",
"274 628 CURVE",
"313 593 LINE",
"317 593 OFFCURVE",
"319 593 OFFCURVE",
"323 593 CURVE",
"324 566 OFFCURVE",
"326 538 OFFCURVE",
"328 523 CURVE SMOOTH",
"340 445 OFFCURVE",
"400 87 OFFCURVE",
"411 28 CURVE SMOOTH",
"414 10 OFFCURVE",
"423 0 OFFCURVE",
"445 0 CURVE",
"461 0 OFFCURVE",
"510 0 OFFCURVE",
"526 0 CURVE"
);
},
{
closed = 1;
nodes = (
"301 628 OFFCURVE",
"286 628 OFFCURVE",
"274 628 CURVE",
"258 608 OFFCURVE",
"220 518 OFFCURVE",
"209 490 CURVE SMOOTH",
"191 445 OFFCURVE",
"49 89 OFFCURVE",
"19 22 CURVE SMOOTH",
"12 6 OFFCURVE",
"17 0 OFFCURVE",
"28 0 CURVE SMOOTH",
"38 0 OFFCURVE",
"60 0 OFFCURVE",
"72 0 CURVE SMOOTH",
"96 0 OFFCURVE",
"107 3 OFFCURVE",
"127 71 CURVE SMOOTH",
"172 224 OFFCURVE",
"253 455 OFFCURVE",
"313 593 CURVE",
"313 628 LINE"
);
},
{
closed = 1;
nodes = (
"193 217 LINE",
"362 217 LINE",
"362 252 LINE",
"193 252 LINE"
);
},
{
closed = 1;
nodes = (
"195 291 LINE",
"156 184 LINE",
"162 184 LINE",
"173 215 OFFCURVE",
"184 217 OFFCURVE",
"211 217 CURVE",
"219 252 LINE",
"195 252 OFFCURVE",
"188 266 OFFCURVE",
"198 291 CURVE"
);
},
{
closed = 1;
nodes = (
"370 265 OFFCURVE",
"369 252 OFFCURVE",
"338 252 CURVE",
"338 217 LINE",
"365 217 OFFCURVE",
"379 216 OFFCURVE",
"384 185 CURVE",
"390 185 LINE",
"369 291 LINE",
"366 291 LINE"
);
}
);
};
layerId = "B0B60A8F-2DEB-4A58-A43B-60A0DADABD8F";
paths = (
{
closed = 1;
nodes = (
"146 680 OFFCURVE",
"127 680 OFFCURVE",
"115 680 CURVE",
"107 680 OFFCURVE",
"93 678 OFFCURVE",
"91 656 CURVE SMOOTH",
"81 518 OFFCURVE",
"55 246 OFFCURVE",
"34 75 CURVE SMOOTH",
"28 28 OFFCURVE",
"22 0 OFFCURVE",
"62 0 CURVE SMOOTH",
"71 0 OFFCURVE",
"87 0 OFFCURVE",
"123 0 CURVE SMOOTH",
"150 0 OFFCURVE",
"147 28 OFFCURVE",
"150 71 CURVE SMOOTH",
"164 248 OFFCURVE",
"190 516 OFFCURVE",
"208 660 CURVE SMOOTH",
"210 678 OFFCURVE",
"201 680 OFFCURVE",
"192 680 CURVE"
);
},
{
closed = 1;
nodes = (
"204 629 OFFCURVE",
"210 634 OFFCURVE",
"326 634 CURVE SMOOTH",
"477 634 OFFCURVE",
"545 555 OFFCURVE",
"545 418 CURVE SMOOTH",
"545 261 OFFCURVE",
"442 56 OFFCURVE",
"257 56 CURVE SMOOTH",
"199 56 OFFCURVE",
"150 65 OFFCURVE",
"154 120 CURVE",
"123 120 LINE",
"123 0 LINE",
"157 0 OFFCURVE",
"184 0 OFFCURVE",
"219 0 CURVE SMOOTH",
"556 0 OFFCURVE",
"670 241 OFFCURVE",
"670 429 CURVE SMOOTH",
"670 598 OFFCURVE",
"567 684 OFFCURVE",
"388 684 CURVE SMOOTH",
"318 684 OFFCURVE",
"270 680 OFFCURVE",
"192 680 CURVE",
"192 584 LINE",
"199 584 LINE"
);
}
);
width = 700;
}
);
unicode = 0044;
},
{
glyphname = E;
lastChange = "2021-04-05 14:40:22 +0000";
layers = (
{
layerId = "B0B60A8F-2DEB-4A58-A43B-60A0DADABD8F";
paths = (
{
closed = 1;
nodes = (
"145 315 LINE",
"297 317 LINE SMOOTH",
"339 318 OFFCURVE",
"410 348 OFFCURVE",
"410 378 CURVE SMOOTH",
"410 388 OFFCURVE",
"404 396 OFFCURVE",
"394 396 CURVE SMOOTH",
"158 392 LINE"
);
},
{
closed = 1;
nodes = (
"51 15 OFFCURVE",
"67 -10 OFFCURVE",
"91 -10 CURVE SMOOTH",
"126 -10 OFFCURVE",
"217 0 OFFCURVE",
"297 0 CURVE SMOOTH",
"389 0 LINE SMOOTH",
"443 0 OFFCURVE",
"469 75 OFFCURVE",
"469 125 CURVE SMOOTH",
"469 135 OFFCURVE",
"463 139 OFFCURVE",
"457 139 CURVE SMOOTH",
"440 139 OFFCURVE",
"358 82 OFFCURVE",
"180 75 CURVE",
"176 103 OFFCURVE",
"179 131 OFFCURVE",
"182 159 CURVE SMOOTH",
"230 605 LINE",
"423 605 OFFCURVE",
"452 552 OFFCURVE",
"472 552 CURVE SMOOTH",
"493 552 OFFCURVE",
"518 601 OFFCURVE",
"516 645 CURVE SMOOTH",
"515 671 OFFCURVE",
"510 680 OFFCURVE",
"479 680 CURVE SMOOTH",
"178 680 LINE SMOOTH",
"130 680 OFFCURVE",
"103 672 OFFCURVE",
"103 645 CURVE SMOOTH",
"103 610 OFFCURVE",
"105 569 OFFCURVE",
"99 511 CURVE SMOOTH",
"54 96 LINE SMOOTH",
"52 79 OFFCURVE",
"51 64 OFFCURVE",
"51 51 CURVE SMOOTH"
);
}
);
width = 512;
}
);
leftMetricsKey = H;
unicode = 0045;
},
{
glyphname = F;
lastChange = "2021-01-28 22:24:14 +0000";
layers = (
{
background = {
paths = (
{
closed = 1;
nodes = (
"176 680 OFFCURVE",
"126 680 OFFCURVE",
"114 680 CURVE",
"106 680 OFFCURVE",
"92 678 OFFCURVE",
"90 656 CURVE SMOOTH",
"80 518 OFFCURVE",
"54 246 OFFCURVE",
"33 75 CURVE SMOOTH",
"27 28 OFFCURVE",
"21 0 OFFCURVE",
"61 0 CURVE SMOOTH",
"70 0 OFFCURVE",
"87 0 OFFCURVE",
"123 0 CURVE SMOOTH",
"150 0 OFFCURVE",
"146 28 OFFCURVE",
"150 71 CURVE SMOOTH",
"164 242 OFFCURVE",
"190 516 OFFCURVE",
"208 660 CURVE SMOOTH",
"210 678 OFFCURVE",
"201 680 OFFCURVE",
"192 680 CURVE"
);
},
{
closed = 1;
nodes = (
"192 389 LINE",
"192 342 LINE",
"396 342 LINE",
"396 389 LINE"
);
},
{
closed = 1;
nodes = (
"180 432 LINE",
"165 308 LINE",
"171 308 LINE",
"174 344 OFFCURVE",
"187 342 OFFCURVE",
"220 342 CURVE",
"220 389 LINE",
"188 389 OFFCURVE",
"180 397 OFFCURVE",
"183 432 CURVE"
);
},
{
closed = 1;
nodes = (
"411 340 OFFCURVE",
"413 341 OFFCURVE",
"415 348 CURVE SMOOTH",
"417 355 OFFCURVE",
"421 371 OFFCURVE",
"424 382 CURVE SMOOTH",
"426 390 OFFCURVE",
"421 392 OFFCURVE",
"415 392 CURVE SMOOTH",
"399 392 OFFCURVE",
"351 389 OFFCURVE",
"337 389 CURVE",
"337 342 LINE",
"361 342 OFFCURVE",
"392 340 OFFCURVE",
"404 340 CURVE"
);
},
{
closed = 1;
nodes = (
"239 680 LINE",
"239 635 LINE",
"393 635 LINE",
"393 680 LINE"
);
},
{
closed = 1;
nodes = (
"192 680 LINE",
"192 593 LINE",
"200 593 LINE",
"204 631 OFFCURVE",
"214 635 OFFCURVE",
"247 635 CURVE",
"247 680 LINE"
);
},
{
closed = 1;
nodes = (
"466 630 OFFCURVE",
"468 631 OFFCURVE",
"470 638 CURVE SMOOTH",
"472 645 OFFCURVE",
"476 659 OFFCURVE",
"479 670 CURVE SMOOTH",
"481 679 OFFCURVE",
"476 680 OFFCURVE",
"470 680 CURVE SMOOTH",
"454 680 OFFCURVE",
"379 680 OFFCURVE",
"365 680 CURVE",
"365 635 LINE",
"415 635 OFFCURVE",
"451 630 OFFCURVE",
"459 630 CURVE"
);
},
{
closed = 1;
nodes = (
"350 55 LINE",
"180 55 LINE",
"180 0 LINE",
"350 0 LINE"
);
},
{
closed = 1;
nodes = (
"188 55 LINE",
"155 55 OFFCURVE",
"148 59 OFFCURVE",
"153 107 CURVE",
"124 107 LINE",
"123 0 LINE",
"188 0 LINE"
);
},
{
closed = 1;
nodes = (
"422 0 OFFCURVE",
"424 1 OFFCURVE",
"426 8 CURVE SMOOTH",
"428 15 OFFCURVE",
"434 41 OFFCURVE",
"437 52 CURVE SMOOTH",
"439 61 OFFCURVE",
"432 62 OFFCURVE",
"426 62 CURVE SMOOTH",
"410 62 OFFCURVE",
"366 55 OFFCURVE",
"324 55 CURVE",
"324 0 LINE",
"348 0 OFFCURVE",
"403 0 OFFCURVE",
"415 0 CURVE"
);
}
);
};
layerId = "B0B60A8F-2DEB-4A58-A43B-60A0DADABD8F";
paths = (
{
closed = 1;
nodes = (
"176 680 OFFCURVE",
"127 680 OFFCURVE",
"115 680 CURVE",
"107 680 OFFCURVE",
"93 678 OFFCURVE",
"91 656 CURVE SMOOTH",
"81 518 OFFCURVE",
"55 246 OFFCURVE",
"34 75 CURVE SMOOTH",
"28 28 OFFCURVE",
"22 0 OFFCURVE",
"62 0 CURVE SMOOTH",
"71 0 OFFCURVE",
"87 0 OFFCURVE",
"123 0 CURVE SMOOTH",
"150 0 OFFCURVE",
"146 28 OFFCURVE",
"150 71 CURVE SMOOTH",
"164 242 OFFCURVE",
"190 516 OFFCURVE",
"208 660 CURVE SMOOTH",
"210 678 OFFCURVE",
"201 680 OFFCURVE",
"192 680 CURVE"
);
},
{
closed = 1;
nodes = (
"192 389 LINE",
"192 342 LINE",
"403 342 LINE",
"403 389 LINE"
);
},
{
closed = 1;
nodes = (
"180 432 LINE",
"165 308 LINE",
"171 308 LINE",
"174 344 OFFCURVE",
"187 342 OFFCURVE",
"220 342 CURVE",
"220 389 LINE",
"188 389 OFFCURVE",
"180 397 OFFCURVE",
"183 432 CURVE"
);
},
{
closed = 1;
nodes = (
"418 340 OFFCURVE",
"420 341 OFFCURVE",
"422 348 CURVE SMOOTH",
"424 355 OFFCURVE",
"428 371 OFFCURVE",
"431 382 CURVE SMOOTH",
"433 390 OFFCURVE",
"428 392 OFFCURVE",
"422 392 CURVE SMOOTH",
"406 392 OFFCURVE",
"358 389 OFFCURVE",
"344 389 CURVE",
"344 342 LINE",
"368 342 OFFCURVE",
"399 340 OFFCURVE",
"411 340 CURVE"
);
},
{
closed = 1;
nodes = (
"239 680 LINE",
"239 635 LINE",
"400 635 LINE",
"400 680 LINE"
);
},
{
closed = 1;
nodes = (
"192 680 LINE",
"192 593 LINE",
"200 593 LINE",
"204 631 OFFCURVE",
"214 635 OFFCURVE",
"247 635 CURVE",
"247 680 LINE"
);
},
{
closed = 1;
nodes = (
"473 630 OFFCURVE",
"475 631 OFFCURVE",
"477 638 CURVE SMOOTH",
"479 645 OFFCURVE",
"483 659 OFFCURVE",
"486 670 CURVE SMOOTH",
"488 679 OFFCURVE",
"483 680 OFFCURVE",
"477 680 CURVE SMOOTH",
"461 680 OFFCURVE",
"386 680 OFFCURVE",
"372 680 CURVE",
"372 635 LINE",
"422 635 OFFCURVE",
"458 630 OFFCURVE",
"466 630 CURVE"
);
}
);
width = 496;
}
);
unicode = 0046;
},
{
glyphname = G;
lastChange = "2021-01-28 22:20:26 +0000";
layers = (
{
background = {
paths = (
{
closed = 1;
nodes = (
"554 169 OFFCURVE",
"575 136 OFFCURVE",
"575 109 CURVE SMOOTH",
"575 74 OFFCURVE",
"453 -9 OFFCURVE",
"307 -9 CURVE SMOOTH",
"173 -9 OFFCURVE",
"30 65 OFFCURVE",
"30 234 CURVE SMOOTH",
"30 473 OFFCURVE",
"234 688 OFFCURVE",
"439 688 CURVE SMOOTH",
"569 688 OFFCURVE",
"641 592 OFFCURVE",
"641 463 CURVE SMOOTH",
"641 434 OFFCURVE",
"635 426 OFFCURVE",
"615 426 CURVE",
"526 426 LINE",
"507 426 OFFCURVE",
"505 433 OFFCURVE",
"505 443 CURVE SMOOTH",
"505 463 OFFCURVE",
"510 479 OFFCURVE",
"510 518 CURVE SMOOTH",
"510 589 OFFCURVE",
"482 630 OFFCURVE",
"423 630 CURVE SMOOTH",
"281 630 OFFCURVE",
"167 409 OFFCURVE",
"167 247 CURVE SMOOTH",
"167 103 OFFCURVE",
"263 56 OFFCURVE",
"324 56 CURVE SMOOTH",
"424 56 OFFCURVE",
"509 169 OFFCURVE",
"537 169 CURVE SMOOTH"
);
}
);
};
layerId = "B0B60A8F-2DEB-4A58-A43B-60A0DADABD8F";
paths = (
{
closed = 1;
nodes = (
"502 204 OFFCURVE",
"523 165 OFFCURVE",
"523 138 CURVE SMOOTH",
"523 101 OFFCURVE",
"416 -9 OFFCURVE",
"286 -9 CURVE SMOOTH",
"159 -9 OFFCURVE",
"30 65 OFFCURVE",
"30 234 CURVE SMOOTH",
"30 473 OFFCURVE",
"234 688 OFFCURVE",
"439 688 CURVE SMOOTH",
"569 688 OFFCURVE",
"631 592 OFFCURVE",
"631 463 CURVE SMOOTH",
"631 434 OFFCURVE",
"625 426 OFFCURVE",
"605 426 CURVE",
"532 426 LINE",
"513 426 OFFCURVE",
"511 433 OFFCURVE",
"511 443 CURVE SMOOTH",
"511 463 OFFCURVE",
"515 479 OFFCURVE",
"515 518 CURVE SMOOTH",
"515 589 OFFCURVE",
"482 630 OFFCURVE",
"423 630 CURVE SMOOTH",
"281 630 OFFCURVE",
"155 409 OFFCURVE",
"155 247 CURVE SMOOTH",
"155 103 OFFCURVE",
"257 56 OFFCURVE",
"317 56 CURVE SMOOTH",
"398 56 OFFCURVE",
"481 149 OFFCURVE",
"485 207 CURVE"
);
},
{
closed = 1;
nodes = (
"594 288 OFFCURVE",
"603 286 OFFCURVE",
"601 268 CURVE SMOOTH",
"595 215 OFFCURVE",
"594 185 OFFCURVE",
"588 117 CURVE SMOOTH",
"581 34 OFFCURVE",
"509 -19 OFFCURVE",
"485 -19 CURVE SMOOTH",
"459 -19 OFFCURVE",
"466 11 OFFCURVE",
"473 81 CURVE SMOOTH",
"480 151 OFFCURVE",
"486 214 OFFCURVE",
"490 268 CURVE SMOOTH",
"491 286 OFFCURVE",
"502 288 OFFCURVE",
"510 288 CURVE",
"522 288 OFFCURVE",
"539 288 OFFCURVE",
"585 288 CURVE"
);
},
{
closed = 1;
nodes = (
"401 278 LINE SMOOTH",
"404 287 OFFCURVE",
"408 288 OFFCURVE",
"414 288 CURVE SMOOTH",
"510 288 LINE",
"510 199 LINE",
"485 207 LINE",
"488 237 OFFCURVE",
"472 238 OFFCURVE",
"460 238 CURVE SMOOTH",
"443 238 OFFCURVE",
"408 233 OFFCURVE",
"400 233 CURVE SMOOTH",
"393 233 OFFCURVE",
"389 235 OFFCURVE",
"391 243 CURVE SMOOTH"
);
}
);
width = 671;
}
);
unicode = 0047;
},
{
glyphname = H;
lastChange = "2021-04-05 14:14:02 +0000";
layers = (
{
components = (
{
name = I;
},
{
name = I;
transform = "{1, 0, 0, 1, 372, 0}";
}
);
layerId = "B0B60A8F-2DEB-4A58-A43B-60A0DADABD8F";
paths = (
{
closed = 1;
nodes = (
"153 315 LINE",
"494 315 LINE",
"494 390 LINE",
"153 390 LINE"
);
}
);
width = 633;
},
{
associatedMasterId = "B0B60A8F-2DEB-4A58-A43B-60A0DADABD8F";
layerId = "506A5724-3951-421D-B233-FED29727E909";
name = "Mar 2 21, 15:32";
paths = (
{
closed = 1;
nodes = (
"125 680 LINE SMOOTH",
"117 679 OFFCURVE",
"103 678 OFFCURVE",
"101 656 CURVE SMOOTH",
"91 518 OFFCURVE",
"65 232 OFFCURVE",
"44 61 CURVE SMOOTH",
"38 14 OFFCURVE",
"33 -23 OFFCURVE",
"72 -15 CURVE SMOOTH",
"133 -3 LINE SMOOTH",
"159 2 OFFCURVE",
"156 26 OFFCURVE",
"160 69 CURVE SMOOTH",
"174 240 OFFCURVE",
"200 528 OFFCURVE",
"218 672 CURVE SMOOTH",
"220 690 OFFCURVE",
"211 693 OFFCURVE",
"202 692 CURVE SMOOTH"
);
},
{
closed = 1;
nodes = (
"571 680 LINE SMOOTH",
"563 679 OFFCURVE",
"554 678 OFFCURVE",
"553 660 CURVE SMOOTH",
"543 516 OFFCURVE",
"516 226 OFFCURVE",
"494 57 CURVE SMOOTH",
"488 14 OFFCURVE",
"482 -20 OFFCURVE",
"509 -15 CURVE SMOOTH",
"583 -2 LINE SMOOTH",
"610 3 OFFCURVE",
"607 26 OFFCURVE",
"610 69 CURVE SMOOTH",
"623 246 OFFCURVE",
"653 530 OFFCURVE",
"670 668 CURVE SMOOTH",
"673 690 OFFCURVE",
"656 694 OFFCURVE",
"646 692 CURVE SMOOTH"
);
},
{
closed = 1;
nodes = (
"181 308 LINE",
"184 339 OFFCURVE",
"193 342 OFFCURVE",
"216 342 CURVE SMOOTH",
"490 342 LINE SMOOTH",
"522 342 OFFCURVE",
"525 340 OFFCURVE",
"521 304 CURVE",
"527 304 LINE",
"538 447 LINE",
"535 447 LINE",
"531 408 OFFCURVE",
"526 395 OFFCURVE",
"490 395 CURVE SMOOTH",
"230 395 LINE SMOOTH",
"198 395 OFFCURVE",
"190 404 OFFCURVE",
"194 441 CURVE",
"191 441 LINE",
"175 308 LINE"
);
}
);
width = 710;
}
);
leftMetricsKey = I;
rightMetricsKey = I;
unicode = 0048;
},
{
glyphname = I;
lastChange = "2021-04-05 14:13:15 +0000";
layers = (
{
layerId = "B0B60A8F-2DEB-4A58-A43B-60A0DADABD8F";
paths = (
{
closed = 1;
nodes = (
"51 15 OFFCURVE",
"59 -8 OFFCURVE",
"83 -8 CURVE SMOOTH",
"131 -6 OFFCURVE",
"180 15 OFFCURVE",
"180 42 CURVE SMOOTH",
"180 77 OFFCURVE",
"180 141 OFFCURVE",
"184 176 CURVE SMOOTH",
"229 591 LINE SMOOTH",
"231 608 OFFCURVE",
"232 623 OFFCURVE",
"232 636 CURVE SMOOTH",
"232 672 OFFCURVE",
"224 695 OFFCURVE",
"200 695 CURVE SMOOTH",
"152 693 OFFCURVE",
"103 672 OFFCURVE",
"103 645 CURVE SMOOTH",
"103 610 OFFCURVE",
"103 546 OFFCURVE",
"99 511 CURVE SMOOTH",
"54 96 LINE SMOOTH",
"52 79 OFFCURVE",
"51 64 OFFCURVE",
"51 51 CURVE SMOOTH"
);
}
);
width = 261;
}
);
unicode = 0049;
},
{
glyphname = J;
lastChange = "2021-01-28 22:37:17 +0000";
layers = (
{
layerId = "B0B60A8F-2DEB-4A58-A43B-60A0DADABD8F";
paths = (
{
closed = 1;
nodes = (
"209 680 OFFCURVE",
"157 680 OFFCURVE",
"145 680 CURVE",
"137 680 OFFCURVE",
"128 678 OFFCURVE",
"127 660 CURVE SMOOTH",
"117 516 OFFCURVE",
"90 240 OFFCURVE",
"68 71 CURVE SMOOTH",
"62 28 OFFCURVE",
"71 0 OFFCURVE",
"83 0 CURVE SMOOTH",
"92 0 OFFCURVE",
"96 0 OFFCURVE",
"132 0 CURVE SMOOTH",
"159 0 OFFCURVE",
"183 51 OFFCURVE",
"188 102 CURVE SMOOTH",
"202 248 OFFCURVE",
"228 518 OFFCURVE",
"245 656 CURVE SMOOTH",
"248 678 OFFCURVE",
"231 680 OFFCURVE",
"221 680 CURVE"
);
},
{
closed = 1;
nodes = (
"60 6 OFFCURVE",
"47 -68 OFFCURVE",
"-6 -68 CURVE SMOOTH",
"-56 -68 OFFCURVE",
"-109 -43 OFFCURVE",
"-125 -43 CURVE SMOOTH",
"-129 -43 OFFCURVE",
"-133 -44 OFFCURVE",
"-138 -53 CURVE SMOOTH",
"-143 -62 OFFCURVE",
"-150 -81 OFFCURVE",
"-150 -93 CURVE SMOOTH",
"-150 -109 OFFCURVE",
"-86 -125 OFFCURVE",
"-42 -125 CURVE SMOOTH",
"84 -125 OFFCURVE",
"181 -17 OFFCURVE",
"188 102 CURVE",
"68 71 LINE"
);
}
);
width = 295;
}
);
unicode = 004A;
},
{
glyphname = K;
lastChange = "2021-01-28 23:10:22 +0000";
layers = (
{
layerId = "B0B60A8F-2DEB-4A58-A43B-60A0DADABD8F";
paths = (
{
closed = 1;
nodes = (
"191 680 OFFCURVE",
"142 680 OFFCURVE",
"130 680 CURVE",
"122 680 OFFCURVE",
"108 678 OFFCURVE",
"106 656 CURVE SMOOTH",
"96 518 OFFCURVE",
"70 246 OFFCURVE",
"49 75 CURVE SMOOTH",
"43 28 OFFCURVE",
"37 0 OFFCURVE",
"77 0 CURVE SMOOTH",
"86 0 OFFCURVE",
"102 0 OFFCURVE",
"138 0 CURVE SMOOTH",
"165 0 OFFCURVE",
"161 28 OFFCURVE",
"165 71 CURVE SMOOTH",
"179 242 OFFCURVE",
"205 516 OFFCURVE",
"223 660 CURVE SMOOTH",
"225 678 OFFCURVE",
"216 680 OFFCURVE",
"207 680 CURVE"
);
},
{
closed = 1;
nodes = (
"206 339 OFFCURVE",
"209 337 OFFCURVE",
"218 337 CURVE SMOOTH",
"221 337 OFFCURVE",
"252 362 OFFCURVE",
"277 378 CURVE",
"277 379 OFFCURVE",
"277 382 OFFCURVE",
"277 383 CURVE",
"364 466 OFFCURVE",
"556 641 OFFCURVE",
"579 664 CURVE SMOOTH",
"588 673 OFFCURVE",
"581 680 OFFCURVE",
"574 680 CURVE",
"553 680 OFFCURVE",
"531 680 OFFCURVE",
"518 680 CURVE",
"499 680 OFFCURVE",
"491 678 OFFCURVE",
"471 654 CURVE SMOOTH",
"439 616 OFFCURVE",
"336 508 OFFCURVE",
"259 435 CURVE SMOOTH",
"241 417 OFFCURVE",
"234 414 OFFCURVE",
"224 414 CURVE SMOOTH",
"218 414 OFFCURVE",
"213 413 OFFCURVE",
"212 404 CURVE",
"207 349 LINE"
);
},
{
closed = 1;
nodes = (
"247 337 OFFCURVE",
"266 327 OFFCURVE",
"288 290 CURVE SMOOTH",
"335 211 OFFCURVE",
"405 92 OFFCURVE",
"429 51 CURVE SMOOTH",
"453 10 OFFCURVE",
"462 0 OFFCURVE",
"493 0 CURVE",
"503 0 OFFCURVE",
"550 0 OFFCURVE",
"566 0 CURVE",
"575 0 OFFCURVE",
"591 4 OFFCURVE",
"574 32 CURVE SMOOTH",
"495 160 OFFCURVE",
"463 211 OFFCURVE",
"421 277 CURVE SMOOTH",
"370 357 OFFCURVE",
"339 378 OFFCURVE",
"277 378 CURVE",
"277 383 LINE",
"218 343 LINE",
"218 337 LINE"
);
}
);
width = 613;
}
);
unicode = 004B;
},
{
glyphname = L;
lastChange = "2021-01-28 22:28:07 +0000";
layers = (
{
background = {
paths = (
{
closed = 1;
nodes = (
"176 680 OFFCURVE",
"126 680 OFFCURVE",
"114 680 CURVE",
"106 680 OFFCURVE",
"92 678 OFFCURVE",
"90 656 CURVE SMOOTH",
"80 518 OFFCURVE",
"54 246 OFFCURVE",
"33 75 CURVE SMOOTH",
"27 28 OFFCURVE",
"21 0 OFFCURVE",
"61 0 CURVE SMOOTH",
"70 0 OFFCURVE",
"87 0 OFFCURVE",
"123 0 CURVE SMOOTH",
"150 0 OFFCURVE",
"146 28 OFFCURVE",
"150 71 CURVE SMOOTH",
"164 242 OFFCURVE",
"190 516 OFFCURVE",
"208 660 CURVE SMOOTH",
"210 678 OFFCURVE",
"201 680 OFFCURVE",
"192 680 CURVE"
);
},
{
closed = 1;
nodes = (
"192 389 LINE",
"192 342 LINE",
"396 342 LINE",
"396 389 LINE"
);
},
{
closed = 1;
nodes = (
"180 432 LINE",
"165 308 LINE",
"171 308 LINE",
"174 344 OFFCURVE",
"187 342 OFFCURVE",
"220 342 CURVE",
"220 389 LINE",
"188 389 OFFCURVE",
"180 397 OFFCURVE",
"183 432 CURVE"
);
},
{
closed = 1;
nodes = (
"411 340 OFFCURVE",
"413 341 OFFCURVE",
"415 348 CURVE SMOOTH",
"417 355 OFFCURVE",
"421 371 OFFCURVE",
"424 382 CURVE SMOOTH",
"426 390 OFFCURVE",
"421 392 OFFCURVE",
"415 392 CURVE SMOOTH",
"399 392 OFFCURVE",
"351 389 OFFCURVE",
"337 389 CURVE",
"337 342 LINE",
"361 342 OFFCURVE",
"392 340 OFFCURVE",
"404 340 CURVE"
);
},
{
closed = 1;
nodes = (
"239 680 LINE",
"239 635 LINE",
"393 635 LINE",
"393 680 LINE"
);
},
{
closed = 1;
nodes = (
"192 680 LINE",
"192 593 LINE",
"200 593 LINE",
"204 631 OFFCURVE",
"214 635 OFFCURVE",
"247 635 CURVE",
"247 680 LINE"
);
},
{
closed = 1;
nodes = (
"466 630 OFFCURVE",
"468 631 OFFCURVE",
"470 638 CURVE SMOOTH",
"472 645 OFFCURVE",
"476 659 OFFCURVE",
"479 670 CURVE SMOOTH",
"481 679 OFFCURVE",
"476 680 OFFCURVE",
"470 680 CURVE SMOOTH",
"454 680 OFFCURVE",
"379 680 OFFCURVE",
"365 680 CURVE",
"365 635 LINE",
"415 635 OFFCURVE",
"451 630 OFFCURVE",
"459 630 CURVE"
);
},
{
closed = 1;
nodes = (
"350 55 LINE",
"180 55 LINE",
"180 0 LINE",
"350 0 LINE"
);
},
{
closed = 1;
nodes = (
"188 55 LINE",
"155 55 OFFCURVE",
"148 59 OFFCURVE",
"153 107 CURVE",
"124 107 LINE",
"123 0 LINE",
"188 0 LINE"
);
},
{
closed = 1;
nodes = (
"422 0 OFFCURVE",
"424 1 OFFCURVE",
"426 8 CURVE SMOOTH",
"428 15 OFFCURVE",
"434 41 OFFCURVE",
"437 52 CURVE SMOOTH",
"439 61 OFFCURVE",
"432 62 OFFCURVE",
"426 62 CURVE SMOOTH",
"410 62 OFFCURVE",
"366 55 OFFCURVE",
"324 55 CURVE",
"324 0 LINE",
"348 0 OFFCURVE",
"403 0 OFFCURVE",
"415 0 CURVE"
);
}
);
};
layerId = "B0B60A8F-2DEB-4A58-A43B-60A0DADABD8F";
paths = (
{
closed = 1;
nodes = (
"176 680 OFFCURVE",
"127 680 OFFCURVE",
"115 680 CURVE",
"107 680 OFFCURVE",
"93 678 OFFCURVE",
"91 656 CURVE SMOOTH",
"81 518 OFFCURVE",
"55 246 OFFCURVE",
"34 75 CURVE SMOOTH",
"28 28 OFFCURVE",
"22 0 OFFCURVE",
"62 0 CURVE SMOOTH",
"71 0 OFFCURVE",
"87 0 OFFCURVE",
"123 0 CURVE SMOOTH",
"150 0 OFFCURVE",
"146 28 OFFCURVE",
"150 71 CURVE SMOOTH",
"164 242 OFFCURVE",
"190 516 OFFCURVE",
"208 660 CURVE SMOOTH",
"210 678 OFFCURVE",
"201 680 OFFCURVE",
"192 680 CURVE"
);
},
{
closed = 1;
nodes = (
"360 60 LINE",
"180 60 LINE",
"180 0 LINE",
"360 0 LINE"
);
},
{
closed = 1;
nodes = (
"188 60 LINE",
"155 60 OFFCURVE",
"148 59 OFFCURVE",
"153 107 CURVE",
"124 107 LINE",
"123 0 LINE",
"188 0 LINE"
);
},
{
closed = 1;
nodes = (
"432 0 OFFCURVE",
"434 1 OFFCURVE",
"436 8 CURVE SMOOTH",
"438 15 OFFCURVE",
"446 46 OFFCURVE",
"449 57 CURVE SMOOTH",
"451 66 OFFCURVE",
"444 67 OFFCURVE",
"438 67 CURVE SMOOTH",
"422 67 OFFCURVE",
"376 60 OFFCURVE",
"334 60 CURVE",
"334 0 LINE",
"358 0 OFFCURVE",
"413 0 OFFCURVE",
"425 0 CURVE"
);
}
);
width = 489;
}
);
unicode = 004C;
},
{
glyphname = M;
lastChange = "2021-02-21 16:53:10 +0000";
layers = (
{
layerId = "B0B60A8F-2DEB-4A58-A43B-60A0DADABD8F";
paths = (
{
closed = 1;
nodes = (
"136 680 OFFCURVE",
"123 680 OFFCURVE",
"111 680 CURVE",
"103 680 OFFCURVE",
"89 678 OFFCURVE",
"87 656 CURVE SMOOTH",
"77 518 OFFCURVE",
"51 246 OFFCURVE",
"30 75 CURVE SMOOTH",
"24 28 OFFCURVE",
"17 0 OFFCURVE",
"52 0 CURVE SMOOTH",
"64 0 OFFCURVE",
"75 0 OFFCURVE",
"83 0 CURVE SMOOTH",
"110 0 OFFCURVE",
"106 28 OFFCURVE",
"110 71 CURVE SMOOTH",
"124 242 OFFCURVE",
"150 516 OFFCURVE",
"168 660 CURVE SMOOTH",
"170 678 OFFCURVE",
"161 680 OFFCURVE",
"152 680 CURVE"
);
},
{
closed = 1;
nodes = (
"378 136 LINE",
"378 199 OFFCURVE",
"254 516 OFFCURVE",
"213 648 CURVE SMOOTH",
"204 676 OFFCURVE",
"175 680 OFFCURVE",
"152 680 CURVE",
"150 500 LINE",
"159 500 LINE",
"159 423 OFFCURVE",
"243 190 OFFCURVE",
"296 40 CURVE SMOOTH",
"308 7 OFFCURVE",
"319 0 OFFCURVE",
"342 0 CURVE",
"391 136 LINE"
);
},
{
closed = 1;
nodes = (
"722 680 OFFCURVE",
"671 680 OFFCURVE",
"659 680 CURVE",
"651 680 OFFCURVE",
"642 678 OFFCURVE",
"641 660 CURVE SMOOTH",
"631 516 OFFCURVE",
"604 240 OFFCURVE",
"582 71 CURVE SMOOTH",
"576 28 OFFCURVE",
"570 0 OFFCURVE",
"597 0 CURVE SMOOTH",
"606 0 OFFCURVE",
"635 0 OFFCURVE",
"671 0 CURVE SMOOTH",
"698 0 OFFCURVE",
"695 28 OFFCURVE",
"698 71 CURVE SMOOTH",
"711 248 OFFCURVE",
"741 518 OFFCURVE",
"758 656 CURVE SMOOTH",
"761 678 OFFCURVE",
"744 680 OFFCURVE",
"734 680 CURVE"
);
},
{
closed = 1;
nodes = (
"357 0 OFFCURVE",
"358 0 OFFCURVE",
"368 0 CURVE SMOOTH",
"390 0 OFFCURVE",
"398 5 OFFCURVE",
"413 38 CURVE SMOOTH",
"447 114 OFFCURVE",
"618 461 OFFCURVE",
"619 500 CURVE",
"628 500 LINE",
"631 518 OFFCURVE",
"659 659 OFFCURVE",
"659 680 CURVE",
"640 680 OFFCURVE",
"630 675 OFFCURVE",
"601 607 CURVE SMOOTH",
"538 458 OFFCURVE",
"391 179 OFFCURVE",
"391 136 CURVE",
"342 0 LINE"
);
}
);
width = 783;
}
);
unicode = 004D;
},
{
glyphname = N;
lastChange = "2021-04-05 14:44:10 +0000";
layers = (
{
background = {
paths = (
{
closed = 1;
nodes = (
"175 680 OFFCURVE",
"125 680 OFFCURVE",
"113 680 CURVE",
"105 680 OFFCURVE",
"91 678 OFFCURVE",
"89 656 CURVE SMOOTH",
"79 518 OFFCURVE",
"53 246 OFFCURVE",
"32 75 CURVE SMOOTH",
"26 28 OFFCURVE",
"20 0 OFFCURVE",
"60 0 CURVE SMOOTH",
"69 0 OFFCURVE",
"86 0 OFFCURVE",
"122 0 CURVE SMOOTH",
"149 0 OFFCURVE",
"145 28 OFFCURVE",
"149 71 CURVE SMOOTH",
"163 242 OFFCURVE",
"189 516 OFFCURVE",
"207 660 CURVE SMOOTH",
"209 678 OFFCURVE",
"200 680 OFFCURVE",
"191 680 CURVE"
);
},
{
closed = 1;
nodes = (
"622 680 OFFCURVE",
"572 680 OFFCURVE",
"560 680 CURVE",
"552 680 OFFCURVE",
"543 678 OFFCURVE",
"542 660 CURVE SMOOTH",
"532 516 OFFCURVE",
"505 240 OFFCURVE",
"483 71 CURVE SMOOTH",
"477 28 OFFCURVE",
"471 0 OFFCURVE",
"498 0 CURVE SMOOTH",
"507 0 OFFCURVE",
"538 0 OFFCURVE",
"574 0 CURVE SMOOTH",
"601 0 OFFCURVE",
"598 28 OFFCURVE",
"601 71 CURVE SMOOTH",
"614 248 OFFCURVE",
"641 518 OFFCURVE",
"658 656 CURVE SMOOTH",
"661 678 OFFCURVE",
"644 680 OFFCURVE",
"634 680 CURVE"
);
},
{
closed = 1;
nodes = (
"191 342 LINE",
"510 342 LINE",
"510 395 LINE",
"191 395 LINE"
);
},
{
closed = 1;
nodes = (
"180 441 LINE",
"164 308 LINE",
"170 308 LINE",
"173 344 OFFCURVE",
"186 342 OFFCURVE",
"219 342 CURVE",
"219 395 LINE",
"187 395 OFFCURVE",
"179 404 OFFCURVE",
"183 441 CURVE"
);
},
{
closed = 1;
nodes = (
"520 408 OFFCURVE",
"515 395 OFFCURVE",
"479 395 CURVE",
"479 342 LINE",
"511 342 OFFCURVE",
"514 340 OFFCURVE",
"510 304 CURVE",
"516 304 LINE",
"527 447 LINE",
"524 447 LINE"
);
}
);
};
layerId = "B0B60A8F-2DEB-4A58-A43B-60A0DADABD8F";
paths = (
{
closed = 1;
nodes = (
"45 15 OFFCURVE",
"53 -8 OFFCURVE",
"77 -8 CURVE SMOOTH",
"105 -6 OFFCURVE",
"153 15 OFFCURVE",
"153 42 CURVE SMOOTH",
"153 77 OFFCURVE",
"143 141 OFFCURVE",
"147 176 CURVE SMOOTH",
"189 550 LINE",
"173 548 LINE",
"278 390 OFFCURVE",
"355 162 OFFCURVE",
"448 34 CURVE SMOOTH",
"464 12 OFFCURVE",
"471 -11 OFFCURVE",
"495 -11 CURVE SMOOTH",
"523 -9 OFFCURVE",
"572 12 OFFCURVE",
"572 39 CURVE SMOOTH",
"572 74 OFFCURVE",
"572 141 OFFCURVE",
"576 176 CURVE SMOOTH",
"621 591 LINE SMOOTH",
"623 608 OFFCURVE",
"624 623 OFFCURVE",
"624 636 CURVE SMOOTH",
"624 672 OFFCURVE",
"611 695 OFFCURVE",
"592 694 CURVE SMOOTH",
"559 693 OFFCURVE",
"515 672 OFFCURVE",
"515 645 CURVE SMOOTH",
"515 610 OFFCURVE",
"526 573 OFFCURVE",
"520 511 CURVE SMOOTH",
"487 178 LINE",
"502 179 LINE",
"415 293 OFFCURVE",
"354 515 OFFCURVE",
"234 681 CURVE SMOOTH",
"226 692 OFFCURVE",
"220 696 OFFCURVE",
"203 696 CURVE SMOOTH",
"174 696 OFFCURVE",
"98 674 OFFCURVE",
"98 640 CURVE SMOOTH",
"98 612 OFFCURVE",
"98 548 OFFCURVE",
"94 513 CURVE SMOOTH",
"48 96 LINE SMOOTH",
"46 79 OFFCURVE",
"45 64 OFFCURVE",
"45 51 CURVE SMOOTH"
);
}
);
width = 648;
}
);
unicode = 004E;
},
{
glyphname = O;
lastChange = "2021-04-05 14:42:56 +0000";
layers = (
{
background = {
paths = (
{
closed = 1;
nodes = (
"354 -9 OFFCURVE",
"206 -6 CURVE SMOOTH",
"98 -5 OFFCURVE",
"42 58 OFFCURVE",
"42 174 CURVE SMOOTH",
"42 338 OFFCURVE",
"153 492 OFFCURVE",
"313 492 CURVE SMOOTH",
"430 492 OFFCURVE",
"474 403 OFFCURVE",
"470 287 CURVE SMOOTH",
"464 136 OFFCURVE"
);
},
{
closed = 1;
nodes = (
"365 223 OFFCURVE",
"365 320 CURVE SMOOTH",
"365 385 OFFCURVE",
"322 431 OFFCURVE",
"247 431 CURVE SMOOTH",
"183 431 OFFCURVE",
"149 274 OFFCURVE",
"149 173 CURVE SMOOTH",
"149 91 OFFCURVE",
"221 62 OFFCURVE",
"272 62 CURVE SMOOTH",
"339 62 OFFCURVE"
);
},
{
closed = 1;
nodes = (
"532 -13 OFFCURVE",
"325 -9 CURVE SMOOTH",
"174 -7 OFFCURVE",
"36 81 OFFCURVE",
"36 243 CURVE SMOOTH",
"36 473 OFFCURVE",
"201 688 OFFCURVE",
"425 688 CURVE SMOOTH",
"589 688 OFFCURVE",
"710 564 OFFCURVE",
"705 401 CURVE SMOOTH",
"696 190 OFFCURVE"
);
},
{
closed = 1;
nodes = (
"563 312 OFFCURVE",
"563 447 CURVE SMOOTH",
"563 538 OFFCURVE",
"438 603 OFFCURVE",
"333 603 CURVE SMOOTH",
"243 603 OFFCURVE",
"180 383 OFFCURVE",
"180 242 CURVE SMOOTH",
"180 127 OFFCURVE",
"346 86 OFFCURVE",
"418 86 CURVE SMOOTH",
"511 86 OFFCURVE"
);
},
{
closed = 1;
nodes = (
"517 57 OFFCURVE",
"578 283 OFFCURVE",
"578 418 CURVE SMOOTH",
"578 550 OFFCURVE",
"474 623 OFFCURVE",
"374 623 CURVE SMOOTH",
"249 623 OFFCURVE",
"165 396 OFFCURVE",
"165 261 CURVE SMOOTH",
"165 107 OFFCURVE",
"288 57 OFFCURVE",
"369 57 CURVE SMOOTH"
);
}
);
};
layerId = "B0B60A8F-2DEB-4A58-A43B-60A0DADABD8F";
paths = (
{
closed = 1;
nodes = (
"33 73 OFFCURVE",
"149 -15 OFFCURVE",
"311 -15 CURVE SMOOTH",
"528 -15 OFFCURVE",
"675 168 OFFCURVE",
"675 406 CURVE SMOOTH",
"675 608 OFFCURVE",
"559 696 OFFCURVE",
"401 696 CURVE SMOOTH",
"180 696 OFFCURVE",
"33 513 OFFCURVE",
"33 275 CURVE SMOOTH"
);
},
{
closed = 1;
nodes = (
"545 214 OFFCURVE",
"470 65 OFFCURVE",
"328 65 CURVE SMOOTH",
"220 65 OFFCURVE",
"163 161 OFFCURVE",
"163 302 CURVE SMOOTH",
"163 467 OFFCURVE",
"238 616 OFFCURVE",
"380 616 CURVE SMOOTH",
"487 616 OFFCURVE",
"545 520 OFFCURVE",
"545 380 CURVE SMOOTH"
);
}
);
width = 686;
}
);
rightMetricsKey = "=|";
unicode = 004F;
},
{
glyphname = P;
lastChange = "2021-04-05 14:41:49 +0000";
layers = (
{
background = {
paths = (
{
closed = 1;
nodes = (
"199 629 OFFCURVE",
"205 634 OFFCURVE",
"321 634 CURVE SMOOTH",
"467 634 OFFCURVE",
"525 555 OFFCURVE",
"525 418 CURVE SMOOTH",
"525 261 OFFCURVE",
"432 59 OFFCURVE",
"252 59 CURVE SMOOTH",
"194 59 OFFCURVE",
"145 65 OFFCURVE",
"149 120 CURVE",
"118 120 LINE",
"118 0 LINE",
"152 0 OFFCURVE",
"179 0 OFFCURVE",
"214 0 CURVE SMOOTH",
"551 0 OFFCURVE",
"665 241 OFFCURVE",
"665 429 CURVE SMOOTH",
"665 598 OFFCURVE",
"562 684 OFFCURVE",
"383 684 CURVE SMOOTH",
"313 684 OFFCURVE",
"265 680 OFFCURVE",
"187 680 CURVE",
"187 584 LINE",
"194 584 LINE"
);
},
{
closed = 1;
nodes = (
"196 364 OFFCURVE",
"199 362 OFFCURVE",
"208 363 CURVE SMOOTH",
"267 372 OFFCURVE",
"387 393 OFFCURVE",
"409 393 CURVE",
"409 396 OFFCURVE",
"409 401 OFFCURVE",
"409 406 CURVE",
"479 434 OFFCURVE",
"550 487 OFFCURVE",
"550 557 CURVE SMOOTH",
"550 619 OFFCURVE",
"491 684 OFFCURVE",
"340 684 CURVE SMOOTH",
"285 684 OFFCURVE",
"265 680 OFFCURVE",
"187 680 CURVE",
"187 584 LINE",
"194 584 LINE",
"199 629 OFFCURVE",
"205 646 OFFCURVE",
"301 646 CURVE SMOOTH",
"403 646 OFFCURVE",
"431 594 OFFCURVE",
"431 565 CURVE SMOOTH",
"431 502 OFFCURVE",
"365 421 OFFCURVE",
"212 406 CURVE SMOOTH",
"201 405 OFFCURVE",
"199 401 OFFCURVE",
"198 391 CURVE",
"197 373 LINE"
);
}
);
};
layerId = "B0B60A8F-2DEB-4A58-A43B-60A0DADABD8F";
paths = (
{
closed = 1;
nodes = (
"51 15 OFFCURVE",
"59 -8 OFFCURVE",
"83 -8 CURVE SMOOTH",
"131 -6 OFFCURVE",
"180 15 OFFCURVE",
"180 42 CURVE SMOOTH",
"180 77 OFFCURVE",
"180 141 OFFCURVE",
"184 176 CURVE SMOOTH",
"230 605 LINE",
"288 605 LINE SMOOTH",
"388 605 OFFCURVE",
"446 559 OFFCURVE",
"446 460 CURVE SMOOTH",
"446 346 OFFCURVE",
"363 290 OFFCURVE",
"247 290 CURVE SMOOTH",
"173 290 LINE",
"178 214 LINE",
"245 214 LINE SMOOTH",
"416 214 OFFCURVE",
"576 307 OFFCURVE",
"576 474 CURVE SMOOTH",
"576 605 OFFCURVE",
"492 680 OFFCURVE",
"296 680 CURVE SMOOTH",
"200 680 LINE SMOOTH",
"152 680 OFFCURVE",
"103 672 OFFCURVE",
"103 645 CURVE SMOOTH",
"103 610 OFFCURVE",
"103 546 OFFCURVE",
"99 511 CURVE SMOOTH",
"54 96 LINE SMOOTH",
"52 79 OFFCURVE",
"51 64 OFFCURVE",
"51 51 CURVE SMOOTH"
);
}
);
width = 578;
}
);
leftMetricsKey = H;
rightMetricsKey = O;
unicode = 0050;
},
{
glyphname = Q;
lastChange = "2021-02-16 05:20:18 +0000";
layers = (
{
background = {
paths = (
{
closed = 1;
nodes = (
"708 206 OFFCURVE",
"543 -9 OFFCURVE",
"319 -9 CURVE SMOOTH",
"172 -9 OFFCURVE",
"27 72 OFFCURVE",
"27 243 CURVE SMOOTH",
"27 473 OFFCURVE",
"192 688 OFFCURVE",
"416 688 CURVE SMOOTH",
"563 688 OFFCURVE",
"708 607 OFFCURVE",
"708 436 CURVE SMOOTH"
);
},
{
closed = 1;
nodes = (
"500 56 OFFCURVE",
"573 283 OFFCURVE",
"573 418 CURVE SMOOTH",
"573 572 OFFCURVE",
"462 623 OFFCURVE",
"375 623 CURVE SMOOTH",
"235 623 OFFCURVE",
"162 396 OFFCURVE",
"162 261 CURVE SMOOTH",
"162 107 OFFCURVE",
"273 56 OFFCURVE",
"360 56 CURVE SMOOTH"
);
},
{
closed = 1;
nodes = (
"708 203 OFFCURVE",
"549 11 OFFCURVE",
"329 11 CURVE SMOOTH",
"172 11 OFFCURVE",
"27 72 OFFCURVE",
"27 276 CURVE SMOOTH",
"27 491 OFFCURVE",
"192 688 OFFCURVE",
"416 688 CURVE SMOOTH",
"557 688 OFFCURVE",
"708 609 OFFCURVE",
"708 429 CURVE SMOOTH"
);
}
);
};
layerId = "B0B60A8F-2DEB-4A58-A43B-60A0DADABD8F";
paths = (
{
closed = 1;
nodes = (
"701 203 OFFCURVE",
"549 11 OFFCURVE",
"329 11 CURVE SMOOTH",
"255 11 OFFCURVE",
"193 23 OFFCURVE",
"131 65 CURVE",
"131 66 OFFCURVE",
"131 71 OFFCURVE",
"131 72 CURVE",
"71 113 OFFCURVE",
"30 186 OFFCURVE",
"30 275 CURVE SMOOTH",
"30 480 OFFCURVE",
"192 688 OFFCURVE",
"416 688 CURVE SMOOTH",
"557 688 OFFCURVE",
"701 599 OFFCURVE",
"701 424 CURVE SMOOTH"
);
},
{
closed = 1;
nodes = (
"504 70 OFFCURVE",
"581 284 OFFCURVE",
"581 411 CURVE SMOOTH",
"581 578 OFFCURVE",
"462 623 OFFCURVE",
"375 623 CURVE SMOOTH",
"235 623 OFFCURVE",
"150 419 OFFCURVE",
"150 294 CURVE SMOOTH",
"150 117 OFFCURVE",
"284 70 OFFCURVE",
"350 70 CURVE SMOOTH"
);
},
{
closed = 1;
nodes = (
"295 12 LINE",
"196 15 OFFCURVE",
"151 23 OFFCURVE",
"106 1 CURVE",
"106 -2 LINE",
"175 -2 OFFCURVE",
"349 -61 OFFCURVE",
"386 -61 CURVE SMOOTH",
"399 -61 OFFCURVE",
"403 -54 OFFCURVE",
"403 -31 CURVE SMOOTH",
"403 -15 OFFCURVE",
"400 0 OFFCURVE",
"410 0 CURVE SMOOTH",
"433 0 OFFCURVE",
"475 -29 OFFCURVE",
"475 -66 CURVE SMOOTH",
"475 -113 OFFCURVE",
"421 -148 OFFCURVE",
"378 -148 CURVE SMOOTH",
"299 -148 OFFCURVE",
"140 -45 OFFCURVE",
"121 -45 CURVE SMOOTH",
"114 -45 OFFCURVE",
"104 -63 OFFCURVE",
"93 -63 CURVE SMOOTH",
"80 -63 OFFCURVE",
"48 -30 OFFCURVE",
"48 -15 CURVE SMOOTH",
"48 4 OFFCURVE",
"85 53 OFFCURVE",
"131 65 CURVE"
);
}
);
width = 736;
}
);
unicode = 0051;
},
{
glyphname = R;
lastChange = "2021-02-16 05:21:11 +0000";
layers = (
{
background = {
paths = (
{
closed = 1;
nodes = (
"184 334 OFFCURVE",
"187 331 OFFCURVE",
"196 331 CURVE SMOOTH",
"429 331 OFFCURVE",
"559 414 OFFCURVE",
"559 544 CURVE SMOOTH",
"559 626 OFFCURVE",
"483 684 OFFCURVE",
"336 684 CURVE SMOOTH",
"287 684 OFFCURVE",
"265 680 OFFCURVE",
"187 680 CURVE",
"187 584 LINE",
"194 584 LINE",
"199 629 OFFCURVE",
"210 639 OFFCURVE",
"300 639 CURVE SMOOTH",
"421 639 OFFCURVE",
"441 581 OFFCURVE",
"441 533 CURVE SMOOTH",
"441 445 OFFCURVE",
"370 374 OFFCURVE",
"200 374 CURVE SMOOTH",
"189 374 OFFCURVE",
"188 369 OFFCURVE",
"187 360 CURVE",
"185 343 LINE"
);
},
{
closed = 1;
nodes = (
"186 350 OFFCURVE",
"189 347 OFFCURVE",
"198 347 CURVE SMOOTH",
"416 347 OFFCURVE",
"559 414 OFFCURVE",
"559 544 CURVE SMOOTH",
"559 626 OFFCURVE",
"483 684 OFFCURVE",
"336 684 CURVE SMOOTH",
"287 684 OFFCURVE",
"265 680 OFFCURVE",
"187 680 CURVE",
"187 584 LINE",
"194 584 LINE",
"199 629 OFFCURVE",
"210 639 OFFCURVE",
"300 639 CURVE SMOOTH",
"421 639 OFFCURVE",
"441 581 OFFCURVE",
"441 533 CURVE SMOOTH",
"441 445 OFFCURVE",
"357 390 OFFCURVE",
"202 390 CURVE SMOOTH",
"191 390 OFFCURVE",
"190 385 OFFCURVE",
"189 376 CURVE",
"187 359 LINE"
);
},
{
closed = 1;
nodes = (
"196 364 OFFCURVE",
"199 362 OFFCURVE",
"208 363 CURVE SMOOTH",
"267 372 OFFCURVE",
"387 393 OFFCURVE",
"409 393 CURVE",
"409 396 OFFCURVE",
"409 401 OFFCURVE",
"409 406 CURVE",
"479 434 OFFCURVE",
"550 487 OFFCURVE",
"550 557 CURVE SMOOTH",
"550 619 OFFCURVE",
"491 684 OFFCURVE",
"340 684 CURVE SMOOTH",
"285 684 OFFCURVE",
"265 680 OFFCURVE",
"187 680 CURVE",
"187 584 LINE",
"194 584 LINE",
"199 629 OFFCURVE",
"205 646 OFFCURVE",
"301 646 CURVE SMOOTH",
"403 646 OFFCURVE",
"431 594 OFFCURVE",
"431 565 CURVE SMOOTH",
"431 502 OFFCURVE",
"365 421 OFFCURVE",
"212 406 CURVE SMOOTH",
"201 405 OFFCURVE",
"199 401 OFFCURVE",
"198 391 CURVE",
"197 373 LINE"
);
}
);
};
layerId = "B0B60A8F-2DEB-4A58-A43B-60A0DADABD8F";
paths = (
{
closed = 1;
nodes = (
"171 680 OFFCURVE",
"122 680 OFFCURVE",
"110 680 CURVE",
"102 680 OFFCURVE",
"88 678 OFFCURVE",
"86 656 CURVE SMOOTH",
"76 518 OFFCURVE",
"50 246 OFFCURVE",
"29 75 CURVE SMOOTH",
"23 28 OFFCURVE",
"17 0 OFFCURVE",
"57 0 CURVE SMOOTH",
"66 0 OFFCURVE",
"82 0 OFFCURVE",
"118 0 CURVE SMOOTH",
"145 0 OFFCURVE",
"141 28 OFFCURVE",
"145 71 CURVE SMOOTH",
"159 242 OFFCURVE",
"185 516 OFFCURVE",
"203 660 CURVE SMOOTH",
"205 678 OFFCURVE",
"196 680 OFFCURVE",
"187 680 CURVE"
);
},
{
closed = 1;
nodes = (
"187 354 OFFCURVE",
"190 351 OFFCURVE",
"199 351 CURVE",
"297 351 LINE",
"297 357 LINE",
"402 357 OFFCURVE",
"556 421 OFFCURVE",
"556 544 CURVE SMOOTH",
"556 626 OFFCURVE",
"483 684 OFFCURVE",
"336 684 CURVE SMOOTH",
"287 684 OFFCURVE",
"265 680 OFFCURVE",
"187 680 CURVE",
"187 584 LINE",
"194 584 LINE",
"199 629 OFFCURVE",
"210 639 OFFCURVE",
"300 639 CURVE SMOOTH",
"416 639 OFFCURVE",
"436 581 OFFCURVE",
"436 533 CURVE SMOOTH",
"436 445 OFFCURVE",
"357 390 OFFCURVE",
"200 390 CURVE SMOOTH",
"192 390 OFFCURVE",
"191 388 OFFCURVE",
"190 380 CURVE",
"188 363 LINE"
);
},
{
closed = 1;
nodes = (
"237 351 OFFCURVE",
"254 339 OFFCURVE",
"289 272 CURVE SMOOTH",
"318 216 OFFCURVE",
"383 90 OFFCURVE",
"415 28 CURVE SMOOTH",
"424 10 OFFCURVE",
"434 0 OFFCURVE",
"457 0 CURVE",
"467 0 OFFCURVE",
"529 0 OFFCURVE",
"545 0 CURVE",
"554 0 OFFCURVE",
"571 4 OFFCURVE",
"553 32 CURVE SMOOTH",
"469 164 OFFCURVE",
"440 210 OFFCURVE",
"398 277 CURVE SMOOTH",
"365 329 OFFCURVE",
"327 345 OFFCURVE",
"297 351 CURVE",
"297 357 LINE",
"199 357 LINE",
"199 351 LINE"
);
}
);
width = 596;
}
);
unicode = 0052;
},
{
glyphname = S;
lastChange = "2021-04-05 14:46:42 +0000";
layers = (
{
background = {
paths = (
{
closed = 1;
nodes = (
"638 206 OFFCURVE",
"473 -9 OFFCURVE",
"249 -9 CURVE SMOOTH",
"102 -9 OFFCURVE",
"-43 72 OFFCURVE",
"-43 243 CURVE SMOOTH",
"-43 473 OFFCURVE",
"122 688 OFFCURVE",
"346 688 CURVE SMOOTH",
"493 688 OFFCURVE",
"638 607 OFFCURVE",
"638 436 CURVE SMOOTH"
);
},
{
closed = 1;
nodes = (
"430 56 OFFCURVE",
"503 283 OFFCURVE",
"503 418 CURVE SMOOTH",
"503 572 OFFCURVE",
"392 623 OFFCURVE",
"305 623 CURVE SMOOTH",
"165 623 OFFCURVE",
"92 396 OFFCURVE",
"92 261 CURVE SMOOTH",
"92 107 OFFCURVE",
"203 56 OFFCURVE",
"290 56 CURVE SMOOTH"
);
}
);
};
layerId = "B0B60A8F-2DEB-4A58-A43B-60A0DADABD8F";
paths = (
{
closed = 1;
nodes = (
"11 21 OFFCURVE",
"82 -16 OFFCURVE",
"212 -16 CURVE SMOOTH",
"342 -16 OFFCURVE",
"474 60 OFFCURVE",
"474 211 CURVE SMOOTH",
"474 311 OFFCURVE",
"423 363 OFFCURVE",
"334 400 CURVE SMOOTH",
"266 428 LINE SMOOTH",
"225 445 OFFCURVE",
"188 474 OFFCURVE",
"188 526 CURVE SMOOTH",
"188 582 OFFCURVE",
"232 616 OFFCURVE",
"295 616 CURVE SMOOTH",
"385 616 OFFCURVE",
"419 542 OFFCURVE",
"438 542 CURVE SMOOTH",
"458 542 OFFCURVE",
"470 578 OFFCURVE",
"470 607 CURVE SMOOTH",
"470 667 OFFCURVE",
"423 696 OFFCURVE",
"317 696 CURVE SMOOTH",
"188 696 OFFCURVE",
"74 624 OFFCURVE",
"74 486 CURVE SMOOTH",
"74 417 OFFCURVE",
"107 373 OFFCURVE",
"178 333 CURVE SMOOTH",
"269 281 LINE SMOOTH",
"324 250 OFFCURVE",
"355 215 OFFCURVE",
"355 162 CURVE SMOOTH",
"355 99 OFFCURVE",
"310 64 OFFCURVE",
"235 64 CURVE SMOOTH",
"131 64 OFFCURVE",
"57 185 OFFCURVE",
"30 185 CURVE SMOOTH",
"15 185 OFFCURVE",
"11 168 OFFCURVE",
"11 142 CURVE SMOOTH"
);
}
);
width = 489;
},
{
associatedMasterId = "B0B60A8F-2DEB-4A58-A43B-60A0DADABD8F";
background = {
paths = (
{
closed = 1;
nodes = (
"690 206 OFFCURVE",
"525 -9 OFFCURVE",
"301 -9 CURVE SMOOTH",
"154 -9 OFFCURVE",
"9 72 OFFCURVE",
"9 243 CURVE SMOOTH",
"9 473 OFFCURVE",
"174 688 OFFCURVE",
"398 688 CURVE SMOOTH",
"545 688 OFFCURVE",
"690 607 OFFCURVE",
"690 436 CURVE SMOOTH"
);
},
{
closed = 1;
nodes = (
"482 56 OFFCURVE",
"555 283 OFFCURVE",
"555 418 CURVE SMOOTH",
"555 572 OFFCURVE",
"444 623 OFFCURVE",
"357 623 CURVE SMOOTH",
"217 623 OFFCURVE",
"144 396 OFFCURVE",
"144 261 CURVE SMOOTH",
"144 107 OFFCURVE",
"255 56 OFFCURVE",
"342 56 CURVE SMOOTH"
);
}
);
};
layerId = "401CACC2-0731-4BB5-97A8-CA43EBA6C0BF";
name = "Apr 5 21, 17:30";
paths = (
{
closed = 1;
nodes = (
"99 600 OFFCURVE",
"215 688 OFFCURVE",
"345 688 CURVE SMOOTH",
"463 688 OFFCURVE",
"535 602 OFFCURVE",
"535 512 CURVE SMOOTH",
"535 483 OFFCURVE",
"529 475 OFFCURVE",
"509 475 CURVE",
"439 475 LINE",
"420 475 OFFCURVE",
"418 482 OFFCURVE",
"418 492 CURVE SMOOTH",
"418 505 OFFCURVE",
"423 531 OFFCURVE",
"423 567 CURVE SMOOTH",
"423 614 OFFCURVE",
"396 644 OFFCURVE",
"347 644 CURVE SMOOTH",
"279 644 OFFCURVE",
"219 576 OFFCURVE",
"219 529 CURVE",
"99 512 LINE"
);
},
{
closed = 1;
nodes = (
"141 253 OFFCURVE",
"146 250 OFFCURVE",
"146 234 CURVE SMOOTH",
"146 217 OFFCURVE",
"143 192 OFFCURVE",
"143 165 CURVE SMOOTH",
"143 93 OFFCURVE",
"185 46 OFFCURVE",
"243 46 CURVE SMOOTH",
"333 46 OFFCURVE",
"386 131 OFFCURVE",
"386 184 CURVE",
"506 184 LINE",
"506 90 OFFCURVE",
"407 -9 OFFCURVE",
"250 -9 CURVE SMOOTH",
"134 -9 OFFCURVE",
"25 64 OFFCURVE",
"25 208 CURVE SMOOTH",
"25 240 OFFCURVE",
"33 253 OFFCURVE",
"60 253 CURVE",
"126 253 LINE"
);
},
{
closed = 1;
nodes = (
"299 436 OFFCURVE",
"369 378 OFFCURVE",
"408 346 CURVE SMOOTH",
"456 307 OFFCURVE",
"506 263 OFFCURVE",
"506 184 CURVE",
"506 146 OFFCURVE",
"386 160 OFFCURVE",
"386 184 CURVE",
"386 227 OFFCURVE",
"350 255 OFFCURVE",
"321 279 CURVE SMOOTH",
"292 303 OFFCURVE",
"236 348 OFFCURVE",
"204 373 CURVE SMOOTH",
"141 422 OFFCURVE",
"99 459 OFFCURVE",
"99 512 CURVE SMOOTH",
"99 540 OFFCURVE",
"219 576 OFFCURVE",
"219 529 CURVE SMOOTH",
"219 504 OFFCURVE",
"239 486 OFFCURVE",
"275 456 CURVE SMOOTH"
);
}
);
width = 560;
},
{
associatedMasterId = "B0B60A8F-2DEB-4A58-A43B-60A0DADABD8F";
background = {
paths = (
{
closed = 1;
nodes = (
"690 206 OFFCURVE",
"525 -9 OFFCURVE",
"301 -9 CURVE SMOOTH",
"154 -9 OFFCURVE",
"9 72 OFFCURVE",
"9 243 CURVE SMOOTH",
"9 473 OFFCURVE",
"174 688 OFFCURVE",
"398 688 CURVE SMOOTH",
"545 688 OFFCURVE",
"690 607 OFFCURVE",
"690 436 CURVE SMOOTH"
);
},
{
closed = 1;
nodes = (
"482 56 OFFCURVE",
"555 283 OFFCURVE",
"555 418 CURVE SMOOTH",
"555 572 OFFCURVE",
"444 623 OFFCURVE",
"357 623 CURVE SMOOTH",
"217 623 OFFCURVE",
"144 396 OFFCURVE",
"144 261 CURVE SMOOTH",
"144 107 OFFCURVE",
"255 56 OFFCURVE",
"342 56 CURVE SMOOTH"
);
}
);
};
layerId = "530A7CF0-28FF-4B3F-BB61-D0B5D253A8D6";
name = "Apr 5 21, 17:30";
paths = (
{
closed = 1;
nodes = (
"128 696 OFFCURVE",
"-27 513 OFFCURVE",
"-27 283 CURVE SMOOTH",
"-27 75 OFFCURVE",
"86 -16 OFFCURVE",
"250 -16 CURVE SMOOTH",
"460 -16 OFFCURVE",
"615 167 OFFCURVE",
"615 397 CURVE SMOOTH",
"615 605 OFFCURVE",
"502 696 OFFCURVE",
"334 696 CURVE SMOOTH"
);
},
{
closed = 1;
nodes = (
"159 64 OFFCURVE",
"103 161 OFFCURVE",
"103 301 CURVE SMOOTH",
"103 469 OFFCURVE",
"167 616 OFFCURVE",
"318 616 CURVE SMOOTH",
"436 616 OFFCURVE",
"485 518 OFFCURVE",
"485 379 CURVE SMOOTH",
"485 211 OFFCURVE",
"417 64 OFFCURVE",
"271 64 CURVE SMOOTH"
);
}
);
visible = 1;
width = 560;
},
{
associatedMasterId = "B0B60A8F-2DEB-4A58-A43B-60A0DADABD8F";
background = {
paths = (
{
closed = 1;
nodes = (
"658 206 OFFCURVE",
"493 -9 OFFCURVE",
"269 -9 CURVE SMOOTH",
"122 -9 OFFCURVE",
"-23 72 OFFCURVE",
"-23 243 CURVE SMOOTH",
"-23 473 OFFCURVE",
"142 688 OFFCURVE",
"366 688 CURVE SMOOTH",
"513 688 OFFCURVE",
"658 607 OFFCURVE",
"658 436 CURVE SMOOTH"
);
},
{
closed = 1;
nodes = (
"450 56 OFFCURVE",
"523 283 OFFCURVE",
"523 418 CURVE SMOOTH",
"523 572 OFFCURVE",
"412 623 OFFCURVE",
"325 623 CURVE SMOOTH",
"185 623 OFFCURVE",
"112 396 OFFCURVE",
"112 261 CURVE SMOOTH",
"112 107 OFFCURVE",
"223 56 OFFCURVE",
"310 56 CURVE SMOOTH"
);
}
);
};
layerId = "806AFB3F-B184-4F9F-842A-2807B4D09AA0";
name = "Apr 5 21, 17:44";
paths = (
{
closed = 1;
nodes = (
"1 21 OFFCURVE",
"77 -16 OFFCURVE",
"213 -16 CURVE SMOOTH",
"369 -16 OFFCURVE",
"484 60 OFFCURVE",
"484 208 CURVE SMOOTH",
"484 311 OFFCURVE",
"426 354 OFFCURVE",
"354 390 CURVE SMOOTH",
"261 437 LINE SMOOTH",
"217 459 OFFCURVE",
"187 487 OFFCURVE",
"187 532 CURVE SMOOTH",
"187 588 OFFCURVE",
"222 616 OFFCURVE",
"279 616 CURVE SMOOTH",
"366 616 OFFCURVE",
"429 542 OFFCURVE",
"449 542 CURVE SMOOTH",
"470 542 OFFCURVE",
"483 578 OFFCURVE",
"483 607 CURVE SMOOTH",
"483 667 OFFCURVE",
"423 696 OFFCURVE",
"312 696 CURVE SMOOTH",
"177 696 OFFCURVE",
"71 618 OFFCURVE",
"71 490 CURVE SMOOTH",
"71 419 OFFCURVE",
"102 375 OFFCURVE",
"174 334 CURVE SMOOTH",
"270 280 LINE SMOOTH",
"318 253 OFFCURVE",
"364 226 OFFCURVE",
"364 164 CURVE SMOOTH",
"364 101 OFFCURVE",
"317 64 OFFCURVE",
"248 64 CURVE SMOOTH",
"140 64 OFFCURVE",
"49 185 OFFCURVE",
"21 185 CURVE SMOOTH",
"5 185 OFFCURVE",
"1 168 OFFCURVE",
"1 142 CURVE SMOOTH"
);
}
);
width = 508;
}
);
unicode = 0053;
},
{
glyphname = T;
lastChange = "2021-01-28 22:50:25 +0000";
layers = (
{
background = {
paths = (
{
closed = 1;
nodes = (
"403 680 LINE",
"403 635 LINE",
"529 635 LINE",
"529 680 LINE"
);
},
{
closed = 1;
nodes = (
"356 680 LINE",
"356 593 LINE",
"364 593 LINE",
"368 631 OFFCURVE",
"378 635 OFFCURVE",
"411 635 CURVE",
"411 680 LINE"
);
},
{
closed = 1;
nodes = (
"602 630 OFFCURVE",
"604 631 OFFCURVE",
"606 638 CURVE SMOOTH",
"608 645 OFFCURVE",
"612 659 OFFCURVE",
"615 670 CURVE SMOOTH",
"617 679 OFFCURVE",
"612 680 OFFCURVE",
"606 680 CURVE SMOOTH",
"590 680 OFFCURVE",
"515 680 OFFCURVE",
"501 680 CURVE",
"501 635 LINE",
"551 635 OFFCURVE",
"587 630 OFFCURVE",
"595 630 CURVE"
);
},
{
closed = 1;
nodes = (
"340 680 OFFCURVE",
"290 680 OFFCURVE",
"278 680 CURVE",
"270 680 OFFCURVE",
"256 678 OFFCURVE",
"254 656 CURVE SMOOTH",
"244 518 OFFCURVE",
"218 246 OFFCURVE",
"197 75 CURVE SMOOTH",
"191 28 OFFCURVE",
"185 0 OFFCURVE",
"225 0 CURVE SMOOTH",
"234 0 OFFCURVE",
"251 0 OFFCURVE",
"287 0 CURVE SMOOTH",
"314 0 OFFCURVE",
"310 28 OFFCURVE",
"314 71 CURVE SMOOTH",
"328 242 OFFCURVE",
"354 516 OFFCURVE",
"372 660 CURVE SMOOTH",
"374 678 OFFCURVE",
"365 680 OFFCURVE",
"356 680 CURVE"
);
},
{
closed = 1;
nodes = (
"107 635 LINE",
"213 635 LINE",
"213 680 LINE",
"107 680 LINE"
);
},
{
closed = 1;
nodes = (
"205 635 LINE",
"246 635 OFFCURVE",
"253 632 OFFCURVE",
"249 591 CURVE",
"278 591 LINE",
"278 680 LINE",
"205 680 LINE"
);
},
{
closed = 1;
nodes = (
"47 630 OFFCURVE",
"85 635 OFFCURVE",
"135 635 CURVE",
"135 680 LINE",
"121 680 OFFCURVE",
"44 680 OFFCURVE",
"28 680 CURVE SMOOTH",
"22 680 OFFCURVE",
"17 679 OFFCURVE",
"19 670 CURVE SMOOTH",
"22 659 OFFCURVE",
"26 645 OFFCURVE",
"28 638 CURVE SMOOTH",
"30 631 OFFCURVE",
"32 630 OFFCURVE",
"39 630 CURVE"
);
}
);
};
layerId = "B0B60A8F-2DEB-4A58-A43B-60A0DADABD8F";
paths = (
{
closed = 1;
nodes = (
"406 680 LINE",
"406 625 LINE",
"512 625 LINE",
"512 680 LINE"
);
},
{
closed = 1;
nodes = (
"359 680 LINE",
"359 584 LINE",
"366 584 LINE",
"371 622 OFFCURVE",
"381 625 OFFCURVE",
"414 625 CURVE",
"414 680 LINE"
);
},
{
closed = 1;
nodes = (
"584 620 OFFCURVE",
"586 621 OFFCURVE",
"588 628 CURVE SMOOTH",
"590 635 OFFCURVE",
"595 659 OFFCURVE",
"598 670 CURVE SMOOTH",
"600 679 OFFCURVE",
"595 680 OFFCURVE",
"589 680 CURVE SMOOTH",
"573 680 OFFCURVE",
"498 680 OFFCURVE",
"484 680 CURVE",
"484 625 LINE",
"534 625 OFFCURVE",
"569 620 OFFCURVE",
"577 620 CURVE"
);
},
{
closed = 1;
nodes = (
"343 680 OFFCURVE",
"290 680 OFFCURVE",
"278 680 CURVE",
"270 680 OFFCURVE",
"256 678 OFFCURVE",
"254 656 CURVE SMOOTH",
"242 503 OFFCURVE",
"218 246 OFFCURVE",
"197 75 CURVE SMOOTH",
"191 28 OFFCURVE",
"185 0 OFFCURVE",
"225 0 CURVE SMOOTH",
"234 0 OFFCURVE",
"254 0 OFFCURVE",
"290 0 CURVE SMOOTH",
"317 0 OFFCURVE",
"313 28 OFFCURVE",
"317 71 CURVE SMOOTH",
"331 242 OFFCURVE",
"356 509 OFFCURVE",
"375 660 CURVE SMOOTH",
"377 678 OFFCURVE",
"368 680 OFFCURVE",
"359 680 CURVE"
);
},
{
closed = 1;
nodes = (
"127 625 LINE",
"213 625 LINE",
"213 680 LINE",
"127 680 LINE"
);
},
{
closed = 1;
nodes = (
"205 625 LINE",
"246 625 OFFCURVE",
"252 624 OFFCURVE",
"248 583 CURVE",
"277 583 LINE",
"278 680 LINE",
"205 680 LINE"
);
},
{
closed = 1;
nodes = (
"44 620 OFFCURVE",
"105 625 OFFCURVE",
"155 625 CURVE",
"155 680 LINE",
"141 680 OFFCURVE",
"60 680 OFFCURVE",
"48 680 CURVE SMOOTH",
"42 680 OFFCURVE",
"38 679 OFFCURVE",
"35 670 CURVE SMOOTH",
"32 660 OFFCURVE",
"27 638 OFFCURVE",
"25 630 CURVE SMOOTH",
"23 621 OFFCURVE",
"29 620 OFFCURVE",
"36 620 CURVE"
);
}
);
width = 588;
}
);
unicode = 0054;
},
{
glyphname = U;
lastChange = "2021-01-28 22:57:34 +0000";
layers = (
{
background = {
paths = (
{
closed = 1;
nodes = (
"165 680 OFFCURVE",
"115 680 OFFCURVE",
"103 680 CURVE",
"95 680 OFFCURVE",
"81 678 OFFCURVE",
"79 656 CURVE SMOOTH",
"69 518 OFFCURVE",
"43 246 OFFCURVE",
"22 75 CURVE SMOOTH",
"16 28 OFFCURVE",
"10 0 OFFCURVE",
"50 0 CURVE SMOOTH",
"59 0 OFFCURVE",
"76 0 OFFCURVE",
"112 0 CURVE SMOOTH",
"139 0 OFFCURVE",
"135 28 OFFCURVE",
"139 71 CURVE SMOOTH",
"153 242 OFFCURVE",
"179 516 OFFCURVE",
"197 660 CURVE SMOOTH",
"199 678 OFFCURVE",
"190 680 OFFCURVE",
"181 680 CURVE"
);
},
{
closed = 1;
nodes = (
"612 680 OFFCURVE",
"562 680 OFFCURVE",
"550 680 CURVE",
"542 680 OFFCURVE",
"533 678 OFFCURVE",
"532 660 CURVE SMOOTH",
"522 516 OFFCURVE",
"495 240 OFFCURVE",
"473 71 CURVE SMOOTH",
"467 28 OFFCURVE",
"461 0 OFFCURVE",
"488 0 CURVE SMOOTH",
"497 0 OFFCURVE",
"528 0 OFFCURVE",
"564 0 CURVE SMOOTH",
"591 0 OFFCURVE",
"588 28 OFFCURVE",
"591 71 CURVE SMOOTH",
"604 248 OFFCURVE",
"631 518 OFFCURVE",
"648 656 CURVE SMOOTH",
"651 678 OFFCURVE",
"634 680 OFFCURVE",
"624 680 CURVE"
);
},
{
closed = 1;
nodes = (
"181 342 LINE",
"500 342 LINE",
"500 395 LINE",
"181 395 LINE"
);
},
{
closed = 1;
nodes = (
"170 441 LINE",
"154 308 LINE",
"160 308 LINE",
"163 344 OFFCURVE",
"176 342 OFFCURVE",
"209 342 CURVE",
"209 395 LINE",
"177 395 OFFCURVE",
"169 404 OFFCURVE",
"173 441 CURVE"
);
},
{
closed = 1;
nodes = (
"510 408 OFFCURVE",
"505 395 OFFCURVE",
"469 395 CURVE",
"469 342 LINE",
"501 342 OFFCURVE",
"504 340 OFFCURVE",
"500 304 CURVE",
"506 304 LINE",
"517 447 LINE",
"514 447 LINE"
);
}
);
};
layerId = "B0B60A8F-2DEB-4A58-A43B-60A0DADABD8F";
paths = (
{
closed = 1;
nodes = (
"171 680 OFFCURVE",
"115 680 OFFCURVE",
"103 680 CURVE",
"95 680 OFFCURVE",
"80 678 OFFCURVE",
"79 659 CURVE SMOOTH",
"68 521 OFFCURVE",
"50 333 OFFCURVE",
"42 252 CURVE SMOOTH",
"36 182 OFFCURVE",
"56 134 OFFCURVE",
"96 134 CURVE SMOOTH",
"105 134 OFFCURVE",
"75 134 OFFCURVE",
"111 134 CURVE SMOOTH",
"131 134 OFFCURVE",
"151 138 OFFCURVE",
"158 219 CURVE SMOOTH",
"169 352 OFFCURVE",
"185 516 OFFCURVE",
"203 660 CURVE SMOOTH",
"205 678 OFFCURVE",
"196 680 OFFCURVE",
"187 680 CURVE"
);
},
{
closed = 1;
nodes = (
"613 680 OFFCURVE",
"601 680 OFFCURVE",
"589 680 CURVE",
"581 680 OFFCURVE",
"572 678 OFFCURVE",
"571 660 CURVE SMOOTH",
"561 516 OFFCURVE",
"547 400 OFFCURVE",
"525 237 CURVE SMOOTH",
"519 188 OFFCURVE",
"521 158 OFFCURVE",
"547 158 CURVE SMOOTH",
"556 158 OFFCURVE",
"536 158 OFFCURVE",
"562 158 CURVE SMOOTH",
"583 158 OFFCURVE",
"601 187 OFFCURVE",
"605 237 CURVE SMOOTH",
"618 377 OFFCURVE",
"632 518 OFFCURVE",
"649 656 CURVE SMOOTH",
"652 678 OFFCURVE",
"635 680 OFFCURVE",
"625 680 CURVE"
);
},
{
closed = 1;
nodes = (
"301 -2 OFFCURVE",
"303 -4 OFFCURVE",
"307 -4 CURVE SMOOTH",
"470 -4 OFFCURVE",
"593 102 OFFCURVE",
"605 237 CURVE",
"525 237 LINE",
"514 138 OFFCURVE",
"419 53 OFFCURVE",
"313 53 CURVE SMOOTH",
"304 53 OFFCURVE",
"299 48 OFFCURVE",
"296 46 CURVE",
"290 2 LINE"
);
},
{
closed = 1;
nodes = (
"327 48 OFFCURVE",
"327 53 OFFCURVE",
"313 53 CURVE SMOOTH",
"250 53 OFFCURVE",
"149 88 OFFCURVE",
"158 219 CURVE",
"42 252 LINE",
"22 63 OFFCURVE",
"180 -4 OFFCURVE",
"307 -4 CURVE SMOOTH",
"312 -4 OFFCURVE",
"318 -2 OFFCURVE",
"324 2 CURVE",
"330 46 LINE"
);
}
);
width = 689;
}
);
unicode = 0055;
},
{
glyphname = V;
lastChange = "2021-01-30 09:31:25 +0000";
layers = (
{
layerId = "B0B60A8F-2DEB-4A58-A43B-60A0DADABD8F";
paths = (
{
closed = 1;
nodes = (
"18 680 OFFCURVE",
"6 678 OFFCURVE",
"11 660 CURVE SMOOTH",
"29 600 OFFCURVE",
"153 159 OFFCURVE",
"183 49 CURVE SMOOTH",
"194 9 OFFCURVE",
"201 0 OFFCURVE",
"222 0 CURVE SMOOTH",
"247 0 OFFCURVE",
"298 16 OFFCURVE",
"327 52 CURVE",
"276 87 LINE",
"272 87 OFFCURVE",
"270 87 OFFCURVE",
"266 87 CURVE",
"265 114 OFFCURVE",
"265 142 OFFCURVE",
"254 185 CURVE SMOOTH",
"242 235 OFFCURVE",
"152 593 OFFCURVE",
"138 652 CURVE SMOOTH",
"134 670 OFFCURVE",
"126 680 OFFCURVE",
"104 680 CURVE",
"88 680 OFFCURVE",
"43 680 OFFCURVE",
"27 680 CURVE"
);
},
{
closed = 1;
nodes = (
"288 52 OFFCURVE",
"315 52 OFFCURVE",
"327 52 CURVE",
"343 72 OFFCURVE",
"374 162 OFFCURVE",
"385 190 CURVE SMOOTH",
"403 235 OFFCURVE",
"545 587 OFFCURVE",
"575 658 CURVE SMOOTH",
"582 674 OFFCURVE",
"577 680 OFFCURVE",
"566 680 CURVE SMOOTH",
"556 680 OFFCURVE",
"532 680 OFFCURVE",
"520 680 CURVE SMOOTH",
"496 680 OFFCURVE",
"485 677 OFFCURVE",
"467 615 CURVE SMOOTH",
"420 456 OFFCURVE",
"336 225 OFFCURVE",
"276 87 CURVE",
"276 52 LINE"
);
}
);
width = 588;
}
);
unicode = 0056;
},
{
glyphname = W;
lastChange = "2021-01-30 10:24:51 +0000";
layers = (
{
background = {
paths = (
{
closed = 1;
nodes = (
"20 680 OFFCURVE",
"8 678 OFFCURVE",
"13 660 CURVE SMOOTH",
"31 600 OFFCURVE",
"155 159 OFFCURVE",
"185 49 CURVE SMOOTH",
"196 9 OFFCURVE",
"203 0 OFFCURVE",
"224 0 CURVE SMOOTH",
"249 0 OFFCURVE",
"298 17 OFFCURVE",
"326 52 CURVE",
"282 87 LINE",
"278 87 OFFCURVE",
"276 87 OFFCURVE",
"272 87 CURVE",
"271 114 OFFCURVE",
"271 142 OFFCURVE",
"260 185 CURVE SMOOTH",
"248 235 OFFCURVE",
"158 593 OFFCURVE",
"144 652 CURVE SMOOTH",
"140 670 OFFCURVE",
"132 680 OFFCURVE",
"110 680 CURVE",
"94 680 OFFCURVE",
"45 680 OFFCURVE",
"29 680 CURVE"
);
},
{
closed = 1;
nodes = (
"294 52 OFFCURVE",
"314 52 OFFCURVE",
"326 52 CURVE",
"342 72 OFFCURVE",
"377 162 OFFCURVE",
"388 190 CURVE SMOOTH",
"406 235 OFFCURVE",
"551 591 OFFCURVE",
"581 658 CURVE SMOOTH",
"588 674 OFFCURVE",
"583 680 OFFCURVE",
"572 680 CURVE SMOOTH",
"562 680 OFFCURVE",
"538 680 OFFCURVE",
"526 680 CURVE SMOOTH",
"502 680 OFFCURVE",
"491 677 OFFCURVE",
"473 615 CURVE SMOOTH",
"426 456 OFFCURVE",
"342 225 OFFCURVE",
"282 87 CURVE",
"282 52 LINE"
);
}
);
};
layerId = "B0B60A8F-2DEB-4A58-A43B-60A0DADABD8F";
paths = (
{
closed = 1;
nodes = (
"23 680 OFFCURVE",
"12 678 OFFCURVE",
"16 660 CURVE SMOOTH",
"30 600 OFFCURVE",
"132 159 OFFCURVE",
"158 49 CURVE SMOOTH",
"167 9 OFFCURVE",
"176 0 OFFCURVE",
"197 0 CURVE SMOOTH",
"222 0 OFFCURVE",
"277 17 OFFCURVE",
"302 52 CURVE",
"252 87 LINE",
"248 87 OFFCURVE",
"246 87 OFFCURVE",
"242 87 CURVE",
"241 106 OFFCURVE",
"243 142 OFFCURVE",
"235 185 CURVE SMOOTH",
"226 235 OFFCURVE",
"157 584 OFFCURVE",
"144 652 CURVE SMOOTH",
"141 670 OFFCURVE",
"132 680 OFFCURVE",
"110 680 CURVE",
"94 680 OFFCURVE",
"48 680 OFFCURVE",
"32 680 CURVE"
);
},
{
closed = 1;
nodes = (
"264 52 OFFCURVE",
"290 52 OFFCURVE",
"302 52 CURVE",
"318 72 OFFCURVE",
"346 161 OFFCURVE",
"356 189 CURVE SMOOTH",
"368 221 OFFCURVE",
"417 379 OFFCURVE",
"458 504 CURVE",
"466 504 LINE",
"490 573 OFFCURVE",
"501 634 OFFCURVE",
"509 658 CURVE SMOOTH",
"515 674 OFFCURVE",
"511 680 OFFCURVE",
"500 680 CURVE SMOOTH",
"490 680 OFFCURVE",
"466 680 OFFCURVE",
"458 680 CURVE SMOOTH",
"429 680 OFFCURVE",
"421 677 OFFCURVE",
"406 615 CURVE SMOOTH",
"367 450 OFFCURVE",
"302 225 OFFCURVE",
"252 87 CURVE",
"252 52 LINE"
);
},
{
closed = 1;
nodes = (
"458 646 OFFCURVE",
"458 562 OFFCURVE",
"458 504 CURVE",
"466 504 LINE",
"499 351 OFFCURVE",
"549 123 OFFCURVE",
"565 49 CURVE SMOOTH",
"574 9 OFFCURVE",
"583 0 OFFCURVE",
"604 0 CURVE SMOOTH",
"629 0 OFFCURVE",
"691 17 OFFCURVE",
"716 52 CURVE",
"666 87 LINE",
"662 87 OFFCURVE",
"660 87 OFFCURVE",
"656 87 CURVE",
"655 106 OFFCURVE",
"657 142 OFFCURVE",
"649 185 CURVE SMOOTH",
"640 235 OFFCURVE",
"566 577 OFFCURVE",
"553 652 CURVE SMOOTH",
"550 670 OFFCURVE",
"541 680 OFFCURVE",
"519 680 CURVE",
"503 680 OFFCURVE",
"466 680 OFFCURVE",
"458 680 CURVE"
);
},
{
closed = 1;
nodes = (
"678 52 OFFCURVE",
"704 52 OFFCURVE",
"716 52 CURVE",
"732 72 OFFCURVE",
"760 161 OFFCURVE",
"770 189 CURVE SMOOTH",
"788 240 OFFCURVE",
"909 591 OFFCURVE",
"932 658 CURVE SMOOTH",
"938 674 OFFCURVE",
"934 680 OFFCURVE",
"923 680 CURVE SMOOTH",
"913 680 OFFCURVE",
"885 680 OFFCURVE",
"873 680 CURVE SMOOTH",
"849 680 OFFCURVE",
"835 677 OFFCURVE",
"820 615 CURVE SMOOTH",
"781 450 OFFCURVE",
"716 225 OFFCURVE",
"666 87 CURVE",
"666 52 LINE"
);
}
);
width = 945;
}
);
unicode = 0057;
},
{
glyphname = X;
lastChange = "2021-02-21 15:23:14 +0000";
layers = (
{
background = {
paths = (
{
closed = 1;
nodes = (
"478 490 OFFCURVE",
"574 598 OFFCURVE",
"623 658 CURVE SMOOTH",
"635 673 OFFCURVE",
"626 680 OFFCURVE",
"615 680 CURVE SMOOTH",
"605 680 OFFCURVE",
"552 680 OFFCURVE",
"538 680 CURVE SMOOTH",
"522 680 OFFCURVE",
"514 672 OFFCURVE",
"495 641 CURVE SMOOTH",
"455 577 OFFCURVE",
"407 516 OFFCURVE",
"374 474 CURVE SMOOTH",
"365 462 OFFCURVE",
"361 449 OFFCURVE",
"361 438 CURVE",
"355 438 LINE",
"355 416 OFFCURVE",
"355 382 OFFCURVE",
"355 363 CURVE",
"384 363 LINE"
);
}
);
};
layerId = "B0B60A8F-2DEB-4A58-A43B-60A0DADABD8F";
paths = (
{
closed = 1;
nodes = (
"55 680 OFFCURVE",
"51 671 OFFCURVE",
"58 660 CURVE SMOOTH",
"110 582 OFFCURVE",
"357 170 OFFCURVE",
"441 28 CURVE SMOOTH",
"451 12 OFFCURVE",
"460 0 OFFCURVE",
"482 0 CURVE",
"504 0 OFFCURVE",
"563 0 OFFCURVE",
"574 0 CURVE",
"588 0 OFFCURVE",
"598 5 OFFCURVE",
"585 25 CURVE SMOOTH",
"484 179 OFFCURVE",
"254 551 OFFCURVE",
"198 652 CURVE SMOOTH",
"189 669 OFFCURVE",
"178 680 OFFCURVE",
"155 680 CURVE",
"128 680 OFFCURVE",
"82 680 OFFCURVE",
"66 680 CURVE"
);
},
{
closed = 1;
nodes = (
"168 247 OFFCURVE",
"46 96 OFFCURVE",
"-13 26 CURVE SMOOTH",
"-25 11 OFFCURVE",
"-20 0 OFFCURVE",
"-4 0 CURVE SMOOTH",
"8 0 OFFCURVE",
"49 0 OFFCURVE",
"60 0 CURVE SMOOTH",
"82 0 OFFCURVE",
"91 13 OFFCURVE",
"106 38 CURVE SMOOTH",
"144 100 OFFCURVE",
"198 184 OFFCURVE",
"265 276 CURVE SMOOTH",
"272 285 OFFCURVE",
"271 299 OFFCURVE",
"271 304 CURVE",
"276 304 LINE",
"284 315 OFFCURVE",
"290 321 OFFCURVE",
"299 333 CURVE",
"258 370 LINE"
);
},
{
closed = 1;
nodes = (
"449 495 OFFCURVE",
"540 598 OFFCURVE",
"586 658 CURVE SMOOTH",
"597 673 OFFCURVE",
"589 680 OFFCURVE",
"578 680 CURVE SMOOTH",
"568 680 OFFCURVE",
"540 680 OFFCURVE",
"526 680 CURVE SMOOTH",
"510 680 OFFCURVE",
"502 672 OFFCURVE",
"483 641 CURVE SMOOTH",
"444 579 OFFCURVE",
"389 500 OFFCURVE",
"354 454 CURVE SMOOTH",
"345 442 OFFCURVE",
"341 431 OFFCURVE",
"341 421 CURVE",
"336 421 LINE",
"328 411 OFFCURVE",
"318 404 OFFCURVE",
"311 395 CURVE",
"355 363 LINE"
);
}
);
width = 601;
}
);
unicode = 0058;
},
{
glyphname = Y;
lastChange = "2021-01-30 08:01:35 +0000";
layers = (
{
layerId = "B0B60A8F-2DEB-4A58-A43B-60A0DADABD8F";
paths = (
{
closed = 1;
nodes = (
"44 680 OFFCURVE",
"34 676 OFFCURVE",
"45 656 CURVE SMOOTH",
"63 623 OFFCURVE",
"134 504 OFFCURVE",
"187 388 CURVE SMOOTH",
"202 356 OFFCURVE",
"208 331 OFFCURVE",
"203 286 CURVE",
"222 263 LINE",
"297 263 LINE",
"314 291 LINE",
"280 360 LINE",
"276 360 OFFCURVE",
"274 360 OFFCURVE",
"270 360 CURVE",
"269 387 OFFCURVE",
"266 424 OFFCURVE",
"245 465 CURVE SMOOTH",
"220 515 OFFCURVE",
"183 593 OFFCURVE",
"156 652 CURVE SMOOTH",
"148 670 OFFCURVE",
"144 680 OFFCURVE",
"122 680 CURVE",
"106 680 OFFCURVE",
"69 680 OFFCURVE",
"53 680 CURVE"
);
},
{
closed = 1;
nodes = (
"314 291 LINE",
"318 320 OFFCURVE",
"335 349 OFFCURVE",
"354 378 CURVE SMOOTH",
"396 441 OFFCURVE",
"525 637 OFFCURVE",
"539 658 CURVE SMOOTH",
"549 673 OFFCURVE",
"541 680 OFFCURVE",
"530 680 CURVE SMOOTH",
"520 680 OFFCURVE",
"499 680 OFFCURVE",
"490 680 CURVE SMOOTH",
"470 680 OFFCURVE",
"464 674 OFFCURVE",
"443 636 CURVE SMOOTH",
"375 515 OFFCURVE",
"306 400 OFFCURVE",
"280 360 CURVE",
"256 303 LINE"
);
},
{
closed = 1;
nodes = (
"203 286 LINE",
"196 238 OFFCURVE",
"185 147 OFFCURVE",
"176 75 CURVE SMOOTH",
"170 28 OFFCURVE",
"164 0 OFFCURVE",
"204 0 CURVE SMOOTH",
"213 0 OFFCURVE",
"229 0 OFFCURVE",
"265 0 CURVE SMOOTH",
"292 0 OFFCURVE",
"289 28 OFFCURVE",
"292 71 CURVE SMOOTH",
"298 147 OFFCURVE",
"305 240 OFFCURVE",
"314 291 CURVE",
"256 303 LINE"
);
}
);
width = 599;
}
);
unicode = 0059;
},
{
glyphname = Z;
lastChange = "2021-01-30 08:29:35 +0000";
layers = (
{
background = {
paths = (
{
closed = 1;
nodes = (
"537 680 OFFCURVE",
"484 680 OFFCURVE",
"472 680 CURVE",
"464 680 OFFCURVE",
"449 678 OFFCURVE",
"435 656 CURVE SMOOTH",
"351 518 OFFCURVE",
"177 246 OFFCURVE",
"37 36 CURVE SMOOTH",
"25 17 OFFCURVE",
"26 0 OFFCURVE",
"55 0 CURVE SMOOTH",
"64 0 OFFCURVE",
"84 0 OFFCURVE",
"120 0 CURVE SMOOTH",
"147 0 OFFCURVE",
"158 28 OFFCURVE",
"185 71 CURVE SMOOTH",
"290 242 OFFCURVE",
"462 516 OFFCURVE",
"558 660 CURVE SMOOTH",
"566 672 OFFCURVE",
"562 680 OFFCURVE",
"553 680 CURVE"
);
},
{
closed = 1;
nodes = (
"435 55 LINE",
"120 55 LINE",
"120 0 LINE",
"435 0 LINE"
);
},
{
closed = 1;
nodes = (
"507 0 OFFCURVE",
"509 1 OFFCURVE",
"511 8 CURVE SMOOTH",
"513 15 OFFCURVE",
"519 41 OFFCURVE",
"522 52 CURVE SMOOTH",
"524 61 OFFCURVE",
"517 62 OFFCURVE",
"511 62 CURVE SMOOTH",
"495 62 OFFCURVE",
"451 55 OFFCURVE",
"409 55 CURVE",
"409 0 LINE",
"433 0 OFFCURVE",
"488 0 OFFCURVE",
"500 0 CURVE"
);
}
);
};
layerId = "B0B60A8F-2DEB-4A58-A43B-60A0DADABD8F";
paths = (
{
closed = 1;
nodes = (
"174 630 LINE",
"472 630 LINE",
"472 680 LINE",
"174 680 LINE"
);
},
{
closed = 1;
nodes = (
"116 625 OFFCURVE",
"152 630 OFFCURVE",
"202 630 CURVE",
"202 680 LINE",
"188 680 OFFCURVE",
"113 680 OFFCURVE",
"97 680 CURVE SMOOTH",
"91 680 OFFCURVE",
"86 679 OFFCURVE",
"88 670 CURVE SMOOTH",
"91 659 OFFCURVE",
"95 640 OFFCURVE",
"97 633 CURVE SMOOTH",
"99 626 OFFCURVE",
"101 625 OFFCURVE",
"108 625 CURVE"
);
},
{
closed = 1;
nodes = (
"435 60 LINE",
"120 60 LINE",
"120 0 LINE",
"435 0 LINE"
);
},
{
closed = 1;
nodes = (
"507 0 OFFCURVE",
"509 1 OFFCURVE",
"511 8 CURVE SMOOTH",
"513 15 OFFCURVE",
"519 46 OFFCURVE",
"522 57 CURVE SMOOTH",
"524 66 OFFCURVE",
"517 67 OFFCURVE",
"511 67 CURVE SMOOTH",
"495 67 OFFCURVE",
"451 60 OFFCURVE",
"409 60 CURVE",
"409 0 LINE",
"433 0 OFFCURVE",
"488 0 OFFCURVE",
"500 0 CURVE"
);
},
{
closed = 1;
nodes = (
"542 680 OFFCURVE",
"484 680 OFFCURVE",
"472 680 CURVE",
"441 680 LINE",
"441 672 OFFCURVE",
"441 633 OFFCURVE",
"441 625 CURVE",
"412 612 OFFCURVE",
"388 590 OFFCURVE",
"355 540 CURVE SMOOTH",
"335 510 OFFCURVE",
"167 246 OFFCURVE",
"27 36 CURVE SMOOTH",
"15 17 OFFCURVE",
"16 0 OFFCURVE",
"45 0 CURVE SMOOTH",
"90 0 OFFCURVE",
"145 0 OFFCURVE",
"156 0 CURVE",
"156 65 LINE",
"182 77 OFFCURVE",
"204 94 OFFCURVE",
"235 144 CURVE SMOOTH",
"331 301 OFFCURVE",
"468 516 OFFCURVE",
"563 660 CURVE SMOOTH",
"571 672 OFFCURVE",
"567 680 OFFCURVE",
"558 680 CURVE"
);
}
);
width = 607;
}
);
unicode = 005A;
},
{
glyphname = bracketleft;
lastChange = "2021-02-18 10:27:29 +0000";
layers = (
{
layerId = "B0B60A8F-2DEB-4A58-A43B-60A0DADABD8F";
paths = (
{
closed = 1;
nodes = (
"111 -152 OFFCURVE",
"162 -152 OFFCURVE",
"174 -152 CURVE",
"182 -152 OFFCURVE",
"191 -150 OFFCURVE",
"192 -132 CURVE SMOOTH",
"202 12 OFFCURVE",
"246 450 OFFCURVE",
"268 619 CURVE SMOOTH",
"274 662 OFFCURVE",
"280 690 OFFCURVE",
"253 690 CURVE SMOOTH",
"244 690 OFFCURVE",
"215 690 OFFCURVE",
"179 690 CURVE SMOOTH",
"152 690 OFFCURVE",
"155 662 OFFCURVE",
"152 619 CURVE SMOOTH",
"139 442 OFFCURVE",
"92 10 OFFCURVE",
"75 -128 CURVE SMOOTH",
"72 -150 OFFCURVE",
"89 -152 OFFCURVE",
"99 -152 CURVE"
);
},
{
closed = 1;
nodes = (
"338 628 LINE",
"355 628 OFFCURVE",
"360 633 OFFCURVE",
"365 647 CURVE SMOOTH",
"372 668 LINE SMOOTH",
"377 683 OFFCURVE",
"370 690 OFFCURVE",
"357 690 CURVE SMOOTH",
"179 690 LINE",
"165 690 OFFCURVE",
"164 679 OFFCURVE",
"164 668 CURVE SMOOTH",
"164 645 LINE SMOOTH",
"164 631 OFFCURVE",
"168 628 OFFCURVE",
"180 628 CURVE SMOOTH"
);
},
{
closed = 1;
nodes = (
"257 -152 LINE",
"274 -152 OFFCURVE",
"279 -147 OFFCURVE",
"284 -133 CURVE SMOOTH",
"291 -112 LINE SMOOTH",
"296 -97 OFFCURVE",
"289 -90 OFFCURVE",
"276 -90 CURVE SMOOTH",
"98 -90 LINE",
"84 -90 OFFCURVE",
"83 -101 OFFCURVE",
"83 -112 CURVE SMOOTH",
"83 -135 LINE SMOOTH",
"83 -149 OFFCURVE",
"87 -152 OFFCURVE",
"99 -152 CURVE SMOOTH"
);
}
);
width = 449;
}
);
unicode = 005B;
},
{
glyphname = backslash;
lastChange = "2021-02-18 10:29:57 +0000";
layers = (
{
layerId = "B0B60A8F-2DEB-4A58-A43B-60A0DADABD8F";
paths = (
{
closed = 1;
nodes = (
"90 690 OFFCURVE",
"81 688 OFFCURVE",
"86 670 CURVE SMOOTH",
"129 526 OFFCURVE",
"247 90 OFFCURVE",
"291 -81 CURVE SMOOTH",
"303 -124 OFFCURVE",
"303 -152 OFFCURVE",
"330 -152 CURVE SMOOTH",
"366 -152 OFFCURVE",
"382 -152 OFFCURVE",
"391 -152 CURVE SMOOTH",
"431 -152 OFFCURVE",
"421 -124 OFFCURVE",
"406 -77 CURVE SMOOTH",
"355 94 OFFCURVE",
"238 528 OFFCURVE",
"204 666 CURVE SMOOTH",
"198 688 OFFCURVE",
"184 690 OFFCURVE",
"176 690 CURVE",
"164 690 OFFCURVE",
"115 690 OFFCURVE",
"99 690 CURVE"
);
}
);
width = 504;
}
);
unicode = 005C;
},
{
glyphname = bracketright;
lastChange = "2021-02-18 10:28:20 +0000";
layers = (
{
background = {
paths = (
{
closed = 1;
nodes = (
"332 680 OFFCURVE",
"281 680 OFFCURVE",
"269 680 CURVE",
"261 680 OFFCURVE",
"252 678 OFFCURVE",
"251 660 CURVE SMOOTH",
"241 516 OFFCURVE",
"214 240 OFFCURVE",
"192 71 CURVE SMOOTH",
"186 28 OFFCURVE",
"180 0 OFFCURVE",
"207 0 CURVE SMOOTH",
"216 0 OFFCURVE",
"245 0 OFFCURVE",
"281 0 CURVE SMOOTH",
"308 0 OFFCURVE",
"305 28 OFFCURVE",
"308 71 CURVE SMOOTH",
"321 248 OFFCURVE",
"351 518 OFFCURVE",
"368 656 CURVE SMOOTH",
"371 678 OFFCURVE",
"354 680 OFFCURVE",
"344 680 CURVE"
);
}
);
};
layerId = "B0B60A8F-2DEB-4A58-A43B-60A0DADABD8F";
paths = (
{
closed = 1;
nodes = (
"333 690 OFFCURVE",
"282 690 OFFCURVE",
"270 690 CURVE",
"262 690 OFFCURVE",
"253 688 OFFCURVE",
"252 670 CURVE SMOOTH",
"242 526 OFFCURVE",
"198 88 OFFCURVE",
"176 -81 CURVE SMOOTH",
"170 -124 OFFCURVE",
"164 -152 OFFCURVE",
"191 -152 CURVE SMOOTH",
"200 -152 OFFCURVE",
"229 -152 OFFCURVE",
"265 -152 CURVE SMOOTH",
"292 -152 OFFCURVE",
"289 -124 OFFCURVE",
"292 -81 CURVE SMOOTH",
"305 96 OFFCURVE",
"352 528 OFFCURVE",
"369 666 CURVE SMOOTH",
"372 688 OFFCURVE",
"355 690 OFFCURVE",
"345 690 CURVE"
);
},
{
closed = 1;
nodes = (
"106 -90 LINE",
"89 -90 OFFCURVE",
"84 -95 OFFCURVE",
"79 -109 CURVE SMOOTH",
"72 -130 LINE SMOOTH",
"67 -145 OFFCURVE",
"74 -152 OFFCURVE",
"87 -152 CURVE SMOOTH",
"265 -152 LINE",
"279 -152 OFFCURVE",
"280 -141 OFFCURVE",
"280 -130 CURVE SMOOTH",
"280 -107 LINE SMOOTH",
"280 -93 OFFCURVE",
"276 -90 OFFCURVE",
"264 -90 CURVE SMOOTH"
);
},
{
closed = 1;
nodes = (
"187 690 LINE",
"170 690 OFFCURVE",
"165 685 OFFCURVE",
"160 671 CURVE SMOOTH",
"153 650 LINE SMOOTH",
"148 635 OFFCURVE",
"155 628 OFFCURVE",
"168 628 CURVE SMOOTH",
"346 628 LINE",
"360 628 OFFCURVE",
"361 639 OFFCURVE",
"361 650 CURVE SMOOTH",
"361 673 LINE SMOOTH",
"361 687 OFFCURVE",
"357 690 OFFCURVE",
"345 690 CURVE SMOOTH"
);
}
);
width = 439;
}
);
unicode = 005D;
},
{
glyphname = underscore;
lastChange = "2021-02-18 10:42:22 +0000";
layers = (
{
layerId = "B0B60A8F-2DEB-4A58-A43B-60A0DADABD8F";
paths = (
{
closed = 1;
nodes = (
"72 1 LINE",
"55 1 OFFCURVE",
"47 -3 OFFCURVE",
"42 -18 CURVE SMOOTH",
"27 -66 LINE SMOOTH",
"22 -81 OFFCURVE",
"29 -88 OFFCURVE",
"42 -88 CURVE SMOOTH",
"575 -88 LINE",
"592 -88 OFFCURVE",
"600 -84 OFFCURVE",
"605 -69 CURVE SMOOTH",
"620 -21 LINE SMOOTH",
"625 -6 OFFCURVE",
"618 1 OFFCURVE",
"599 1 CURVE SMOOTH"
);
}
);
width = 647;
}
);
unicode = 005F;
},
{
glyphname = a;
lastChange = "2021-04-05 14:04:14 +0000";
layers = (
{
background = {
paths = (
{
closed = 1;
nodes = (
"-827 823 OFFCURVE",
"-730 721 OFFCURVE",
"-615 721 CURVE SMOOTH",
"-478 721 OFFCURVE",
"-362 834 OFFCURVE",
"-362 937 CURVE SMOOTH",
"-362 1027 OFFCURVE",
"-413 1173 OFFCURVE",
"-479 1173 CURVE SMOOTH",
"-503 1173 OFFCURVE",
"-542 1159 OFFCURVE",
"-576 1133 CURVE SMOOTH",
"-601 1114 OFFCURVE",
"-618 1086 OFFCURVE",
"-618 1076 CURVE SMOOTH",
"-618 1073 OFFCURVE",
"-617 1068 OFFCURVE",
"-611 1068 CURVE SMOOTH",
"-597 1068 OFFCURVE",
"-565 1085 OFFCURVE",
"-551 1085 CURVE SMOOTH",
"-515 1085 OFFCURVE",
"-479 974 OFFCURVE",
"-479 915 CURVE SMOOTH",
"-479 862 OFFCURVE",
"-548 805 OFFCURVE",
"-609 805 CURVE SMOOTH",
"-683 805 OFFCURVE",
"-723 907 OFFCURVE",
"-723 995 CURVE SMOOTH",
"-723 1080 OFFCURVE",
"-693 1122 OFFCURVE",
"-693 1150 CURVE SMOOTH",
"-693 1154 OFFCURVE",
"-695 1158 OFFCURVE",
"-701 1158 CURVE SMOOTH",
"-723 1158 OFFCURVE",
"-827 1050 OFFCURVE",
"-827 933 CURVE SMOOTH"
);
},
{
closed = 1;
nodes = (
"-385 873 LINE",
"-351 873 OFFCURVE",
"-302 823 OFFCURVE",
"-291 779 CURVE",
"-282 853 LINE",
"-280 903 OFFCURVE",
"-350 987 OFFCURVE",
"-385 987 CURVE"
);
},
{
closed = 1;
nodes = (
"-261 1225 LINE",
"-261 1225 OFFCURVE",
"-291 860 OFFCURVE",
"-308 740 CURVE SMOOTH",
"-313 704 OFFCURVE",
"-323 663 OFFCURVE",
"-297 663 CURVE SMOOTH",
"-251 663 OFFCURVE",
"-186 791 OFFCURVE",
"-182 858 CURVE SMOOTH",
"-171 1045 OFFCURVE",
"-148 1222 OFFCURVE",
"-148 1222 CURVE"
);
},
{
closed = 1;
nodes = (
"-872 1290 LINE",
"-901 1290 OFFCURVE",
"-914 1293 OFFCURVE",
"-921 1271 CURVE SMOOTH",
"-937 1218 LINE SMOOTH",
"-942 1203 OFFCURVE",
"-935 1196 OFFCURVE",
"-916 1196 CURVE SMOOTH",
"-94 1196 LINE",
"-65 1196 OFFCURVE",
"-52 1193 OFFCURVE",
"-45 1215 CURVE SMOOTH",
"-28 1268 LINE SMOOTH",
"-23 1283 OFFCURVE",
"-30 1290 OFFCURVE",
"-49 1290 CURVE SMOOTH"
);
},
{
closed = 1;
nodes = (
"-491 538 OFFCURVE",
"-514 361 OFFCURVE",
"-525 174 CURVE SMOOTH",
"-529 107 OFFCURVE",
"-591 -21 OFFCURVE",
"-632 -21 CURVE SMOOTH",
"-663 -21 OFFCURVE",
"-658 14 OFFCURVE",
"-652 56 CURVE SMOOTH",
"-638 162 OFFCURVE",
"-604 541 OFFCURVE",
"-604 541 CURVE",
"-491 538 LINE"
);
},
{
closed = 1;
nodes = (
"-159 606 OFFCURVE",
"-152 599 OFFCURVE",
"-157 584 CURVE SMOOTH",
"-174 531 LINE SMOOTH",
"-181 509 OFFCURVE",
"-194 512 OFFCURVE",
"-223 512 CURVE",
"-657 512 LINE SMOOTH",
"-676 512 OFFCURVE",
"-683 519 OFFCURVE",
"-678 534 CURVE SMOOTH",
"-662 587 LINE SMOOTH",
"-655 609 OFFCURVE",
"-642 606 OFFCURVE",
"-613 606 CURVE",
"-178 606 LINE SMOOTH"
);
},
{
closed = 1;
nodes = (
"-944 512 OFFCURVE",
"-949 514 OFFCURVE",
"-949 521 CURVE SMOOTH",
"-949 546 OFFCURVE",
"-863 608 OFFCURVE",
"-826 608 CURVE SMOOTH",
"-784 608 OFFCURVE",
"-725 547 OFFCURVE",
"-725 487 CURVE SMOOTH",
"-725 419 OFFCURVE",
"-801 366 OFFCURVE",
"-833 351 CURVE",
"-783 331 OFFCURVE",
"-741 277 OFFCURVE",
"-741 211 CURVE SMOOTH",
"-741 121 OFFCURVE",
"-828 27 OFFCURVE",
"-991 27 CURVE SMOOTH",
"-1112 27 OFFCURVE",
"-1199 97 OFFCURVE",
"-1199 183 CURVE SMOOTH",
"-1199 267 OFFCURVE",
"-1098 337 OFFCURVE",
"-1071 337 CURVE SMOOTH",
"-1042 337 OFFCURVE",
"-1092 278 OFFCURVE",
"-1092 199 CURVE SMOOTH",
"-1092 149 OFFCURVE",
"-1073 110 OFFCURVE",
"-1000 110 CURVE SMOOTH",
"-920 110 OFFCURVE",
"-861 146 OFFCURVE",
"-861 226 CURVE SMOOTH",
"-861 248 OFFCURVE",
"-864 299 OFFCURVE",
"-911 299 CURVE SMOOTH",
"-933 299 OFFCURVE",
"-947 295 OFFCURVE",
"-964 295 CURVE SMOOTH",
"-976 295 OFFCURVE",
"-979 303 OFFCURVE",
"-979 320 CURVE SMOOTH",
"-979 373 OFFCURVE",
"-970 379 OFFCURVE",
"-948 379 CURVE SMOOTH",
"-886 379 OFFCURVE",
"-838 384 OFFCURVE",
"-838 440 CURVE SMOOTH",
"-838 477 OFFCURVE",
"-846 525 OFFCURVE",
"-872 525 CURVE SMOOTH",
"-886 525 OFFCURVE",
"-923 512 OFFCURVE",
"-937 512 CURVE SMOOTH"
);
},
{
closed = 1;
nodes = (
"-256 538 OFFCURVE",
"-279 361 OFFCURVE",
"-290 174 CURVE SMOOTH",
"-294 107 OFFCURVE",
"-356 -21 OFFCURVE",
"-397 -21 CURVE SMOOTH",
"-428 -21 OFFCURVE",
"-423 14 OFFCURVE",
"-417 56 CURVE SMOOTH",
"-403 162 OFFCURVE",
"-369 541 OFFCURVE",
"-369 541 CURVE",
"-256 538 LINE"
);
},
{
closed = 1;
nodes = (
"-794 393 LINE",
"-753 367 OFFCURVE",
"-680 345 OFFCURVE",
"-614 375 CURVE",
"-624 267 LINE",
"-723 270 OFFCURVE",
"-786 313 OFFCURVE",
"-833 351 CURVE"
);
},
{
closed = 1;
nodes = (
"377 475 OFFCURVE",
"346 475 OFFCURVE",
"334 475 CURVE",
"328 475 OFFCURVE",
"323 473 OFFCURVE",
"322 463 CURVE SMOOTH",
"317 411 OFFCURVE",
"300 235 OFFCURVE",
"290 98 CURVE SMOOTH",
"285 28 OFFCURVE",
"275 -2 OFFCURVE",
"301 -2 CURVE SMOOTH",
"325 -2 OFFCURVE",
"396 51 OFFCURVE",
"403 134 CURVE SMOOTH",
"415 282 OFFCURVE",
"427 411 OFFCURVE",
"433 464 CURVE SMOOTH",
"434 473 OFFCURVE",
"430 475 OFFCURVE",
"423 475 CURVE"
);
},
{
closed = 1;
nodes = (
"323 485 OFFCURVE",
"420 414 OFFCURVE",
"411 332 CURVE SMOOTH",
"388 112 LINE SMOOTH",
"387 102 OFFCURVE",
"390 93 OFFCURVE",
"403 93 CURVE SMOOTH",
"463 93 LINE SMOOTH",
"473 93 OFFCURVE",
"485 91 OFFCURVE",
"478 71 CURVE SMOOTH",
"475 61 OFFCURVE",
"465 30 OFFCURVE",
"461 18 CURVE SMOOTH",
"456 4 OFFCURVE",
"450 -1 OFFCURVE",
"436 -1 CURVE SMOOTH",
"397 -1 OFFCURVE",
"326 20 OFFCURVE",
"310 84 CURVE",
"289 124 LINE",
"304 268 OFFCURVE",
"307 308 OFFCURVE",
"313 377 CURVE SMOOTH",
"317 420 OFFCURVE",
"275 426 OFFCURVE",
"267 426 CURVE SMOOTH",
"205 426 OFFCURVE",
"119 345 OFFCURVE",
"93 345 CURVE SMOOTH",
"84 345 OFFCURVE",
"81 350 OFFCURVE",
"81 358 CURVE SMOOTH",
"81 376 OFFCURVE",
"86 408 OFFCURVE",
"95 428 CURVE SMOOTH",
"114 471 OFFCURVE",
"175 485 OFFCURVE",
"224 485 CURVE SMOOTH"
);
}
);
};
hints = (
{
origin = "{0, 15}";
type = Corner;
name = _corner.serif;
}
);
layerId = "B0B60A8F-2DEB-4A58-A43B-60A0DADABD8F";
paths = (
{
closed = 1;
nodes = (
"524 484 OFFCURVE",
"519 489 OFFCURVE",
"513 489 CURVE SMOOTH",
"499 489 OFFCURVE",
"455 466 OFFCURVE",
"392 456 CURVE",
"368 305 LINE",
"381 279 LINE",
"364 204 LINE SMOOTH",
"347 130 OFFCURVE",
"338 83 OFFCURVE",
"338 60 CURVE SMOOTH",
"338 20 OFFCURVE",
"346 -16 OFFCURVE",
"377 -16 CURVE SMOOTH",
"442 -16 LINE",
"463 213 LINE SMOOTH",
"475 348 OFFCURVE",
"524 466 OFFCURVE",
"524 477 CURVE SMOOTH"
);
},
{
closed = 1;
nodes = (
"218 -16 OFFCURVE",
"303 67 OFFCURVE",
"411 308 CURVE",
"390 397 LINE",
"291 161 OFFCURVE",
"203 82 OFFCURVE",
"178 82 CURVE SMOOTH",
"153 82 OFFCURVE",
"142 123 OFFCURVE",
"142 200 CURVE SMOOTH",
"142 325 OFFCURVE",
"187 415 OFFCURVE",
"244 415 CURVE SMOOTH",
"271 415 OFFCURVE",
"355 386 OFFCURVE",
"409 350 CURVE",
"438 455 LINE",
"405 471 OFFCURVE",
"356 490 OFFCURVE",
"299 490 CURVE SMOOTH",
"152 490 OFFCURVE",
"29 351 OFFCURVE",
"29 157 CURVE SMOOTH",
"29 48 OFFCURVE",
"58 -16 OFFCURVE",
"133 -16 CURVE SMOOTH"
);
}
);
width = 539;
},
{
associatedMasterId = "B0B60A8F-2DEB-4A58-A43B-60A0DADABD8F";
background = {
paths = (
{
closed = 1;
nodes = (
"-823 823 OFFCURVE",
"-726 721 OFFCURVE",
"-611 721 CURVE SMOOTH",
"-474 721 OFFCURVE",
"-358 834 OFFCURVE",
"-358 937 CURVE SMOOTH",
"-358 1027 OFFCURVE",
"-409 1173 OFFCURVE",
"-475 1173 CURVE SMOOTH",
"-499 1173 OFFCURVE",
"-538 1159 OFFCURVE",
"-572 1133 CURVE SMOOTH",
"-597 1114 OFFCURVE",
"-614 1086 OFFCURVE",
"-614 1076 CURVE SMOOTH",
"-614 1073 OFFCURVE",
"-613 1068 OFFCURVE",
"-607 1068 CURVE SMOOTH",
"-593 1068 OFFCURVE",
"-561 1085 OFFCURVE",
"-547 1085 CURVE SMOOTH",
"-511 1085 OFFCURVE",
"-475 974 OFFCURVE",
"-475 915 CURVE SMOOTH",
"-475 862 OFFCURVE",
"-544 805 OFFCURVE",
"-605 805 CURVE SMOOTH",
"-679 805 OFFCURVE",
"-719 907 OFFCURVE",
"-719 995 CURVE SMOOTH",
"-719 1080 OFFCURVE",
"-689 1122 OFFCURVE",
"-689 1150 CURVE SMOOTH",
"-689 1154 OFFCURVE",
"-691 1158 OFFCURVE",
"-697 1158 CURVE SMOOTH",
"-719 1158 OFFCURVE",
"-823 1050 OFFCURVE",
"-823 933 CURVE SMOOTH"
);
},
{
closed = 1;
nodes = (
"-381 873 LINE",
"-347 873 OFFCURVE",
"-298 823 OFFCURVE",
"-287 779 CURVE",
"-278 853 LINE",
"-276 903 OFFCURVE",
"-346 987 OFFCURVE",
"-381 987 CURVE"
);
},
{
closed = 1;
nodes = (
"-257 1225 LINE",
"-257 1225 OFFCURVE",
"-287 860 OFFCURVE",
"-304 740 CURVE SMOOTH",
"-309 704 OFFCURVE",
"-319 663 OFFCURVE",
"-293 663 CURVE SMOOTH",
"-247 663 OFFCURVE",
"-182 791 OFFCURVE",
"-178 858 CURVE SMOOTH",
"-167 1045 OFFCURVE",
"-144 1222 OFFCURVE",
"-144 1222 CURVE"
);
},
{
closed = 1;
nodes = (
"-868 1290 LINE",
"-897 1290 OFFCURVE",
"-910 1293 OFFCURVE",
"-917 1271 CURVE SMOOTH",
"-933 1218 LINE SMOOTH",
"-938 1203 OFFCURVE",
"-931 1196 OFFCURVE",
"-912 1196 CURVE SMOOTH",
"-90 1196 LINE",
"-61 1196 OFFCURVE",
"-48 1193 OFFCURVE",
"-41 1215 CURVE SMOOTH",
"-24 1268 LINE SMOOTH",
"-19 1283 OFFCURVE",
"-26 1290 OFFCURVE",
"-45 1290 CURVE SMOOTH"
);
},
{
closed = 1;
nodes = (
"-487 538 OFFCURVE",
"-510 361 OFFCURVE",
"-521 174 CURVE SMOOTH",
"-525 107 OFFCURVE",
"-587 -21 OFFCURVE",
"-628 -21 CURVE SMOOTH",
"-659 -21 OFFCURVE",
"-654 14 OFFCURVE",
"-648 56 CURVE SMOOTH",
"-634 162 OFFCURVE",
"-600 541 OFFCURVE",
"-600 541 CURVE",
"-487 538 LINE"
);
},
{
closed = 1;
nodes = (
"-155 606 OFFCURVE",
"-148 599 OFFCURVE",
"-153 584 CURVE SMOOTH",
"-170 531 LINE SMOOTH",
"-177 509 OFFCURVE",
"-190 512 OFFCURVE",
"-219 512 CURVE",
"-653 512 LINE SMOOTH",
"-672 512 OFFCURVE",
"-679 519 OFFCURVE",
"-674 534 CURVE SMOOTH",
"-658 587 LINE SMOOTH",
"-651 609 OFFCURVE",
"-638 606 OFFCURVE",
"-609 606 CURVE",
"-174 606 LINE SMOOTH"
);
},
{
closed = 1;
nodes = (
"-940 512 OFFCURVE",
"-945 514 OFFCURVE",
"-945 521 CURVE SMOOTH",
"-945 546 OFFCURVE",
"-859 608 OFFCURVE",
"-822 608 CURVE SMOOTH",
"-780 608 OFFCURVE",
"-721 547 OFFCURVE",
"-721 487 CURVE SMOOTH",
"-721 419 OFFCURVE",
"-797 366 OFFCURVE",
"-829 351 CURVE",
"-779 331 OFFCURVE",
"-737 277 OFFCURVE",
"-737 211 CURVE SMOOTH",
"-737 121 OFFCURVE",
"-824 27 OFFCURVE",
"-987 27 CURVE SMOOTH",
"-1108 27 OFFCURVE",
"-1195 97 OFFCURVE",
"-1195 183 CURVE SMOOTH",
"-1195 267 OFFCURVE",
"-1094 337 OFFCURVE",
"-1067 337 CURVE SMOOTH",
"-1038 337 OFFCURVE",
"-1088 278 OFFCURVE",
"-1088 199 CURVE SMOOTH",
"-1088 149 OFFCURVE",
"-1069 110 OFFCURVE",
"-996 110 CURVE SMOOTH",
"-916 110 OFFCURVE",
"-857 146 OFFCURVE",
"-857 226 CURVE SMOOTH",
"-857 248 OFFCURVE",
"-860 299 OFFCURVE",
"-907 299 CURVE SMOOTH",
"-929 299 OFFCURVE",
"-943 295 OFFCURVE",
"-960 295 CURVE SMOOTH",
"-972 295 OFFCURVE",
"-975 303 OFFCURVE",
"-975 320 CURVE SMOOTH",
"-975 373 OFFCURVE",
"-966 379 OFFCURVE",
"-944 379 CURVE SMOOTH",
"-882 379 OFFCURVE",
"-834 384 OFFCURVE",
"-834 440 CURVE SMOOTH",
"-834 477 OFFCURVE",
"-842 525 OFFCURVE",
"-868 525 CURVE SMOOTH",
"-882 525 OFFCURVE",
"-919 512 OFFCURVE",
"-933 512 CURVE SMOOTH"
);
},
{
closed = 1;
nodes = (
"-252 538 OFFCURVE",
"-275 361 OFFCURVE",
"-286 174 CURVE SMOOTH",
"-290 107 OFFCURVE",
"-352 -21 OFFCURVE",
"-393 -21 CURVE SMOOTH",
"-424 -21 OFFCURVE",
"-419 14 OFFCURVE",
"-413 56 CURVE SMOOTH",
"-399 162 OFFCURVE",
"-365 541 OFFCURVE",
"-365 541 CURVE",
"-252 538 LINE"
);
},
{
closed = 1;
nodes = (
"-790 393 LINE",
"-749 367 OFFCURVE",
"-676 345 OFFCURVE",
"-610 375 CURVE",
"-620 267 LINE",
"-719 270 OFFCURVE",
"-782 313 OFFCURVE",
"-829 351 CURVE"
);
},
{
closed = 1;
nodes = (
"381 475 OFFCURVE",
"350 475 OFFCURVE",
"338 475 CURVE",
"332 475 OFFCURVE",
"327 473 OFFCURVE",
"326 463 CURVE SMOOTH",
"321 411 OFFCURVE",
"304 235 OFFCURVE",
"294 98 CURVE SMOOTH",
"289 28 OFFCURVE",
"279 -2 OFFCURVE",
"305 -2 CURVE SMOOTH",
"329 -2 OFFCURVE",
"400 51 OFFCURVE",
"407 134 CURVE SMOOTH",
"419 282 OFFCURVE",
"431 411 OFFCURVE",
"437 464 CURVE SMOOTH",
"438 473 OFFCURVE",
"434 475 OFFCURVE",
"427 475 CURVE"
);
},
{
closed = 1;
nodes = (
"327 485 OFFCURVE",
"424 414 OFFCURVE",
"415 332 CURVE SMOOTH",
"392 112 LINE SMOOTH",
"391 102 OFFCURVE",
"394 93 OFFCURVE",
"407 93 CURVE SMOOTH",
"467 93 LINE SMOOTH",
"477 93 OFFCURVE",
"489 91 OFFCURVE",
"482 71 CURVE SMOOTH",
"479 61 OFFCURVE",
"469 30 OFFCURVE",
"465 18 CURVE SMOOTH",
"460 4 OFFCURVE",
"454 -1 OFFCURVE",
"440 -1 CURVE SMOOTH",
"401 -1 OFFCURVE",
"330 20 OFFCURVE",
"314 84 CURVE",
"293 124 LINE",
"308 268 OFFCURVE",
"311 308 OFFCURVE",
"317 377 CURVE SMOOTH",
"321 420 OFFCURVE",
"279 426 OFFCURVE",
"271 426 CURVE SMOOTH",
"209 426 OFFCURVE",
"123 345 OFFCURVE",
"97 345 CURVE SMOOTH",
"88 345 OFFCURVE",
"85 350 OFFCURVE",
"85 358 CURVE SMOOTH",
"85 376 OFFCURVE",
"90 408 OFFCURVE",
"99 428 CURVE SMOOTH",
"118 471 OFFCURVE",
"179 485 OFFCURVE",
"228 485 CURVE SMOOTH"
);
}
);
};
layerId = "AD57F8BB-8B07-4902-90E2-B97BD9304486";
name = "Mar 9 21, 11:01";
paths = (
{
closed = 1;
nodes = (
"215 -16 OFFCURVE",
"256 23 OFFCURVE",
"297 70 CURVE SMOOTH",
"377 162 LINE",
"379 366 LINE",
"358 192 OFFCURVE",
"259 64 OFFCURVE",
"199 64 CURVE SMOOTH",
"162 64 OFFCURVE",
"133 114 OFFCURVE",
"133 192 CURVE SMOOTH",
"133 309 OFFCURVE",
"181 440 OFFCURVE",
"271 440 CURVE SMOOTH",
"324 440 OFFCURVE",
"384 387 OFFCURVE",
"417 358 CURVE",
"489 443 LINE",
"423 464 OFFCURVE",
"355 490 OFFCURVE",
"285 490 CURVE SMOOTH",
"145 490 OFFCURVE",
"28 345 OFFCURVE",
"28 173 CURVE SMOOTH",
"28 64 OFFCURVE",
"75 -16 OFFCURVE",
"157 -16 CURVE SMOOTH"
);
},
{
closed = 1;
nodes = (
"339 8 OFFCURVE",
"348 -16 OFFCURVE",
"366 -16 CURVE SMOOTH",
"392 -16 OFFCURVE",
"448 24 OFFCURVE",
"448 58 CURVE SMOOTH",
"448 80 OFFCURVE",
"440 94 OFFCURVE",
"445 128 CURVE SMOOTH",
"489 443 LINE",
"389 448 LINE",
"357 201 LINE",
"358 185 LINE",
"351 127 LINE SMOOTH",
"346 87 OFFCURVE",
"339 50 OFFCURVE",
"339 31 CURVE SMOOTH"
);
}
);
width = 534;
},
{
associatedMasterId = "B0B60A8F-2DEB-4A58-A43B-60A0DADABD8F";
background = {
paths = (
{
closed = 1;
nodes = (
"-823 823 OFFCURVE",
"-726 721 OFFCURVE",
"-611 721 CURVE SMOOTH",
"-474 721 OFFCURVE",
"-358 834 OFFCURVE",
"-358 937 CURVE SMOOTH",
"-358 1027 OFFCURVE",
"-409 1173 OFFCURVE",
"-475 1173 CURVE SMOOTH",
"-499 1173 OFFCURVE",
"-538 1159 OFFCURVE",
"-572 1133 CURVE SMOOTH",
"-597 1114 OFFCURVE",
"-614 1086 OFFCURVE",
"-614 1076 CURVE SMOOTH",
"-614 1073 OFFCURVE",
"-613 1068 OFFCURVE",
"-607 1068 CURVE SMOOTH",
"-593 1068 OFFCURVE",
"-561 1085 OFFCURVE",
"-547 1085 CURVE SMOOTH",
"-511 1085 OFFCURVE",
"-475 974 OFFCURVE",
"-475 915 CURVE SMOOTH",
"-475 862 OFFCURVE",
"-544 805 OFFCURVE",
"-605 805 CURVE SMOOTH",
"-679 805 OFFCURVE",
"-719 907 OFFCURVE",
"-719 995 CURVE SMOOTH",
"-719 1080 OFFCURVE",
"-689 1122 OFFCURVE",
"-689 1150 CURVE SMOOTH",
"-689 1154 OFFCURVE",
"-691 1158 OFFCURVE",
"-697 1158 CURVE SMOOTH",
"-719 1158 OFFCURVE",
"-823 1050 OFFCURVE",
"-823 933 CURVE SMOOTH"
);
},
{
closed = 1;
nodes = (
"-381 873 LINE",
"-347 873 OFFCURVE",
"-298 823 OFFCURVE",
"-287 779 CURVE",
"-278 853 LINE",
"-276 903 OFFCURVE",
"-346 987 OFFCURVE",
"-381 987 CURVE"
);
},
{
closed = 1;
nodes = (
"-257 1225 LINE",
"-257 1225 OFFCURVE",
"-287 860 OFFCURVE",
"-304 740 CURVE SMOOTH",
"-309 704 OFFCURVE",
"-319 663 OFFCURVE",
"-293 663 CURVE SMOOTH",
"-247 663 OFFCURVE",
"-182 791 OFFCURVE",
"-178 858 CURVE SMOOTH",
"-167 1045 OFFCURVE",
"-144 1222 OFFCURVE",
"-144 1222 CURVE"
);
},
{
closed = 1;
nodes = (
"-868 1290 LINE",
"-897 1290 OFFCURVE",
"-910 1293 OFFCURVE",
"-917 1271 CURVE SMOOTH",
"-933 1218 LINE SMOOTH",
"-938 1203 OFFCURVE",
"-931 1196 OFFCURVE",
"-912 1196 CURVE SMOOTH",
"-90 1196 LINE",
"-61 1196 OFFCURVE",
"-48 1193 OFFCURVE",
"-41 1215 CURVE SMOOTH",
"-24 1268 LINE SMOOTH",
"-19 1283 OFFCURVE",
"-26 1290 OFFCURVE",
"-45 1290 CURVE SMOOTH"
);
},
{
closed = 1;
nodes = (
"-487 538 OFFCURVE",
"-510 361 OFFCURVE",
"-521 174 CURVE SMOOTH",
"-525 107 OFFCURVE",
"-587 -21 OFFCURVE",
"-628 -21 CURVE SMOOTH",
"-659 -21 OFFCURVE",
"-654 14 OFFCURVE",
"-648 56 CURVE SMOOTH",
"-634 162 OFFCURVE",
"-600 541 OFFCURVE",
"-600 541 CURVE",
"-487 538 LINE"
);
},
{
closed = 1;
nodes = (
"-155 606 OFFCURVE",
"-148 599 OFFCURVE",
"-153 584 CURVE SMOOTH",
"-170 531 LINE SMOOTH",
"-177 509 OFFCURVE",
"-190 512 OFFCURVE",
"-219 512 CURVE",
"-653 512 LINE SMOOTH",
"-672 512 OFFCURVE",
"-679 519 OFFCURVE",
"-674 534 CURVE SMOOTH",
"-658 587 LINE SMOOTH",
"-651 609 OFFCURVE",
"-638 606 OFFCURVE",
"-609 606 CURVE",
"-174 606 LINE SMOOTH"
);
},
{
closed = 1;
nodes = (
"-940 512 OFFCURVE",
"-945 514 OFFCURVE",
"-945 521 CURVE SMOOTH",
"-945 546 OFFCURVE",
"-859 608 OFFCURVE",
"-822 608 CURVE SMOOTH",
"-780 608 OFFCURVE",
"-721 547 OFFCURVE",
"-721 487 CURVE SMOOTH",
"-721 419 OFFCURVE",
"-797 366 OFFCURVE",
"-829 351 CURVE",
"-779 331 OFFCURVE",
"-737 277 OFFCURVE",
"-737 211 CURVE SMOOTH",
"-737 121 OFFCURVE",
"-824 27 OFFCURVE",
"-987 27 CURVE SMOOTH",
"-1108 27 OFFCURVE",
"-1195 97 OFFCURVE",
"-1195 183 CURVE SMOOTH",
"-1195 267 OFFCURVE",
"-1094 337 OFFCURVE",
"-1067 337 CURVE SMOOTH",
"-1038 337 OFFCURVE",
"-1088 278 OFFCURVE",
"-1088 199 CURVE SMOOTH",
"-1088 149 OFFCURVE",
"-1069 110 OFFCURVE",
"-996 110 CURVE SMOOTH",
"-916 110 OFFCURVE",
"-857 146 OFFCURVE",
"-857 226 CURVE SMOOTH",
"-857 248 OFFCURVE",
"-860 299 OFFCURVE",
"-907 299 CURVE SMOOTH",
"-929 299 OFFCURVE",
"-943 295 OFFCURVE",
"-960 295 CURVE SMOOTH",
"-972 295 OFFCURVE",
"-975 303 OFFCURVE",
"-975 320 CURVE SMOOTH",
"-975 373 OFFCURVE",
"-966 379 OFFCURVE",
"-944 379 CURVE SMOOTH",
"-882 379 OFFCURVE",
"-834 384 OFFCURVE",
"-834 440 CURVE SMOOTH",
"-834 477 OFFCURVE",
"-842 525 OFFCURVE",
"-868 525 CURVE SMOOTH",
"-882 525 OFFCURVE",
"-919 512 OFFCURVE",
"-933 512 CURVE SMOOTH"
);
},
{
closed = 1;
nodes = (
"-252 538 OFFCURVE",
"-275 361 OFFCURVE",
"-286 174 CURVE SMOOTH",
"-290 107 OFFCURVE",
"-352 -21 OFFCURVE",
"-393 -21 CURVE SMOOTH",
"-424 -21 OFFCURVE",
"-419 14 OFFCURVE",
"-413 56 CURVE SMOOTH",
"-399 162 OFFCURVE",
"-365 541 OFFCURVE",
"-365 541 CURVE",
"-252 538 LINE"
);
},
{
closed = 1;
nodes = (
"-790 393 LINE",
"-749 367 OFFCURVE",
"-676 345 OFFCURVE",
"-610 375 CURVE",
"-620 267 LINE",
"-719 270 OFFCURVE",
"-782 313 OFFCURVE",
"-829 351 CURVE"
);
},
{
closed = 1;
nodes = (
"381 475 OFFCURVE",
"350 475 OFFCURVE",
"338 475 CURVE",
"332 475 OFFCURVE",
"327 473 OFFCURVE",
"326 463 CURVE SMOOTH",
"321 411 OFFCURVE",
"304 235 OFFCURVE",
"294 98 CURVE SMOOTH",
"289 28 OFFCURVE",
"279 -2 OFFCURVE",
"305 -2 CURVE SMOOTH",
"329 -2 OFFCURVE",
"400 51 OFFCURVE",
"407 134 CURVE SMOOTH",
"419 282 OFFCURVE",
"431 411 OFFCURVE",
"437 464 CURVE SMOOTH",
"438 473 OFFCURVE",
"434 475 OFFCURVE",
"427 475 CURVE"
);
},
{
closed = 1;
nodes = (
"327 485 OFFCURVE",
"424 414 OFFCURVE",
"415 332 CURVE SMOOTH",
"392 112 LINE SMOOTH",
"391 102 OFFCURVE",
"394 93 OFFCURVE",
"407 93 CURVE SMOOTH",
"467 93 LINE SMOOTH",
"477 93 OFFCURVE",
"489 91 OFFCURVE",
"482 71 CURVE SMOOTH",
"479 61 OFFCURVE",
"469 30 OFFCURVE",
"465 18 CURVE SMOOTH",
"460 4 OFFCURVE",
"454 -1 OFFCURVE",
"440 -1 CURVE SMOOTH",
"401 -1 OFFCURVE",
"330 20 OFFCURVE",
"314 84 CURVE",
"293 124 LINE",
"308 268 OFFCURVE",
"311 308 OFFCURVE",
"317 377 CURVE SMOOTH",
"321 420 OFFCURVE",
"279 426 OFFCURVE",
"271 426 CURVE SMOOTH",
"209 426 OFFCURVE",
"123 345 OFFCURVE",
"97 345 CURVE SMOOTH",
"88 345 OFFCURVE",
"85 350 OFFCURVE",
"85 358 CURVE SMOOTH",
"85 376 OFFCURVE",
"90 408 OFFCURVE",
"99 428 CURVE SMOOTH",
"118 471 OFFCURVE",
"179 485 OFFCURVE",
"228 485 CURVE SMOOTH"
);
}
);
};
layerId = "96DC1021-6EB0-4FBD-9745-F4D01918C460";
name = "Apr 5 21, 11:21";
paths = (
{
closed = 1;
nodes = (
"28 64 OFFCURVE",
"75 -16 OFFCURVE",
"157 -16 CURVE SMOOTH",
"215 -16 OFFCURVE",
"256 23 OFFCURVE",
"297 70 CURVE SMOOTH",
"377 162 LINE",
"379 366 LINE",
"358 192 OFFCURVE",
"259 64 OFFCURVE",
"199 64 CURVE SMOOTH",
"162 64 OFFCURVE",
"133 114 OFFCURVE",
"133 192 CURVE SMOOTH",
"133 309 OFFCURVE",
"181 440 OFFCURVE",
"271 440 CURVE SMOOTH",
"308 440 OFFCURVE",
"349 414 OFFCURVE",
"381 388 CURVE",
"357 201 LINE",
"358 185 LINE",
"351 127 LINE SMOOTH",
"346 87 OFFCURVE",
"339 50 OFFCURVE",
"339 31 CURVE SMOOTH",
"339 8 OFFCURVE",
"348 -16 OFFCURVE",
"366 -16 CURVE SMOOTH",
"392 -16 OFFCURVE",
"448 24 OFFCURVE",
"448 58 CURVE SMOOTH",
"448 80 OFFCURVE",
"440 94 OFFCURVE",
"445 128 CURVE SMOOTH",
"479 376 LINE SMOOTH",
"488 439 OFFCURVE",
"484 444 OFFCURVE",
"436 460 CURVE SMOOTH",
"415 467 OFFCURVE",
"351 490 OFFCURVE",
"285 490 CURVE SMOOTH",
"145 490 OFFCURVE",
"28 345 OFFCURVE",
"28 173 CURVE SMOOTH"
);
}
);
width = 545;
}
);
leftMetricsKey = d;
unicode = 0061;
},
{
glyphname = b;
lastChange = "2021-04-05 14:04:14 +0000";
layers = (
{
background = {
paths = (
{
closed = 1;
nodes = (
"139 707 OFFCURVE",
"124 707 OFFCURVE",
"112 707 CURVE",
"104 707 OFFCURVE",
"93 705 OFFCURVE",
"92 687 CURVE SMOOTH",
"88 635 OFFCURVE",
"52 235 OFFCURVE",
"39 98 CURVE SMOOTH",
"32 28 OFFCURVE",
"24 -2 OFFCURVE",
"50 -2 CURVE SMOOTH",
"74 -2 OFFCURVE",
"136 48 OFFCURVE",
"143 131 CURVE SMOOTH",
"155 279 OFFCURVE",
"195 634 OFFCURVE",
"201 687 CURVE SMOOTH",
"203 705 OFFCURVE",
"194 707 OFFCURVE",
"185 707 CURVE"
);
},
{
closed = 1;
nodes = (
"458 136 OFFCURVE",
"348 -9 OFFCURVE",
"200 -6 CURVE SMOOTH",
"92 -5 OFFCURVE",
"39 56 OFFCURVE",
"39 98 CURVE SMOOTH",
"39 262 OFFCURVE",
"147 492 OFFCURVE",
"307 492 CURVE SMOOTH",
"424 492 OFFCURVE",
"468 403 OFFCURVE",
"464 287 CURVE SMOOTH"
);
},
{
closed = 1;
nodes = (
"333 62 OFFCURVE",
"352 223 OFFCURVE",
"352 320 CURVE SMOOTH",
"352 385 OFFCURVE",
"316 431 OFFCURVE",
"241 431 CURVE SMOOTH",
"177 431 OFFCURVE",
"146 274 OFFCURVE",
"146 173 CURVE SMOOTH",
"146 91 OFFCURVE",
"215 62 OFFCURVE",
"266 62 CURVE SMOOTH"
);
}
);
};
hints = (
{
origin = "{0, 12}";
type = Corner;
name = _corner.serif;
}
);
layerId = "B0B60A8F-2DEB-4A58-A43B-60A0DADABD8F";
paths = (
{
closed = 1;
nodes = (
"39 20 OFFCURVE",
"102 -16 OFFCURVE",
"225 -16 CURVE",
"154 34 LINE",
"158 225 LINE",
"202 490 LINE SMOOTH",
"214 561 OFFCURVE",
"221 604 OFFCURVE",
"221 633 CURVE SMOOTH",
"221 661 OFFCURVE",
"205 696 OFFCURVE",
"182 696 CURVE SMOOTH",
"112 696 LINE",
"44 68 LINE SMOOTH"
);
},
{
closed = 1;
nodes = (
"326 490 OFFCURVE",
"227 407 OFFCURVE",
"115 166 CURVE",
"145 77 LINE",
"243 313 OFFCURVE",
"335 392 OFFCURVE",
"360 392 CURVE SMOOTH",
"385 392 OFFCURVE",
"396 351 OFFCURVE",
"396 274 CURVE SMOOTH",
"396 149 OFFCURVE",
"348 59 OFFCURVE",
"280 59 CURVE SMOOTH",
"244 59 OFFCURVE",
"196 69 OFFCURVE",
"142 105 CURVE",
"81 24 LINE",
"133 3 OFFCURVE",
"208 -16 OFFCURVE",
"225 -16 CURVE SMOOTH",
"401 -16 OFFCURVE",
"509 123 OFFCURVE",
"509 317 CURVE SMOOTH",
"509 422 OFFCURVE",
"480 490 OFFCURVE",
"405 490 CURVE SMOOTH"
);
}
);
width = 538;
}
);
leftMetricsKey = l;
rightMetricsKey = "=|d";
unicode = 0062;
},
{
glyphname = c;
lastChange = "2021-04-05 13:53:42 +0000";
layers = (
{
background = {
paths = (
{
closed = 1;
nodes = (
"178 492 OFFCURVE",
"6 323 OFFCURVE",
"6 148 CURVE SMOOTH",
"6 43 OFFCURVE",
"105 -4 OFFCURVE",
"197 -4 CURVE SMOOTH",
"272 -4 OFFCURVE",
"385 41 OFFCURVE",
"385 134 CURVE SMOOTH",
"385 158 OFFCURVE",
"367 190 OFFCURVE",
"349 190 CURVE SMOOTH",
"326 190 OFFCURVE",
"290 46 OFFCURVE",
"207 46 CURVE SMOOTH",
"163 46 OFFCURVE",
"109 94 OFFCURVE",
"109 129 CURVE SMOOTH",
"109 167 OFFCURVE",
"190 452 OFFCURVE",
"290 452 CURVE SMOOTH",
"314 452 OFFCURVE",
"328 419 OFFCURVE",
"328 408 CURVE SMOOTH",
"328 385 OFFCURVE",
"273 267 OFFCURVE",
"122 267 CURVE",
"119 224 LINE",
"196 241 OFFCURVE",
"272 252 OFFCURVE",
"337 264 CURVE SMOOTH",
"375 271 OFFCURVE",
"412 345 OFFCURVE",
"412 383 CURVE SMOOTH",
"412 437 OFFCURVE",
"367 492 OFFCURVE",
"295 492 CURVE SMOOTH"
);
},
{
closed = 0;
nodes = (
"203 331 LINE SMOOTH",
"203 382 OFFCURVE",
"246 452 OFFCURVE",
"273 452 CURVE SMOOTH",
"293 452 OFFCURVE",
"321 439 OFFCURVE",
"321 417 CURVE SMOOTH",
"321 389 OFFCURVE",
"305 358 OFFCURVE",
"305 343 CURVE SMOOTH",
"305 335 OFFCURVE",
"311 333 OFFCURVE",
"318 333 CURVE SMOOTH",
"332 333 OFFCURVE",
"364 333 OFFCURVE",
"381 333 CURVE SMOOTH",
"403 333 OFFCURVE",
"409 362 OFFCURVE",
"409 393 CURVE SMOOTH",
"409 450 OFFCURVE",
"351 492 OFFCURVE",
"281 492 CURVE SMOOTH",
"147 492 OFFCURVE",
"85 374 OFFCURVE",
"85 320 CURVE SMOOTH"
);
}
);
};
layerId = "B0B60A8F-2DEB-4A58-A43B-60A0DADABD8F";
paths = (
{
closed = 1;
nodes = (
"24 56 OFFCURVE",
"74 -16 OFFCURVE",
"178 -16 CURVE SMOOTH",
"273 -16 OFFCURVE",
"361 68 OFFCURVE",
"361 117 CURVE SMOOTH",
"361 123 OFFCURVE",
"357 130 OFFCURVE",
"350 130 CURVE SMOOTH",
"344 130 OFFCURVE",
"339 128 OFFCURVE",
"327 121 CURVE SMOOTH",
"294 103 OFFCURVE",
"267 83 OFFCURVE",
"224 83 CURVE SMOOTH",
"161 83 OFFCURVE",
"139 119 OFFCURVE",
"139 206 CURVE SMOOTH",
"139 318 OFFCURVE",
"185 416 OFFCURVE",
"247 416 CURVE SMOOTH",
"287 416 OFFCURVE",
"331 375 OFFCURVE",
"350 358 CURVE SMOOTH",
"356 352 OFFCURVE",
"363 349 OFFCURVE",
"369 349 CURVE SMOOTH",
"385 349 OFFCURVE",
"403 383 OFFCURVE",
"403 434 CURVE SMOOTH",
"403 480 OFFCURVE",
"353 491 OFFCURVE",
"297 491 CURVE SMOOTH",
"139 491 OFFCURVE",
"24 354 OFFCURVE",
"24 156 CURVE SMOOTH"
);
}
);
width = 394;
}
);
leftMetricsKey = o;
unicode = 0063;
},
{
glyphname = d;
lastChange = "2021-04-05 14:04:11 +0000";
layers = (
{
background = {
paths = (
{
closed = 1;
nodes = (
"478 707 OFFCURVE",
"463 707 OFFCURVE",
"451 707 CURVE",
"443 707 OFFCURVE",
"433 705 OFFCURVE",
"431 687 CURVE SMOOTH",
"425 635 OFFCURVE",
"388 235 OFFCURVE",
"378 98 CURVE SMOOTH",
"373 28 OFFCURVE",
"363 -2 OFFCURVE",
"389 -2 CURVE SMOOTH",
"413 -2 OFFCURVE",
"475 48 OFFCURVE",
"482 131 CURVE SMOOTH",
"494 279 OFFCURVE",
"534 634 OFFCURVE",
"540 687 CURVE SMOOTH",
"542 705 OFFCURVE",
"533 707 OFFCURVE",
"524 707 CURVE"
);
},
{
closed = 1;
nodes = (
"470 707 OFFCURVE",
"448 707 OFFCURVE",
"438 707 CURVE",
"430 707 OFFCURVE",
"420 705 OFFCURVE",
"418 687 CURVE SMOOTH",
"414 643 OFFCURVE",
"379 235 OFFCURVE",
"367 124 CURVE",
"379 87 LINE",
"401 25 OFFCURVE",
"492 -1 OFFCURVE",
"517 -1 CURVE SMOOTH",
"528 -1 OFFCURVE",
"534 4 OFFCURVE",
"539 18 CURVE SMOOTH",
"543 30 OFFCURVE",
"553 61 OFFCURVE",
"556 71 CURVE SMOOTH",
"563 91 OFFCURVE",
"552 93 OFFCURVE",
"543 93 CURVE SMOOTH",
"531 93 OFFCURVE",
"491 93 OFFCURVE",
"485 93 CURVE SMOOTH",
"472 93 OFFCURVE",
"469 101 OFFCURVE",
"470 112 CURVE SMOOTH",
"484 283 OFFCURVE",
"523 643 OFFCURVE",
"528 687 CURVE SMOOTH",
"530 705 OFFCURVE",
"521 707 OFFCURVE",
"512 707 CURVE"
);
}
);
};
guideLines = (
{
angle = 84;
position = "{413, 620}";
}
);
hints = (
{
origin = "{0, 7}";
type = Corner;
name = _corner.serif;
},
{
origin = "{0, 18}";
type = Corner;
name = _corner.serif;
}
);
layerId = "B0B60A8F-2DEB-4A58-A43B-60A0DADABD8F";
rightMetricsKey = "=l";
paths = (
{
closed = 1;
nodes = (
"385 204 LINE SMOOTH",
"368 139 OFFCURVE",
"359 93 OFFCURVE",
"359 60 CURVE SMOOTH",
"359 29 OFFCURVE",
"371 -16 OFFCURVE",
"394 -16 CURVE SMOOTH",
"464 -16 LINE",
"465 65 OFFCURVE",
"476 177 OFFCURVE",
"487 273 CURVE SMOOTH",
"510 475 LINE SMOOTH",
"520 561 OFFCURVE",
"526 609 OFFCURVE",
"526 629 CURVE SMOOTH",
"526 660 OFFCURVE",
"515 696 OFFCURVE",
"484 696 CURVE SMOOTH",
"414 696 LINE",
"398 433 LINE",
"391 416 LINE",
"380 311 LINE",
"405 279 LINE"
);
},
{
closed = 1;
nodes = (
"218 -16 OFFCURVE",
"318 67 OFFCURVE",
"424 308 CURVE",
"399 397 LINE",
"301 161 OFFCURVE",
"209 82 OFFCURVE",
"178 82 CURVE SMOOTH",
"153 82 OFFCURVE",
"142 123 OFFCURVE",
"142 200 CURVE SMOOTH",
"142 325 OFFCURVE",
"190 415 OFFCURVE",
"248 415 CURVE SMOOTH",
"274 415 OFFCURVE",
"342 393 OFFCURVE",
"396 357 CURVE",
"428 455 LINE",
"395 471 OFFCURVE",
"346 490 OFFCURVE",
"299 490 CURVE SMOOTH",
"147 490 OFFCURVE",
"29 351 OFFCURVE",
"29 157 CURVE SMOOTH",
"29 44 OFFCURVE",
"58 -16 OFFCURVE",
"130 -16 CURVE SMOOTH"
);
}
);
width = 552;
},
{
associatedMasterId = "B0B60A8F-2DEB-4A58-A43B-60A0DADABD8F";
background = {
paths = (
{
closed = 1;
nodes = (
"447 707 OFFCURVE",
"432 707 OFFCURVE",
"420 707 CURVE",
"412 707 OFFCURVE",
"402 705 OFFCURVE",
"400 687 CURVE SMOOTH",
"394 635 OFFCURVE",
"357 235 OFFCURVE",
"347 98 CURVE SMOOTH",
"342 28 OFFCURVE",
"332 -2 OFFCURVE",
"358 -2 CURVE SMOOTH",
"382 -2 OFFCURVE",
"444 48 OFFCURVE",
"451 131 CURVE SMOOTH",
"463 279 OFFCURVE",
"503 634 OFFCURVE",
"509 687 CURVE SMOOTH",
"511 705 OFFCURVE",
"502 707 OFFCURVE",
"493 707 CURVE"
);
},
{
closed = 1;
nodes = (
"439 707 OFFCURVE",
"417 707 OFFCURVE",
"407 707 CURVE",
"399 707 OFFCURVE",
"389 705 OFFCURVE",
"387 687 CURVE SMOOTH",
"383 643 OFFCURVE",
"348 235 OFFCURVE",
"336 124 CURVE",
"348 87 LINE",
"370 25 OFFCURVE",
"461 -1 OFFCURVE",
"486 -1 CURVE SMOOTH",
"497 -1 OFFCURVE",
"503 4 OFFCURVE",
"508 18 CURVE SMOOTH",
"512 30 OFFCURVE",
"522 61 OFFCURVE",
"525 71 CURVE SMOOTH",
"532 91 OFFCURVE",
"521 93 OFFCURVE",
"512 93 CURVE SMOOTH",
"500 93 OFFCURVE",
"460 93 OFFCURVE",
"454 93 CURVE SMOOTH",
"441 93 OFFCURVE",
"438 101 OFFCURVE",
"439 112 CURVE SMOOTH",
"453 283 OFFCURVE",
"492 643 OFFCURVE",
"497 687 CURVE SMOOTH",
"499 705 OFFCURVE",
"490 707 OFFCURVE",
"481 707 CURVE"
);
}
);
};
layerId = "83499B79-C9B5-49D3-B342-E77AD9BBE674";
name = "Mar 2 21, 10:52";
paths = (
{
closed = 1;
nodes = (
"439 707 OFFCURVE",
"417 707 OFFCURVE",
"407 707 CURVE",
"399 707 OFFCURVE",
"389 705 OFFCURVE",
"387 687 CURVE SMOOTH",
"383 643 OFFCURVE",
"348 235 OFFCURVE",
"336 124 CURVE",
"348 87 LINE",
"353 87 LINE",
"353 35 OFFCURVE",
"450 -1 OFFCURVE",
"486 -1 CURVE SMOOTH",
"497 -1 OFFCURVE",
"503 4 OFFCURVE",
"508 18 CURVE SMOOTH",
"512 30 OFFCURVE",
"522 61 OFFCURVE",
"525 71 CURVE SMOOTH",
"532 91 OFFCURVE",
"521 93 OFFCURVE",
"512 93 CURVE SMOOTH",
"500 93 OFFCURVE",
"460 93 OFFCURVE",
"454 93 CURVE SMOOTH",
"441 93 OFFCURVE",
"438 101 OFFCURVE",
"439 112 CURVE SMOOTH",
"453 283 OFFCURVE",
"492 643 OFFCURVE",
"497 687 CURVE SMOOTH",
"499 705 OFFCURVE",
"490 707 OFFCURVE",
"481 707 CURVE"
);
},
{
closed = 1;
nodes = (
"337 480 OFFCURVE",
"311 479 OFFCURVE",
"271 475 CURVE SMOOTH",
"187 466 OFFCURVE",
"20 376 OFFCURVE",
"20 154 CURVE SMOOTH",
"20 35 OFFCURVE",
"135 -6 OFFCURVE",
"203 -6 CURVE SMOOTH",
"277 -6 OFFCURVE",
"331 58 OFFCURVE",
"348 87 CURVE",
"349 258 LINE",
"339 172 OFFCURVE",
"285 56 OFFCURVE",
"238 56 CURVE SMOOTH",
"197 56 OFFCURVE",
"135 103 OFFCURVE",
"135 144 CURVE SMOOTH",
"135 233 OFFCURVE",
"184 423 OFFCURVE",
"270 423 CURVE SMOOTH",
"307 423 OFFCURVE",
"344 395 OFFCURVE",
"367 379 CURVE",
"377 481 LINE"
);
}
);
width = 547;
},
{
associatedMasterId = "B0B60A8F-2DEB-4A58-A43B-60A0DADABD8F";
background = {
paths = (
{
closed = 1;
nodes = (
"460 707 OFFCURVE",
"445 707 OFFCURVE",
"433 707 CURVE",
"425 707 OFFCURVE",
"415 705 OFFCURVE",
"413 687 CURVE SMOOTH",
"407 635 OFFCURVE",
"370 235 OFFCURVE",
"360 98 CURVE SMOOTH",
"355 28 OFFCURVE",
"345 -2 OFFCURVE",
"371 -2 CURVE SMOOTH",
"395 -2 OFFCURVE",
"457 48 OFFCURVE",
"464 131 CURVE SMOOTH",
"476 279 OFFCURVE",
"516 634 OFFCURVE",
"522 687 CURVE SMOOTH",
"524 705 OFFCURVE",
"515 707 OFFCURVE",
"506 707 CURVE"
);
},
{
closed = 1;
nodes = (
"452 707 OFFCURVE",
"430 707 OFFCURVE",
"420 707 CURVE",
"412 707 OFFCURVE",
"402 705 OFFCURVE",
"400 687 CURVE SMOOTH",
"396 643 OFFCURVE",
"361 235 OFFCURVE",
"349 124 CURVE",
"361 87 LINE",
"383 25 OFFCURVE",
"474 -1 OFFCURVE",
"499 -1 CURVE SMOOTH",
"510 -1 OFFCURVE",
"516 4 OFFCURVE",
"521 18 CURVE SMOOTH",
"525 30 OFFCURVE",
"535 61 OFFCURVE",
"538 71 CURVE SMOOTH",
"545 91 OFFCURVE",
"534 93 OFFCURVE",
"525 93 CURVE SMOOTH",
"513 93 OFFCURVE",
"473 93 OFFCURVE",
"467 93 CURVE SMOOTH",
"454 93 OFFCURVE",
"451 101 OFFCURVE",
"452 112 CURVE SMOOTH",
"466 283 OFFCURVE",
"505 643 OFFCURVE",
"510 687 CURVE SMOOTH",
"512 705 OFFCURVE",
"503 707 OFFCURVE",
"494 707 CURVE"
);
}
);
};
layerId = "6B6006BD-78AB-48A3-96CC-999BB12D5C88";
leftMetricsKey = "=o";
rightMetricsKey = "=l";
name = "Mar 2 21, 11:15";
paths = (
{
closed = 1;
nodes = (
"328 -1 OFFCURVE",
"337 -9 OFFCURVE",
"355 -9 CURVE SMOOTH",
"375 -9 OFFCURVE",
"437 25 OFFCURVE",
"438 61 CURVE SMOOTH",
"439 81 OFFCURVE",
"429 98 OFFCURVE",
"436 147 CURVE SMOOTH",
"505 651 LINE SMOOTH",
"509 678 OFFCURVE",
"501 680 OFFCURVE",
"489 680 CURVE SMOOTH",
"420 680 LINE SMOOTH",
"412 680 OFFCURVE",
"402 678 OFFCURVE",
"399 656 CURVE SMOOTH",
"327 84 LINE",
"328 74 LINE",
"328 17 LINE SMOOTH"
);
},
{
closed = 1;
nodes = (
"216 -16 OFFCURVE",
"234 -4 OFFCURVE",
"270 21 CURVE SMOOTH",
"393 105 LINE",
"363 366 LINE",
"331 104 OFFCURVE",
"283 64 OFFCURVE",
"240 64 CURVE SMOOTH",
"165 64 OFFCURVE",
"137 132 OFFCURVE",
"137 212 CURVE SMOOTH",
"137 359 OFFCURVE",
"203 440 OFFCURVE",
"276 440 CURVE SMOOTH",
"316 440 OFFCURVE",
"348 408 OFFCURVE",
"371 368 CURVE",
"405 453 LINE",
"360 484 OFFCURVE",
"325 490 OFFCURVE",
"280 490 CURVE SMOOTH",
"157 490 OFFCURVE",
"32 361 OFFCURVE",
"32 193 CURVE SMOOTH",
"32 71 OFFCURVE",
"86 -16 OFFCURVE",
"184 -16 CURVE SMOOTH"
);
}
);
width = 528;
},
{
associatedMasterId = "B0B60A8F-2DEB-4A58-A43B-60A0DADABD8F";
background = {
paths = (
{
closed = 1;
nodes = (
"483 707 OFFCURVE",
"468 707 OFFCURVE",
"456 707 CURVE",
"448 707 OFFCURVE",
"438 705 OFFCURVE",
"436 687 CURVE SMOOTH",
"430 635 OFFCURVE",
"393 235 OFFCURVE",
"383 98 CURVE SMOOTH",
"378 28 OFFCURVE",
"368 -2 OFFCURVE",
"394 -2 CURVE SMOOTH",
"418 -2 OFFCURVE",
"480 48 OFFCURVE",
"487 131 CURVE SMOOTH",
"499 279 OFFCURVE",
"539 634 OFFCURVE",
"545 687 CURVE SMOOTH",
"547 705 OFFCURVE",
"538 707 OFFCURVE",
"529 707 CURVE"
);
},
{
closed = 1;
nodes = (
"475 707 OFFCURVE",
"453 707 OFFCURVE",
"443 707 CURVE",
"435 707 OFFCURVE",
"425 705 OFFCURVE",
"423 687 CURVE SMOOTH",
"419 643 OFFCURVE",
"384 235 OFFCURVE",
"372 124 CURVE",
"384 87 LINE",
"406 25 OFFCURVE",
"497 -1 OFFCURVE",
"522 -1 CURVE SMOOTH",
"533 -1 OFFCURVE",
"539 4 OFFCURVE",
"544 18 CURVE SMOOTH",
"548 30 OFFCURVE",
"558 61 OFFCURVE",
"561 71 CURVE SMOOTH",
"568 91 OFFCURVE",
"557 93 OFFCURVE",
"548 93 CURVE SMOOTH",
"536 93 OFFCURVE",
"496 93 OFFCURVE",
"490 93 CURVE SMOOTH",
"477 93 OFFCURVE",
"474 101 OFFCURVE",
"475 112 CURVE SMOOTH",
"489 283 OFFCURVE",
"528 643 OFFCURVE",
"533 687 CURVE SMOOTH",
"535 705 OFFCURVE",
"526 707 OFFCURVE",
"517 707 CURVE"
);
}
);
};
layerId = "D3D5BFF1-0E64-479C-9050-0DC2C85545DE";
leftMetricsKey = "=o";
rightMetricsKey = "=l";
name = "Apr 5 21, 09:42";
paths = (
{
closed = 1;
nodes = (
"224 -16 OFFCURVE",
"264 23 OFFCURVE",
"350 197 CURVE SMOOTH",
"413 324 LINE",
"404 378 LINE",
"237 110 LINE SMOOTH",
"213 72 OFFCURVE",
"198 64 OFFCURVE",
"185 64 CURVE SMOOTH",
"150 64 OFFCURVE",
"128 124 OFFCURVE",
"128 192 CURVE SMOOTH",
"128 309 OFFCURVE",
"186 440 OFFCURVE",
"283 440 CURVE SMOOTH",
"341 440 OFFCURVE",
"404 378 OFFCURVE",
"437 348 CURVE",
"428 465 LINE",
"393 479 OFFCURVE",
"368 490 OFFCURVE",
"297 490 CURVE SMOOTH",
"150 490 OFFCURVE",
"23 345 OFFCURVE",
"23 173 CURVE SMOOTH",
"23 74 OFFCURVE",
"49 -16 OFFCURVE",
"146 -16 CURVE SMOOTH"
);
},
{
closed = 1;
nodes = (
"346 8 OFFCURVE",
"355 -16 OFFCURVE",
"373 -16 CURVE SMOOTH",
"399 -16 OFFCURVE",
"455 24 OFFCURVE",
"455 58 CURVE SMOOTH",
"455 80 OFFCURVE",
"447 94 OFFCURVE",
"452 128 CURVE SMOOTH",
"512 551 LINE SMOOTH",
"516 581 OFFCURVE",
"522 600 OFFCURVE",
"522 627 CURVE SMOOTH",
"522 654 OFFCURVE",
"505 694 OFFCURVE",
"484 694 CURVE SMOOTH",
"460 694 OFFCURVE",
"400 654 OFFCURVE",
"400 620 CURVE SMOOTH",
"400 598 OFFCURVE",
"413 584 OFFCURVE",
"409 550 CURVE SMOOTH",
"378 311 LINE",
"379 295 LINE",
"358 127 LINE SMOOTH",
"353 87 OFFCURVE",
"346 50 OFFCURVE",
"346 31 CURVE SMOOTH"
);
}
);
width = 551;
},
{
associatedMasterId = "B0B60A8F-2DEB-4A58-A43B-60A0DADABD8F";
background = {
paths = (
{
closed = 1;
nodes = (
"492 707 OFFCURVE",
"477 707 OFFCURVE",
"465 707 CURVE",
"457 707 OFFCURVE",
"447 705 OFFCURVE",
"445 687 CURVE SMOOTH",
"439 635 OFFCURVE",
"402 235 OFFCURVE",
"392 98 CURVE SMOOTH",
"387 28 OFFCURVE",
"377 -2 OFFCURVE",
"403 -2 CURVE SMOOTH",
"427 -2 OFFCURVE",
"489 48 OFFCURVE",
"496 131 CURVE SMOOTH",
"508 279 OFFCURVE",
"548 634 OFFCURVE",
"554 687 CURVE SMOOTH",
"556 705 OFFCURVE",
"547 707 OFFCURVE",
"538 707 CURVE"
);
},
{
closed = 1;
nodes = (
"484 707 OFFCURVE",
"462 707 OFFCURVE",
"452 707 CURVE",
"444 707 OFFCURVE",
"434 705 OFFCURVE",
"432 687 CURVE SMOOTH",
"428 643 OFFCURVE",
"393 235 OFFCURVE",
"381 124 CURVE",
"393 87 LINE",
"415 25 OFFCURVE",
"506 -1 OFFCURVE",
"531 -1 CURVE SMOOTH",
"542 -1 OFFCURVE",
"548 4 OFFCURVE",
"553 18 CURVE SMOOTH",
"557 30 OFFCURVE",
"567 61 OFFCURVE",
"570 71 CURVE SMOOTH",
"577 91 OFFCURVE",
"566 93 OFFCURVE",
"557 93 CURVE SMOOTH",
"545 93 OFFCURVE",
"505 93 OFFCURVE",
"499 93 CURVE SMOOTH",
"486 93 OFFCURVE",
"483 101 OFFCURVE",
"484 112 CURVE SMOOTH",
"498 283 OFFCURVE",
"537 643 OFFCURVE",
"542 687 CURVE SMOOTH",
"544 705 OFFCURVE",
"535 707 OFFCURVE",
"526 707 CURVE"
);
}
);
};
guideLines = (
{
angle = 84;
position = "{427, 620}";
},
{
angle = 84;
position = "{537, 620}";
}
);
hints = (
{
origin = "{0, 8}";
type = Corner;
name = _corner.serif;
},
{
origin = "{0, 3}";
type = Corner;
name = _corner.serif;
}
);
layerId = "2F9EDE59-BE84-43ED-A695-1C9284A1F558";
leftMetricsKey = "=o";
rightMetricsKey = "=l";
name = "Apr 5 21, 10:51";
paths = (
{
closed = 1;
nodes = (
"357 -14 OFFCURVE",
"375 -16 OFFCURVE",
"407 -16 CURVE SMOOTH",
"468 -16 LINE",
"542 671 LINE SMOOTH",
"544 688 OFFCURVE",
"536 696 OFFCURVE",
"503 696 CURVE SMOOTH",
"435 696 LINE",
"394 311 LINE",
"406 295 LINE",
"361 9 LINE SMOOTH"
);
},
{
closed = 1;
nodes = (
"238 -16 OFFCURVE",
"300 47 OFFCURVE",
"367 181 CURVE SMOOTH",
"443 332 LINE",
"419 397 LINE",
"388 337 LINE SMOOTH",
"273 115 OFFCURVE",
"232 82 OFFCURVE",
"200 82 CURVE SMOOTH",
"169 82 OFFCURVE",
"154 123 OFFCURVE",
"154 220 CURVE SMOOTH",
"154 342 OFFCURVE",
"192 415 OFFCURVE",
"260 415 CURVE SMOOTH",
"306 415 OFFCURVE",
"364 383 OFFCURVE",
"418 347 CURVE",
"450 455 LINE",
"427 471 OFFCURVE",
"379 490 OFFCURVE",
"320 490 CURVE SMOOTH",
"170 490 OFFCURVE",
"41 351 OFFCURVE",
"41 157 CURVE SMOOTH",
"41 52 OFFCURVE",
"69 -16 OFFCURVE",
"154 -16 CURVE SMOOTH"
);
}
);
width = 572;
}
);
unicode = 0064;
},
{
glyphname = e;
lastChange = "2021-04-05 13:47:51 +0000";
layers = (
{
layerId = "B0B60A8F-2DEB-4A58-A43B-60A0DADABD8F";
leftMetricsKey = "=o";
paths = (
{
closed = 1;
nodes = (
"25 53 OFFCURVE",
"74 -16 OFFCURVE",
"179 -16 CURVE SMOOTH",
"299 -16 OFFCURVE",
"399 80 OFFCURVE",
"399 127 CURVE SMOOTH",
"399 133 OFFCURVE",
"395 140 OFFCURVE",
"388 140 CURVE SMOOTH",
"382 140 OFFCURVE",
"375 136 OFFCURVE",
"364 129 CURVE SMOOTH",
"330 108 OFFCURVE",
"280 82 OFFCURVE",
"226 82 CURVE SMOOTH",
"162 82 OFFCURVE",
"139 119 OFFCURVE",
"139 206 CURVE SMOOTH",
"139 318 OFFCURVE",
"180 416 OFFCURVE",
"251 416 CURVE SMOOTH",
"292 416 OFFCURVE",
"311 384 OFFCURVE",
"311 351 CURVE SMOOTH",
"311 280 OFFCURVE",
"222 237 OFFCURVE",
"113 224 CURVE",
"126 164 LINE",
"320 204 OFFCURVE",
"426 268 OFFCURVE",
"426 376 CURVE SMOOTH",
"426 444 OFFCURVE",
"383 491 OFFCURVE",
"298 491 CURVE SMOOTH",
"154 491 OFFCURVE",
"25 354 OFFCURVE",
"25 166 CURVE SMOOTH"
);
}
);
width = 442;
},
{
associatedMasterId = "B0B60A8F-2DEB-4A58-A43B-60A0DADABD8F";
layerId = "D7640A78-23D6-4EAC-AFF4-FE70A02DFEE8";
name = "Mar 2 21, 10:43";
paths = (
{
closed = 1;
nodes = (
"197 492 OFFCURVE",
"25 323 OFFCURVE",
"25 148 CURVE SMOOTH",
"25 43 OFFCURVE",
"124 -4 OFFCURVE",
"216 -4 CURVE SMOOTH",
"291 -4 OFFCURVE",
"404 41 OFFCURVE",
"404 134 CURVE SMOOTH",
"404 158 OFFCURVE",
"386 190 OFFCURVE",
"368 190 CURVE SMOOTH",
"345 190 OFFCURVE",
"309 46 OFFCURVE",
"226 46 CURVE SMOOTH",
"182 46 OFFCURVE",
"128 94 OFFCURVE",
"128 129 CURVE SMOOTH",
"128 167 OFFCURVE",
"213 447 OFFCURVE",
"308 447 CURVE SMOOTH",
"332 447 OFFCURVE",
"347 421 OFFCURVE",
"347 405 CURVE SMOOTH",
"347 385 OFFCURVE",
"292 274 OFFCURVE",
"141 274 CURVE",
"138 224 LINE",
"215 241 OFFCURVE",
"291 252 OFFCURVE",
"356 264 CURVE SMOOTH",
"394 271 OFFCURVE",
"431 345 OFFCURVE",
"431 383 CURVE SMOOTH",
"431 437 OFFCURVE",
"386 492 OFFCURVE",
"314 492 CURVE SMOOTH"
);
}
);
width = 441;
},
{
associatedMasterId = "B0B60A8F-2DEB-4A58-A43B-60A0DADABD8F";
layerId = "5EC3B3CA-061F-4456-A43F-D0020D4DB31B";
name = "Mar 2 21, 11:00";
paths = (
{
closed = 1;
nodes = (
"269 288 OFFCURVE",
"316 330 OFFCURVE",
"316 366 CURVE SMOOTH",
"316 395 OFFCURVE",
"286 440 OFFCURVE",
"245 440 CURVE SMOOTH",
"188 440 OFFCURVE",
"124 359 OFFCURVE",
"124 212 CURVE SMOOTH",
"124 132 OFFCURVE",
"152 44 OFFCURVE",
"227 44 CURVE SMOOTH",
"317 44 OFFCURVE",
"325 190 OFFCURVE",
"358 190 CURVE SMOOTH",
"377 190 OFFCURVE",
"405 159 OFFCURVE",
"405 132 CURVE SMOOTH",
"405 76 OFFCURVE",
"317 -16 OFFCURVE",
"201 -16 CURVE SMOOTH",
"76 -16 OFFCURVE",
"19 71 OFFCURVE",
"19 193 CURVE SMOOTH",
"19 361 OFFCURVE",
"134 490 OFFCURVE",
"275 490 CURVE SMOOTH",
"358 490 OFFCURVE",
"417 441 OFFCURVE",
"417 390 CURVE SMOOTH",
"417 307 OFFCURVE",
"317 255 OFFCURVE",
"110 182 CURVE",
"98 225 LINE"
);
}
);
width = 441;
},
{
associatedMasterId = "B0B60A8F-2DEB-4A58-A43B-60A0DADABD8F";
layerId = "719E585B-9A5C-4C17-880E-64B8E1EF5070";
name = "Mar 2 21, 11:01";
paths = (
{
closed = 1;
nodes = (
"269 288 OFFCURVE",
"316 330 OFFCURVE",
"316 366 CURVE SMOOTH",
"316 395 OFFCURVE",
"286 440 OFFCURVE",
"245 440 CURVE SMOOTH",
"188 440 OFFCURVE",
"124 359 OFFCURVE",
"124 212 CURVE SMOOTH",
"124 132 OFFCURVE",
"152 74 OFFCURVE",
"247 74 CURVE",
"221 -16 LINE",
"76 -16 OFFCURVE",
"19 71 OFFCURVE",
"19 193 CURVE SMOOTH",
"19 361 OFFCURVE",
"134 490 OFFCURVE",
"275 490 CURVE SMOOTH",
"358 490 OFFCURVE",
"417 441 OFFCURVE",
"417 390 CURVE SMOOTH",
"417 307 OFFCURVE",
"317 255 OFFCURVE",
"110 182 CURVE",
"98 225 LINE"
);
},
{
closed = 1;
nodes = (
"405 159 OFFCURVE",
"377 190 OFFCURVE",
"358 190 CURVE SMOOTH",
"325 190 OFFCURVE",
"306 74 OFFCURVE",
"247 74 CURVE",
"221 -16 LINE",
"298 -16 OFFCURVE",
"405 56 OFFCURVE",
"405 132 CURVE"
);
}
);
width = 441;
},
{
associatedMasterId = "B0B60A8F-2DEB-4A58-A43B-60A0DADABD8F";
layerId = "BB9E4C05-8D1E-43FC-943D-D15990E39ED5";
leftMetricsKey = "=o";
name = "Apr 5 21, 11:15";
paths = (
{
closed = 1;
nodes = (
"344 -16 OFFCURVE",
"467 111 OFFCURVE",
"467 295 CURVE SMOOTH",
"467 420 OFFCURVE",
"419 491 OFFCURVE",
"298 491 CURVE SMOOTH",
"151 491 OFFCURVE",
"28 356 OFFCURVE",
"28 181 CURVE SMOOTH",
"28 48 OFFCURVE",
"77 -16 OFFCURVE",
"204 -16 CURVE SMOOTH"
);
},
{
closed = 1;
nodes = (
"177 59 OFFCURVE",
"141 108 OFFCURVE",
"141 205 CURVE SMOOTH",
"141 337 OFFCURVE",
"192 416 OFFCURVE",
"269 416 CURVE SMOOTH",
"323 416 OFFCURVE",
"354 368 OFFCURVE",
"354 272 CURVE SMOOTH",
"354 138 OFFCURVE",
"305 59 OFFCURVE",
"228 59 CURVE SMOOTH"
);
}
);
width = 450;
},
{
associatedMasterId = "B0B60A8F-2DEB-4A58-A43B-60A0DADABD8F";
layerId = "EA39982F-BDB9-4356-85D7-6A2CCE2681E7";
leftMetricsKey = "=o";
name = "Apr 5 21, 16:25";
paths = (
{
closed = 1;
nodes = (
"25 53 OFFCURVE",
"74 -16 OFFCURVE",
"182 -16 CURVE SMOOTH",
"299 -16 OFFCURVE",
"399 80 OFFCURVE",
"399 127 CURVE SMOOTH",
"399 133 OFFCURVE",
"395 140 OFFCURVE",
"388 140 CURVE SMOOTH",
"382 140 OFFCURVE",
"375 136 OFFCURVE",
"364 129 CURVE SMOOTH",
"330 108 OFFCURVE",
"280 82 OFFCURVE",
"225 82 CURVE SMOOTH",
"162 82 OFFCURVE",
"139 119 OFFCURVE",
"139 206 CURVE SMOOTH",
"139 318 OFFCURVE",
"191 416 OFFCURVE",
"268 416 CURVE SMOOTH",
"297 416 OFFCURVE",
"308 399 OFFCURVE",
"308 374 CURVE SMOOTH",
"308 301 OFFCURVE",
"225 257 OFFCURVE",
"113 224 CURVE",
"126 164 LINE",
"323 224 OFFCURVE",
"426 296 OFFCURVE",
"426 390 CURVE SMOOTH",
"426 469 OFFCURVE",
"371 491 OFFCURVE",
"298 491 CURVE SMOOTH",
"154 491 OFFCURVE",
"25 354 OFFCURVE",
"25 166 CURVE SMOOTH"
);
}
);
width = 461;
}
);
unicode = 0065;
},
{
glyphname = f;
lastChange = "2021-04-05 13:33:15 +0000";
layers = (
{
background = {
paths = (
{
closed = 0;
nodes = (
"249 682 LINE",
"275 682 OFFCURVE",
"302 645 OFFCURVE",
"302 624 CURVE SMOOTH",
"302 601 OFFCURVE",
"287 560 OFFCURVE",
"287 545 CURVE SMOOTH",
"287 537 OFFCURVE",
"294 535 OFFCURVE",
"301 535 CURVE SMOOTH",
"315 535 OFFCURVE",
"351 535 OFFCURVE",
"365 535 CURVE SMOOTH",
"390 535 OFFCURVE",
"398 566 OFFCURVE",
"398 595 CURVE SMOOTH",
"398 675 OFFCURVE",
"321 722 OFFCURVE",
"252 722 CURVE SMOOTH"
);
},
{
closed = 1;
nodes = (
"137 460 OFFCURVE",
"127 460 OFFCURVE",
"115 460 CURVE",
"107 460 OFFCURVE",
"96 458 OFFCURVE",
"95 440 CURVE SMOOTH",
"91 388 OFFCURVE",
"78 249 OFFCURVE",
"66 112 CURVE SMOOTH",
"65 101 OFFCURVE",
"64 93 OFFCURVE",
"51 93 CURVE SMOOTH",
"45 93 OFFCURVE",
"29 93 OFFCURVE",
"17 93 CURVE SMOOTH",
"8 93 OFFCURVE",
"-3 91 OFFCURVE",
"4 71 CURVE SMOOTH",
"7 61 OFFCURVE",
"17 30 OFFCURVE",
"21 18 CURVE SMOOTH",
"26 4 OFFCURVE",
"32 -1 OFFCURVE",
"43 -1 CURVE SMOOTH",
"85 -1 OFFCURVE",
"160 41 OFFCURVE",
"169 140 CURVE SMOOTH",
"178 234 OFFCURVE",
"193 387 OFFCURVE",
"199 440 CURVE SMOOTH",
"201 458 OFFCURVE",
"192 460 OFFCURVE",
"183 460 CURVE"
);
},
{
closed = 1;
nodes = (
"314 472 OFFCURVE",
"256 472 OFFCURVE",
"202 472 CURVE",
"182 493 LINE",
"114 493 LINE",
"25 401 LINE SMOOTH",
"9 384 OFFCURVE",
"20 369 OFFCURVE",
"34 372 CURVE SMOOTH",
"193 404 LINE",
"287 380 LINE",
"315 372 OFFCURVE",
"320 377 OFFCURVE",
"327 399 CURVE SMOOTH",
"343 450 LINE SMOOTH",
"348 465 OFFCURVE",
"341 472 OFFCURVE",
"322 472 CURVE SMOOTH"
);
}
);
};
layerId = "B0B60A8F-2DEB-4A58-A43B-60A0DADABD8F";
paths = (
{
closed = 1;
nodes = (
"325 405 LINE SMOOTH",
"334 405 OFFCURVE",
"337 410 OFFCURVE",
"340 419 CURVE SMOOTH",
"354 459 LINE SMOOTH",
"357 468 OFFCURVE",
"356 475 OFFCURVE",
"346 475 CURVE SMOOTH",
"52 475 LINE SMOOTH",
"44 475 OFFCURVE",
"42 470 OFFCURVE",
"39 462 CURVE SMOOTH",
"25 422 LINE SMOOTH",
"22 413 OFFCURVE",
"27 405 OFFCURVE",
"36 405 CURVE SMOOTH"
);
},
{
closed = 1;
nodes = (
"22 -159 OFFCURVE",
"23 -175 OFFCURVE",
"23 -188 CURVE SMOOTH",
"23 -207 OFFCURVE",
"28 -219 OFFCURVE",
"46 -219 CURVE SMOOTH",
"87 -219 OFFCURVE",
"149 -91 OFFCURVE",
"153 -24 CURVE SMOOTH",
"157 45 OFFCURVE",
"164 129 OFFCURVE",
"173 208 CURVE SMOOTH",
"207 499 LINE SMOOTH",
"216 572 OFFCURVE",
"238 621 OFFCURVE",
"282 621 CURVE SMOOTH",
"331 621 OFFCURVE",
"360 572 OFFCURVE",
"377 572 CURVE SMOOTH",
"396 572 OFFCURVE",
"409 604 OFFCURVE",
"409 638 CURVE SMOOTH",
"409 677 OFFCURVE",
"385 696 OFFCURVE",
"324 696 CURVE SMOOTH",
"228 696 OFFCURVE",
"110 625 OFFCURVE",
"93 471 CURVE SMOOTH",
"24 -142 LINE SMOOTH"
);
}
);
width = 338;
}
);
unicode = 0066;
},
{
glyphname = g;
lastChange = "2021-04-05 14:09:48 +0000";
layers = (
{
background = {
paths = (
{
closed = 1;
nodes = (
"429 244 OFFCURVE",
"350 152 OFFCURVE",
"234 152 CURVE SMOOTH",
"151 152 OFFCURVE",
"65 187 OFFCURVE",
"65 294 CURVE SMOOTH",
"65 379 OFFCURVE",
"151 492 OFFCURVE",
"265 492 CURVE SMOOTH",
"361 492 OFFCURVE",
"429 433 OFFCURVE",
"429 351 CURVE SMOOTH"
);
},
{
closed = 1;
nodes = (
"310 198 OFFCURVE",
"336 308 OFFCURVE",
"336 370 CURVE SMOOTH",
"336 418 OFFCURVE",
"272 446 OFFCURVE",
"234 446 CURVE SMOOTH",
"184 446 OFFCURVE",
"158 337 OFFCURVE",
"158 275 CURVE SMOOTH",
"158 217 OFFCURVE",
"235 198 OFFCURVE",
"262 198 CURVE SMOOTH"
);
},
{
closed = 1;
nodes = (
"234 166 LINE",
"234 152 LINE",
"197 152 OFFCURVE",
"166 130 OFFCURVE",
"166 122 CURVE SMOOTH",
"166 100 OFFCURVE",
"422 -27 OFFCURVE",
"422 -83 CURVE SMOOTH",
"422 -134 OFFCURVE",
"349 -205 OFFCURVE",
"211 -205 CURVE SMOOTH",
"104 -205 OFFCURVE",
"-24 -160 OFFCURVE",
"-24 -72 CURVE SMOOTH",
"-24 -5 OFFCURVE",
"62 44 OFFCURVE",
"81 44 CURVE SMOOTH",
"86 44 OFFCURVE",
"89 41 OFFCURVE",
"89 36 CURVE SMOOTH",
"89 23 OFFCURVE",
"69 -19 OFFCURVE",
"69 -45 CURVE SMOOTH",
"69 -96 OFFCURVE",
"178 -159 OFFCURVE",
"225 -159 CURVE SMOOTH",
"259 -159 OFFCURVE",
"308 -124 OFFCURVE",
"308 -106 CURVE SMOOTH",
"308 -70 OFFCURVE",
"77 33 OFFCURVE",
"77 86 CURVE SMOOTH",
"77 113 OFFCURVE",
"125 150 OFFCURVE",
"151 161 CURVE",
"151 164 OFFCURVE",
"151 163 OFFCURVE",
"151 166 CURVE"
);
},
{
closed = 1;
nodes = (
"384 548 LINE",
"395 558 OFFCURVE",
"404 567 OFFCURVE",
"410 567 CURVE SMOOTH",
"415 567 OFFCURVE",
"418 563 OFFCURVE",
"423 550 CURVE SMOOTH",
"447 489 LINE SMOOTH",
"452 475 OFFCURVE",
"446 471 OFFCURVE",
"434 471 CURVE",
"364 471 LINE",
"364 465 LINE",
"317 465 LINE",
"317 485 LINE"
);
}
);
};
layerId = "B0B60A8F-2DEB-4A58-A43B-60A0DADABD8F";
leftMetricsKey = "=d";
paths = (
{
closed = 1;
nodes = (
"12 -180 OFFCURVE",
"80 -221 OFFCURVE",
"176 -221 CURVE SMOOTH",
"308 -221 OFFCURVE",
"425 -155 OFFCURVE",
"450 30 CURVE SMOOTH",
"474 210 LINE SMOOTH",
"493 352 OFFCURVE",
"530 466 OFFCURVE",
"530 477 CURVE SMOOTH",
"530 484 OFFCURVE",
"527 489 OFFCURVE",
"520 489 CURVE SMOOTH",
"505 489 OFFCURVE",
"472 475 OFFCURVE",
"387 465 CURVE",
"380 337 LINE",
"408 313 LINE",
"341 42 LINE SMOOTH",
"303 -113 OFFCURVE",
"280 -142 OFFCURVE",
"217 -143 CURVE SMOOTH",
"167 -144 OFFCURVE",
"93 -98 OFFCURVE",
"57 -78 CURVE SMOOTH",
"40 -69 OFFCURVE",
"30 -63 OFFCURVE",
"23 -63 CURVE SMOOTH",
"17 -63 OFFCURVE",
"12 -67 OFFCURVE",
"12 -80 CURVE SMOOTH"
);
},
{
closed = 1;
nodes = (
"218 -16 OFFCURVE",
"318 67 OFFCURVE",
"422 308 CURVE",
"395 397 LINE",
"301 161 OFFCURVE",
"203 82 OFFCURVE",
"178 82 CURVE SMOOTH",
"153 82 OFFCURVE",
"142 123 OFFCURVE",
"142 200 CURVE SMOOTH",
"142 325 OFFCURVE",
"190 415 OFFCURVE",
"248 415 CURVE SMOOTH",
"287 415 OFFCURVE",
"352 393 OFFCURVE",
"406 347 CURVE",
"438 455 LINE",
"405 471 OFFCURVE",
"346 490 OFFCURVE",
"299 490 CURVE SMOOTH",
"147 490 OFFCURVE",
"29 351 OFFCURVE",
"29 157 CURVE SMOOTH",
"29 42 OFFCURVE",
"58 -16 OFFCURVE",
"133 -16 CURVE SMOOTH"
);
}
);
width = 545;
},
{
associatedMasterId = "B0B60A8F-2DEB-4A58-A43B-60A0DADABD8F";
background = {
paths = (
{
closed = 1;
nodes = (
"428 244 OFFCURVE",
"349 152 OFFCURVE",
"233 152 CURVE SMOOTH",
"150 152 OFFCURVE",
"64 187 OFFCURVE",
"64 294 CURVE SMOOTH",
"64 379 OFFCURVE",
"150 492 OFFCURVE",
"264 492 CURVE SMOOTH",
"360 492 OFFCURVE",
"428 433 OFFCURVE",
"428 351 CURVE SMOOTH"
);
},
{
closed = 1;
nodes = (
"309 198 OFFCURVE",
"335 308 OFFCURVE",
"335 370 CURVE SMOOTH",
"335 418 OFFCURVE",
"271 446 OFFCURVE",
"233 446 CURVE SMOOTH",
"183 446 OFFCURVE",
"157 337 OFFCURVE",
"157 275 CURVE SMOOTH",
"157 217 OFFCURVE",
"234 198 OFFCURVE",
"261 198 CURVE SMOOTH"
);
},
{
closed = 1;
nodes = (
"233 166 LINE",
"233 152 LINE",
"196 152 OFFCURVE",
"165 130 OFFCURVE",
"165 122 CURVE SMOOTH",
"165 100 OFFCURVE",
"421 -27 OFFCURVE",
"421 -83 CURVE SMOOTH",
"421 -134 OFFCURVE",
"348 -205 OFFCURVE",
"210 -205 CURVE SMOOTH",
"103 -205 OFFCURVE",
"-25 -160 OFFCURVE",
"-25 -72 CURVE SMOOTH",
"-25 -5 OFFCURVE",
"61 44 OFFCURVE",
"80 44 CURVE SMOOTH",
"85 44 OFFCURVE",
"88 41 OFFCURVE",
"88 36 CURVE SMOOTH",
"88 23 OFFCURVE",
"68 -19 OFFCURVE",
"68 -45 CURVE SMOOTH",
"68 -96 OFFCURVE",
"177 -159 OFFCURVE",
"224 -159 CURVE SMOOTH",
"258 -159 OFFCURVE",
"307 -124 OFFCURVE",
"307 -106 CURVE SMOOTH",
"307 -70 OFFCURVE",
"76 33 OFFCURVE",
"76 86 CURVE SMOOTH",
"76 113 OFFCURVE",
"124 150 OFFCURVE",
"150 161 CURVE",
"150 164 OFFCURVE",
"150 163 OFFCURVE",
"150 166 CURVE"
);
},
{
closed = 1;
nodes = (
"383 548 LINE",
"394 558 OFFCURVE",
"403 567 OFFCURVE",
"409 567 CURVE SMOOTH",
"414 567 OFFCURVE",
"417 563 OFFCURVE",
"422 550 CURVE SMOOTH",
"446 489 LINE SMOOTH",
"451 475 OFFCURVE",
"445 471 OFFCURVE",
"433 471 CURVE",
"363 471 LINE",
"363 465 LINE",
"316 465 LINE",
"316 485 LINE"
);
}
);
};
layerId = "E6CFDFEA-E233-4F3C-8000-48C8AAAA40C6";
name = "Apr 5 21, 10:02";
paths = (
{
closed = 1;
nodes = (
"428 244 OFFCURVE",
"349 152 OFFCURVE",
"233 152 CURVE SMOOTH",
"150 152 OFFCURVE",
"64 187 OFFCURVE",
"64 294 CURVE SMOOTH",
"64 379 OFFCURVE",
"150 492 OFFCURVE",
"264 492 CURVE SMOOTH",
"360 492 OFFCURVE",
"428 433 OFFCURVE",
"428 351 CURVE SMOOTH"
);
},
{
closed = 1;
nodes = (
"309 198 OFFCURVE",
"335 308 OFFCURVE",
"335 370 CURVE SMOOTH",
"335 418 OFFCURVE",
"271 446 OFFCURVE",
"233 446 CURVE SMOOTH",
"183 446 OFFCURVE",
"157 337 OFFCURVE",
"157 275 CURVE SMOOTH",
"157 217 OFFCURVE",
"234 198 OFFCURVE",
"261 198 CURVE SMOOTH"
);
},
{
closed = 1;
nodes = (
"233 166 LINE",
"233 152 LINE",
"196 152 OFFCURVE",
"165 130 OFFCURVE",
"165 122 CURVE SMOOTH",
"165 100 OFFCURVE",
"421 -27 OFFCURVE",
"421 -83 CURVE SMOOTH",
"421 -134 OFFCURVE",
"348 -205 OFFCURVE",
"210 -205 CURVE SMOOTH",
"103 -205 OFFCURVE",
"-25 -160 OFFCURVE",
"-25 -72 CURVE SMOOTH",
"-25 -5 OFFCURVE",
"61 44 OFFCURVE",
"80 44 CURVE SMOOTH",
"85 44 OFFCURVE",
"88 41 OFFCURVE",
"88 36 CURVE SMOOTH",
"88 23 OFFCURVE",
"68 -19 OFFCURVE",
"68 -45 CURVE SMOOTH",
"68 -96 OFFCURVE",
"177 -159 OFFCURVE",
"224 -159 CURVE SMOOTH",
"258 -159 OFFCURVE",
"307 -124 OFFCURVE",
"307 -106 CURVE SMOOTH",
"307 -70 OFFCURVE",
"76 33 OFFCURVE",
"76 86 CURVE SMOOTH",
"76 113 OFFCURVE",
"124 150 OFFCURVE",
"150 161 CURVE",
"150 164 OFFCURVE",
"150 163 OFFCURVE",
"150 166 CURVE"
);
},
{
closed = 1;
nodes = (
"383 548 LINE",
"394 558 OFFCURVE",
"403 567 OFFCURVE",
"409 567 CURVE SMOOTH",
"414 567 OFFCURVE",
"417 563 OFFCURVE",
"422 550 CURVE SMOOTH",
"446 489 LINE SMOOTH",
"450 479 OFFCURVE",
"449 471 OFFCURVE",
"434 471 CURVE SMOOTH",
"429 471 OFFCURVE",
"396 471 OFFCURVE",
"394 471 CURVE SMOOTH",
"382 471 OFFCURVE",
"376 472 OFFCURVE",
"363 476 CURVE",
"363 465 LINE",
"316 465 LINE",
"316 485 LINE"
);
}
);
width = 468;
}
);
rightMetricsKey = "=a";
unicode = 0067;
},
{
glyphname = h;
lastChange = "2021-04-05 14:00:27 +0000";
layers = (
{
background = {
paths = (
{
closed = 1;
nodes = (
"336 13 OFFCURVE",
"344 0 OFFCURVE",
"368 0 CURVE SMOOTH",
"385 0 OFFCURVE",
"395 0 OFFCURVE",
"420 0 CURVE SMOOTH",
"437 0 OFFCURVE",
"440 14 OFFCURVE",
"442 33 CURVE SMOOTH",
"470 326 LINE SMOOTH",
"478 411 OFFCURVE",
"415 483 OFFCURVE",
"326 483 CURVE SMOOTH",
"260 483 OFFCURVE",
"178 421 OFFCURVE",
"155 404 CURVE",
"166 258 LINE",
"172 335 OFFCURVE",
"252 431 OFFCURVE",
"307 431 CURVE SMOOTH",
"338 431 OFFCURVE",
"375 382 OFFCURVE",
"372 347 CURVE SMOOTH",
"364 272 OFFCURVE",
"352 150 OFFCURVE",
"341 55 CURVE SMOOTH"
);
},
{
closed = 1;
nodes = (
"104 475 OFFCURVE",
"96 475 OFFCURVE",
"84 475 CURVE",
"76 475 OFFCURVE",
"66 473 OFFCURVE",
"64 455 CURVE SMOOTH",
"58 403 OFFCURVE",
"46 235 OFFCURVE",
"33 98 CURVE SMOOTH",
"26 28 OFFCURVE",
"18 -2 OFFCURVE",
"44 -2 CURVE SMOOTH",
"68 -2 OFFCURVE",
"130 51 OFFCURVE",
"137 134 CURVE SMOOTH",
"149 282 OFFCURVE",
"160 402 OFFCURVE",
"166 455 CURVE SMOOTH",
"168 473 OFFCURVE",
"159 475 OFFCURVE",
"150 475 CURVE"
);
},
{
closed = 1;
nodes = (
"328 13 OFFCURVE",
"336 0 OFFCURVE",
"360 0 CURVE SMOOTH",
"377 0 OFFCURVE",
"390 0 OFFCURVE",
"415 0 CURVE SMOOTH",
"432 0 OFFCURVE",
"435 14 OFFCURVE",
"437 33 CURVE SMOOTH",
"465 322 LINE SMOOTH",
"472 395 OFFCURVE",
"418 483 OFFCURVE",
"319 483 CURVE SMOOTH",
"265 483 OFFCURVE",
"184 446 OFFCURVE",
"141 424 CURVE",
"149 272 LINE",
"155 320 OFFCURVE",
"244 426 OFFCURVE",
"301 426 CURVE SMOOTH",
"325 426 OFFCURVE",
"367 392 OFFCURVE",
"364 347 CURVE SMOOTH",
"359 272 OFFCURVE",
"345 160 OFFCURVE",
"333 55 CURVE SMOOTH"
);
}
);
};
guideLines = (
{
angle = 262;
position = "{73, 290}";
}
);
hints = (
{
origin = "{0, 18}";
type = Corner;
name = _corner.serif;
},
{
origin = "{1, 0}";
type = Corner;
name = _corner.serif;
}
);
layerId = "B0B60A8F-2DEB-4A58-A43B-60A0DADABD8F";
paths = (
{
closed = 1;
nodes = (
"42 75 LINE SMOOTH",
"31 -6 OFFCURVE",
"38 -14 OFFCURVE",
"64 -14 CURVE SMOOTH",
"87 -14 OFFCURVE",
"152 7 OFFCURVE",
"154 34 CURVE SMOOTH",
"157 74 OFFCURVE",
"163 153 OFFCURVE",
"173 238 CURVE",
"144 225 LINE",
"204 500 LINE SMOOTH",
"218 563 OFFCURVE",
"223 609 OFFCURVE",
"223 629 CURVE SMOOTH",
"223 661 OFFCURVE",
"210 696 OFFCURVE",
"178 696 CURVE SMOOTH",
"108 696 LINE",
"108 620 OFFCURVE",
"104 545 OFFCURVE",
"94 469 CURVE"
);
},
{
closed = 1;
nodes = (
"438 -16 LINE",
"491 334 LINE SMOOTH",
"493 349 OFFCURVE",
"494 364 OFFCURVE",
"494 378 CURVE SMOOTH",
"494 439 OFFCURVE",
"472 490 OFFCURVE",
"409 490 CURVE SMOOTH",
"327 490 OFFCURVE",
"209 406 OFFCURVE",
"128 175 CURVE",
"154 34 LINE",
"176 247 OFFCURVE",
"320 390 OFFCURVE",
"354 390 CURVE SMOOTH",
"372 390 OFFCURVE",
"380 376 OFFCURVE",
"380 339 CURVE SMOOTH",
"380 322 OFFCURVE",
"376 301 OFFCURVE",
"371 274 CURVE",
"352 170 LINE SMOOTH",
"345 133 OFFCURVE",
"340 69 OFFCURVE",
"340 49 CURVE SMOOTH",
"340 26 OFFCURVE",
"344 -16 OFFCURVE",
"370 -16 CURVE SMOOTH"
);
}
);
width = 541;
}
);
leftMetricsKey = l;
rightMetricsKey = n;
unicode = 0068;
},
{
glyphname = i;
lastChange = "2021-04-05 13:41:32 +0000";
layers = (
{
background = {
paths = (
{
closed = 1;
nodes = (
"151 707 OFFCURVE",
"123 707 OFFCURVE",
"111 707 CURVE",
"105 707 OFFCURVE",
"100 705 OFFCURVE",
"99 695 CURVE SMOOTH",
"94 643 OFFCURVE",
"55 235 OFFCURVE",
"45 98 CURVE SMOOTH",
"40 28 OFFCURVE",
"30 -2 OFFCURVE",
"56 -2 CURVE SMOOTH",
"80 -2 OFFCURVE",
"141 46 OFFCURVE",
"148 129 CURVE SMOOTH",
"160 277 OFFCURVE",
"201 643 OFFCURVE",
"207 696 CURVE SMOOTH",
"208 705 OFFCURVE",
"204 707 OFFCURVE",
"197 707 CURVE"
);
}
);
};
hints = (
{
origin = "{1, 14}";
type = Corner;
name = _corner.serif;
},
{
origin = "{1, 3}";
type = Corner;
name = _corner.serif;
}
);
layerId = "B0B60A8F-2DEB-4A58-A43B-60A0DADABD8F";
paths = (
{
closed = 1;
nodes = (
"200 554 OFFCURVE",
"230 585 OFFCURVE",
"230 622 CURVE SMOOTH",
"230 659 OFFCURVE",
"200 689 OFFCURVE",
"163 689 CURVE SMOOTH",
"126 689 OFFCURVE",
"96 659 OFFCURVE",
"96 622 CURVE SMOOTH",
"96 585 OFFCURVE",
"126 554 OFFCURVE",
"163 554 CURVE SMOOTH"
);
},
{
closed = 1;
nodes = (
"40 20 OFFCURVE",
"47 -16 OFFCURVE",
"71 -16 CURVE SMOOTH",
"141 -16 LINE",
"143 30 OFFCURVE",
"153 74 OFFCURVE",
"162 149 CURVE SMOOTH",
"184 342 LINE SMOOTH",
"190 393 OFFCURVE",
"192 400 OFFCURVE",
"192 419 CURVE SMOOTH",
"192 456 OFFCURVE",
"182 491 OFFCURVE",
"155 491 CURVE SMOOTH",
"85 491 LINE",
"53 170 LINE SMOOTH",
"49 127 OFFCURVE",
"43 94 OFFCURVE",
"41 49 CURVE SMOOTH"
);
}
);
width = 235;
}
);
leftMetricsKey = "=n";
unicode = 0069;
},
{
glyphname = j;
lastChange = "2021-04-05 14:08:16 +0000";
layers = (
{
background = {
paths = (
{
closed = 1;
nodes = (
"162 475 OFFCURVE",
"147 475 OFFCURVE",
"135 475 CURVE",
"127 475 OFFCURVE",
"116 473 OFFCURVE",
"115 455 CURVE SMOOTH",
"111 403 OFFCURVE",
"77 38 OFFCURVE",
"65 -99 CURVE SMOOTH",
"64 -110 OFFCURVE",
"63 -118 OFFCURVE",
"50 -118 CURVE SMOOTH",
"35 -118 OFFCURVE",
"-74 -92 OFFCURVE",
"-88 -92 CURVE SMOOTH",
"-95 -92 OFFCURVE",
"-104 -97 OFFCURVE",
"-98 -117 CURVE SMOOTH",
"-96 -124 OFFCURVE",
"-80 -174 OFFCURVE",
"-76 -186 CURVE SMOOTH",
"-71 -200 OFFCURVE",
"-65 -205 OFFCURVE",
"-54 -205 CURVE SMOOTH",
"16 -205 OFFCURVE",
"160 -185 OFFCURVE",
"172 -49 CURVE SMOOTH",
"182 68 OFFCURVE",
"218 402 OFFCURVE",
"224 455 CURVE SMOOTH",
"226 473 OFFCURVE",
"217 475 OFFCURVE",
"208 475 CURVE"
);
}
);
};
hints = (
{
origin = "{1, 13}";
type = Corner;
name = _corner.serif;
}
);
layerId = "B0B60A8F-2DEB-4A58-A43B-60A0DADABD8F";
paths = (
{
closed = 1;
nodes = (
"223 588 OFFCURVE",
"250 615 OFFCURVE",
"250 648 CURVE SMOOTH",
"250 681 OFFCURVE",
"223 708 OFFCURVE",
"190 708 CURVE SMOOTH",
"157 708 OFFCURVE",
"130 681 OFFCURVE",
"130 648 CURVE SMOOTH",
"130 615 OFFCURVE",
"157 588 OFFCURVE",
"190 588 CURVE SMOOTH"
);
},
{
closed = 1;
nodes = (
"-119 -179 OFFCURVE",
"-84 -221 OFFCURVE",
"-33 -221 CURVE SMOOTH",
"74 -221 OFFCURVE",
"160 -145 OFFCURVE",
"187 83 CURVE SMOOTH",
"217 342 LINE SMOOTH",
"223 393 OFFCURVE",
"222 400 OFFCURVE",
"222 419 CURVE SMOOTH",
"222 444 OFFCURVE",
"214 491 OFFCURVE",
"190 491 CURVE SMOOTH",
"118 491 LINE",
"75 92 LINE SMOOTH",
"54 -100 OFFCURVE",
"40 -146 OFFCURVE",
"10 -146 CURVE SMOOTH",
"-13 -146 OFFCURVE",
"-50 -129 OFFCURVE",
"-76 -113 CURVE SMOOTH",
"-94 -102 OFFCURVE",
"-99 -96 OFFCURVE",
"-106 -96 CURVE SMOOTH",
"-112 -96 OFFCURVE",
"-119 -102 OFFCURVE",
"-119 -115 CURVE SMOOTH"
);
}
);
width = 289;
}
);
unicode = 006A;
},
{
glyphname = k;
lastChange = "2021-04-05 14:00:45 +0000";
layers = (
{
background = {
paths = (
{
closed = 1;
nodes = (
"196 261 OFFCURVE",
"414 370 OFFCURVE",
"461 370 CURVE SMOOTH",
"487 370 OFFCURVE",
"494 382 OFFCURVE",
"494 392 CURVE SMOOTH",
"494 414 OFFCURVE",
"462 477 OFFCURVE",
"434 477 CURVE SMOOTH",
"376 477 OFFCURVE",
"185 318 OFFCURVE",
"185 262 CURVE",
"189 188 LINE"
);
}
);
};
hints = (
{
origin = "{2, 16}";
type = Corner;
name = _corner.serif;
}
);
layerId = "B0B60A8F-2DEB-4A58-A43B-60A0DADABD8F";
paths = (
{
closed = 1;
nodes = (
"223 264 LINE",
"272 125 OFFCURVE",
"333 -14 OFFCURVE",
"394 -14 CURVE SMOOTH",
"433 -14 OFFCURVE",
"490 33 OFFCURVE",
"490 76 CURVE SMOOTH",
"490 87 OFFCURVE",
"487 93 OFFCURVE",
"479 93 CURVE SMOOTH",
"469 93 OFFCURVE",
"459 90 OFFCURVE",
"448 90 CURVE SMOOTH",
"414 90 OFFCURVE",
"365 174 OFFCURVE",
"300 343 CURVE"
);
},
{
closed = 1;
nodes = (
"158 34 LINE",
"172 147 OFFCURVE",
"211 222 OFFCURVE",
"240 259 CURVE",
"277 269 LINE",
"305 318 OFFCURVE",
"339 382 OFFCURVE",
"410 382 CURVE SMOOTH",
"420 382 OFFCURVE",
"428 377 OFFCURVE",
"437 368 CURVE SMOOTH",
"445 360 OFFCURVE",
"451 357 OFFCURVE",
"458 357 CURVE SMOOTH",
"480 357 OFFCURVE",
"517 398 OFFCURVE",
"517 450 CURVE SMOOTH",
"517 476 OFFCURVE",
"500 490 OFFCURVE",
"468 490 CURVE SMOOTH",
"354 490 OFFCURVE",
"222 398 OFFCURVE",
"133 153 CURVE"
);
},
{
closed = 1;
nodes = (
"48 75 LINE SMOOTH",
"38 -10 OFFCURVE",
"45 -14 OFFCURVE",
"69 -14 CURVE SMOOTH",
"104 -14 OFFCURVE",
"158 6 OFFCURVE",
"158 34 CURVE SMOOTH",
"158 140 LINE",
"151 200 LINE",
"205 495 LINE SMOOTH",
"216 557 OFFCURVE",
"225 608 OFFCURVE",
"225 628 CURVE SMOOTH",
"225 660 OFFCURVE",
"214 696 OFFCURVE",
"178 696 CURVE SMOOTH",
"108 696 LINE",
"108 620 OFFCURVE",
"103 545 OFFCURVE",
"94 469 CURVE SMOOTH"
);
}
);
width = 522;
},
{
associatedMasterId = "B0B60A8F-2DEB-4A58-A43B-60A0DADABD8F";
background = {
paths = (
{
closed = 1;
nodes = (
"196 261 OFFCURVE",
"414 370 OFFCURVE",
"461 370 CURVE SMOOTH",
"487 370 OFFCURVE",
"494 382 OFFCURVE",
"494 392 CURVE SMOOTH",
"494 414 OFFCURVE",
"462 477 OFFCURVE",
"434 477 CURVE SMOOTH",
"376 477 OFFCURVE",
"185 318 OFFCURVE",
"185 262 CURVE",
"189 188 LINE"
);
}
);
};
hints = (
{
origin = "{2, 18}";
type = Corner;
name = _corner.serif;
}
);
layerId = "A09DAE1E-68B6-4193-B3B5-92EB2FCC08DD";
name = "Apr 5 21, 16:42";
paths = (
{
closed = 1;
nodes = (
"223 264 LINE",
"272 125 OFFCURVE",
"333 -14 OFFCURVE",
"394 -14 CURVE SMOOTH",
"433 -14 OFFCURVE",
"490 33 OFFCURVE",
"490 76 CURVE SMOOTH",
"490 87 OFFCURVE",
"487 93 OFFCURVE",
"479 93 CURVE SMOOTH",
"469 93 OFFCURVE",
"459 90 OFFCURVE",
"448 90 CURVE SMOOTH",
"414 90 OFFCURVE",
"365 174 OFFCURVE",
"300 343 CURVE"
);
},
{
closed = 1;
nodes = (
"160 148 LINE",
"178 180 OFFCURVE",
"211 222 OFFCURVE",
"230 247 CURVE",
"249 269 LINE",
"307 318 OFFCURVE",
"376 382 OFFCURVE",
"420 382 CURVE SMOOTH",
"430 382 OFFCURVE",
"438 377 OFFCURVE",
"447 368 CURVE SMOOTH",
"455 360 OFFCURVE",
"461 357 OFFCURVE",
"468 357 CURVE SMOOTH",
"490 357 OFFCURVE",
"527 398 OFFCURVE",
"527 450 CURVE SMOOTH",
"527 476 OFFCURVE",
"510 490 OFFCURVE",
"478 490 CURVE SMOOTH",
"362 490 OFFCURVE",
"225 335 OFFCURVE",
"166 231 CURVE",
"123 169 LINE"
);
},
{
closed = 1;
nodes = (
"48 75 LINE SMOOTH",
"38 -10 OFFCURVE",
"45 -14 OFFCURVE",
"69 -14 CURVE SMOOTH",
"104 -14 OFFCURVE",
"157 6 OFFCURVE",
"158 34 CURVE SMOOTH",
"164 149 LINE",
"168 188 OFFCURVE",
"172 231 OFFCURVE",
"178 273 CURVE SMOOTH",
"218 560 LINE SMOOTH",
"224 600 OFFCURVE",
"225 628 OFFCURVE",
"225 648 CURVE SMOOTH",
"225 680 OFFCURVE",
"214 696 OFFCURVE",
"178 696 CURVE SMOOTH",
"108 696 LINE",
"108 620 OFFCURVE",
"103 545 OFFCURVE",
"94 469 CURVE SMOOTH"
);
}
);
width = 522;
}
);
leftMetricsKey = l;
unicode = 006B;
},
{
glyphname = l;
lastChange = "2021-04-05 13:56:28 +0000";
layers = (
{
background = {
paths = (
{
closed = 1;
nodes = (
"110 707 OFFCURVE",
"88 707 OFFCURVE",
"78 707 CURVE",
"70 707 OFFCURVE",
"60 705 OFFCURVE",
"58 687 CURVE SMOOTH",
"54 643 OFFCURVE",
"19 235 OFFCURVE",
"7 124 CURVE SMOOTH",
"35 42 OFFCURVE",
"87 -1 OFFCURVE",
"157 -1 CURVE SMOOTH",
"168 -1 OFFCURVE",
"174 4 OFFCURVE",
"179 18 CURVE SMOOTH",
"183 30 OFFCURVE",
"193 61 OFFCURVE",
"196 71 CURVE SMOOTH",
"203 91 OFFCURVE",
"192 93 OFFCURVE",
"183 93 CURVE SMOOTH",
"171 93 OFFCURVE",
"131 93 OFFCURVE",
"125 93 CURVE SMOOTH",
"112 93 OFFCURVE",
"109 101 OFFCURVE",
"110 112 CURVE SMOOTH",
"124 283 OFFCURVE",
"163 643 OFFCURVE",
"168 687 CURVE SMOOTH",
"170 705 OFFCURVE",
"161 707 OFFCURVE",
"152 707 CURVE"
);
}
);
};
hints = (
{
origin = "{0, 6}";
type = Corner;
name = _corner.serif;
},
{
origin = "{0, 17}";
type = Corner;
name = _corner.serif;
}
);
layerId = "B0B60A8F-2DEB-4A58-A43B-60A0DADABD8F";
paths = (
{
closed = 1;
nodes = (
"55 172 OFFCURVE",
"48 102 OFFCURVE",
"47 57 CURVE SMOOTH",
"46 18 OFFCURVE",
"60 -16 OFFCURVE",
"84 -16 CURVE SMOOTH",
"154 -16 LINE",
"158 80 OFFCURVE",
"165 177 OFFCURVE",
"178 273 CURVE SMOOTH",
"210 503 LINE SMOOTH",
"218 558 OFFCURVE",
"225 608 OFFCURVE",
"225 628 CURVE",
"225 660 OFFCURVE",
"209 696 OFFCURVE",
"178 696 CURVE SMOOTH",
"108 696 LINE",
"108 620 OFFCURVE",
"104 545 OFFCURVE",
"94 469 CURVE SMOOTH",
"63 233 LINE SMOOTH"
);
}
);
width = 242;
}
);
unicode = 006C;
},
{
glyphname = m;
lastChange = "2021-04-05 14:00:20 +0000";
layers = (
{
background = {
paths = (
{
closed = 1;
nodes = (
"365 13 OFFCURVE",
"373 0 OFFCURVE",
"397 0 CURVE SMOOTH",
"414 0 OFFCURVE",
"424 0 OFFCURVE",
"449 0 CURVE SMOOTH",
"466 0 OFFCURVE",
"469 14 OFFCURVE",
"471 33 CURVE SMOOTH",
"499 326 LINE SMOOTH",
"507 411 OFFCURVE",
"444 483 OFFCURVE",
"358 483 CURVE SMOOTH",
"286 483 OFFCURVE",
"211 418 OFFCURVE",
"190 399 CURVE",
"189 399 OFFCURVE",
"186 399 OFFCURVE",
"185 399 CURVE",
"185 230 LINE",
"192 230 LINE",
"198 307 OFFCURVE",
"281 426 OFFCURVE",
"336 426 CURVE SMOOTH",
"367 426 OFFCURVE",
"405 382 OFFCURVE",
"401 341 CURVE SMOOTH",
"393 272 OFFCURVE",
"381 150 OFFCURVE",
"370 55 CURVE SMOOTH"
);
},
{
closed = 1;
nodes = (
"22 395 OFFCURVE",
"29 388 OFFCURVE",
"48 388 CURVE SMOOTH",
"84 388 LINE SMOOTH",
"102 388 OFFCURVE",
"109 381 OFFCURVE",
"107 358 CURVE SMOOTH",
"101 291 OFFCURVE",
"89 188 OFFCURVE",
"79 98 CURVE SMOOTH",
"71 28 OFFCURVE",
"65 -2 OFFCURVE",
"91 -2 CURVE SMOOTH",
"115 -2 OFFCURVE",
"176 46 OFFCURVE",
"183 129 CURVE SMOOTH",
"188 195 OFFCURVE",
"207 374 OFFCURVE",
"207 386 CURVE",
"185 399 LINE",
"185 420 OFFCURVE",
"151 477 OFFCURVE",
"76 477 CURVE SMOOTH",
"62 477 OFFCURVE",
"49 480 OFFCURVE",
"42 458 CURVE SMOOTH",
"27 410 LINE SMOOTH"
);
},
{
closed = 1;
nodes = (
"7 395 OFFCURVE",
"14 388 OFFCURVE",
"33 388 CURVE SMOOTH",
"69 388 LINE SMOOTH",
"87 388 OFFCURVE",
"94 381 OFFCURVE",
"92 358 CURVE SMOOTH",
"86 291 OFFCURVE",
"74 188 OFFCURVE",
"64 98 CURVE SMOOTH",
"56 28 OFFCURVE",
"50 -2 OFFCURVE",
"76 -2 CURVE SMOOTH",
"100 -2 OFFCURVE",
"161 46 OFFCURVE",
"168 129 CURVE SMOOTH",
"173 195 OFFCURVE",
"192 374 OFFCURVE",
"192 386 CURVE",
"170 399 LINE",
"170 420 OFFCURVE",
"136 477 OFFCURVE",
"61 477 CURVE SMOOTH",
"47 477 OFFCURVE",
"34 480 OFFCURVE",
"27 458 CURVE SMOOTH",
"12 410 LINE SMOOTH"
);
},
{
closed = 1;
nodes = (
"7 395 OFFCURVE",
"14 388 OFFCURVE",
"33 388 CURVE SMOOTH",
"69 388 LINE SMOOTH",
"87 388 OFFCURVE",
"94 381 OFFCURVE",
"92 358 CURVE SMOOTH",
"86 291 OFFCURVE",
"74 188 OFFCURVE",
"64 98 CURVE SMOOTH",
"56 28 OFFCURVE",
"50 -2 OFFCURVE",
"76 -2 CURVE SMOOTH",
"100 -2 OFFCURVE",
"161 46 OFFCURVE",
"168 129 CURVE SMOOTH",
"173 195 OFFCURVE",
"192 374 OFFCURVE",
"192 386 CURVE",
"170 399 LINE",
"170 420 OFFCURVE",
"136 477 OFFCURVE",
"61 477 CURVE SMOOTH",
"47 477 OFFCURVE",
"34 480 OFFCURVE",
"27 458 CURVE SMOOTH",
"12 410 LINE SMOOTH"
);
},
{
closed = 1;
nodes = (
"607 13 OFFCURVE",
"615 0 OFFCURVE",
"639 0 CURVE SMOOTH",
"656 0 OFFCURVE",
"666 0 OFFCURVE",
"691 0 CURVE SMOOTH",
"708 0 OFFCURVE",
"711 14 OFFCURVE",
"713 33 CURVE SMOOTH",
"741 326 LINE SMOOTH",
"749 411 OFFCURVE",
"686 483 OFFCURVE",
"625 483 CURVE SMOOTH",
"553 483 OFFCURVE",
"471 386 OFFCURVE",
"455 367 CURVE",
"461 194 LINE",
"467 271 OFFCURVE",
"540 426 OFFCURVE",
"595 426 CURVE SMOOTH",
"626 426 OFFCURVE",
"646 390 OFFCURVE",
"643 355 CURVE SMOOTH",
"635 280 OFFCURVE",
"623 150 OFFCURVE",
"612 55 CURVE SMOOTH"
);
},
{
closed = 1;
nodes = (
"607 13 OFFCURVE",
"615 0 OFFCURVE",
"639 0 CURVE SMOOTH",
"656 0 OFFCURVE",
"666 0 OFFCURVE",
"691 0 CURVE SMOOTH",
"708 0 OFFCURVE",
"711 14 OFFCURVE",
"713 33 CURVE SMOOTH",
"741 326 LINE SMOOTH",
"749 411 OFFCURVE",
"686 483 OFFCURVE",
"625 483 CURVE SMOOTH",
"553 483 OFFCURVE",
"471 386 OFFCURVE",
"455 367 CURVE",
"461 194 LINE",
"467 271 OFFCURVE",
"540 426 OFFCURVE",
"595 426 CURVE SMOOTH",
"626 426 OFFCURVE",
"646 390 OFFCURVE",
"643 355 CURVE SMOOTH",
"635 280 OFFCURVE",
"623 150 OFFCURVE",
"612 55 CURVE SMOOTH"
);
}
);
};
guideLines = (
{
position = "{160, 267}";
}
);
hints = (
{
origin = "{1, 9}";
type = Corner;
name = _corner.serif;
},
{
origin = "{2, 0}";
type = Corner;
name = _corner.serif;
}
);
layerId = "B0B60A8F-2DEB-4A58-A43B-60A0DADABD8F";
paths = (
{
closed = 1;
nodes = (
"388 -14 OFFCURVE",
"451 -7 OFFCURVE",
"454 34 CURVE",
"474 202 LINE",
"441 190 LINE",
"473 309 OFFCURVE",
"485 356 OFFCURVE",
"485 397 CURVE SMOOTH",
"485 440 OFFCURVE",
"471 490 OFFCURVE",
"399 490 CURVE SMOOTH",
"325 490 OFFCURVE",
"205 406 OFFCURVE",
"124 175 CURVE",
"152 34 LINE",
"174 247 OFFCURVE",
"318 390 OFFCURVE",
"352 390 CURVE SMOOTH",
"370 390 OFFCURVE",
"378 376 OFFCURVE",
"378 339 CURVE SMOOTH",
"378 322 OFFCURVE",
"377 300 OFFCURVE",
"373 273 CURVE SMOOTH",
"350 126 LINE SMOOTH",
"342 76 OFFCURVE",
"338 45 OFFCURVE",
"338 25 CURVE SMOOTH",
"338 2 OFFCURVE",
"339 -14 OFFCURVE",
"365 -14 CURVE SMOOTH"
);
},
{
closed = 1;
nodes = (
"162 191 LINE",
"136 199 LINE",
"156 267 LINE SMOOTH",
"179 344 OFFCURVE",
"194 392 OFFCURVE",
"194 419 CURVE SMOOTH",
"194 456 OFFCURVE",
"183 491 OFFCURVE",
"155 491 CURVE SMOOTH",
"85 491 LINE",
"41 75 LINE SMOOTH",
"32 -10 OFFCURVE",
"37 -14 OFFCURVE",
"63 -14 CURVE SMOOTH",
"79 -14 OFFCURVE",
"150 6 OFFCURVE",
"152 34 CURVE SMOOTH"
);
},
{
closed = 1;
nodes = (
"737 -16 LINE",
"790 334 LINE SMOOTH",
"792 349 OFFCURVE",
"793 364 OFFCURVE",
"793 378 CURVE SMOOTH",
"793 439 OFFCURVE",
"771 490 OFFCURVE",
"708 490 CURVE SMOOTH",
"626 490 OFFCURVE",
"508 406 OFFCURVE",
"427 175 CURVE",
"453 34 LINE",
"475 247 OFFCURVE",
"619 390 OFFCURVE",
"653 390 CURVE SMOOTH",
"671 390 OFFCURVE",
"679 376 OFFCURVE",
"679 339 CURVE SMOOTH",
"679 322 OFFCURVE",
"675 301 OFFCURVE",
"670 274 CURVE",
"651 170 LINE SMOOTH",
"644 133 OFFCURVE",
"639 69 OFFCURVE",
"639 49 CURVE SMOOTH",
"639 26 OFFCURVE",
"643 -16 OFFCURVE",
"669 -16 CURVE SMOOTH"
);
}
);
width = 840;
}
);
leftMetricsKey = n;
rightMetricsKey = n;
unicode = 006D;
},
{
glyphname = n;
lastChange = "2021-04-05 14:00:12 +0000";
layers = (
{
background = {
paths = (
{
closed = 1;
nodes = (
"147 475 OFFCURVE",
"116 475 OFFCURVE",
"104 475 CURVE",
"98 475 OFFCURVE",
"93 473 OFFCURVE",
"92 463 CURVE SMOOTH",
"87 411 OFFCURVE",
"70 235 OFFCURVE",
"60 98 CURVE SMOOTH",
"55 28 OFFCURVE",
"45 -2 OFFCURVE",
"71 -2 CURVE SMOOTH",
"95 -2 OFFCURVE",
"166 51 OFFCURVE",
"173 134 CURVE SMOOTH",
"185 282 OFFCURVE",
"197 411 OFFCURVE",
"203 464 CURVE SMOOTH",
"204 473 OFFCURVE",
"200 475 OFFCURVE",
"193 475 CURVE"
);
},
{
closed = 1;
nodes = (
"-9 390 OFFCURVE",
"-2 383 OFFCURVE",
"17 383 CURVE SMOOTH",
"66 383 LINE SMOOTH",
"84 383 OFFCURVE",
"92 381 OFFCURVE",
"90 358 CURVE SMOOTH",
"84 291 OFFCURVE",
"72 188 OFFCURVE",
"62 98 CURVE SMOOTH",
"54 28 OFFCURVE",
"45 -2 OFFCURVE",
"71 -2 CURVE SMOOTH",
"95 -2 OFFCURVE",
"156 46 OFFCURVE",
"163 129 CURVE SMOOTH",
"168 195 OFFCURVE",
"186 365 OFFCURVE",
"186 377 CURVE",
"164 404 LINE",
"164 425 OFFCURVE",
"121 477 OFFCURVE",
"46 477 CURVE SMOOTH",
"32 477 OFFCURVE",
"19 480 OFFCURVE",
"12 458 CURVE SMOOTH",
"-4 405 LINE SMOOTH"
);
},
{
closed = 1;
nodes = (
"346 13 OFFCURVE",
"354 0 OFFCURVE",
"378 0 CURVE SMOOTH",
"395 0 OFFCURVE",
"408 0 OFFCURVE",
"433 0 CURVE SMOOTH",
"450 0 OFFCURVE",
"453 14 OFFCURVE",
"455 33 CURVE SMOOTH",
"479 322 LINE SMOOTH",
"485 395 OFFCURVE",
"432 483 OFFCURVE",
"333 483 CURVE SMOOTH",
"279 483 OFFCURVE",
"198 446 OFFCURVE",
"155 424 CURVE",
"163 272 LINE",
"169 320 OFFCURVE",
"258 431 OFFCURVE",
"315 431 CURVE SMOOTH",
"339 431 OFFCURVE",
"381 392 OFFCURVE",
"378 347 CURVE SMOOTH",
"373 272 OFFCURVE",
"363 160 OFFCURVE",
"351 55 CURVE SMOOTH"
);
},
{
closed = 1;
nodes = (
"345 13 OFFCURVE",
"353 0 OFFCURVE",
"377 0 CURVE SMOOTH",
"394 0 OFFCURVE",
"404 0 OFFCURVE",
"429 0 CURVE SMOOTH",
"446 0 OFFCURVE",
"449 14 OFFCURVE",
"451 33 CURVE SMOOTH",
"479 326 LINE SMOOTH",
"487 411 OFFCURVE",
"424 483 OFFCURVE",
"338 483 CURVE SMOOTH",
"281 483 OFFCURVE",
"185 416 OFFCURVE",
"165 399 CURVE",
"172 230 LINE",
"178 307 OFFCURVE",
"261 426 OFFCURVE",
"316 426 CURVE SMOOTH",
"347 426 OFFCURVE",
"385 382 OFFCURVE",
"381 341 CURVE SMOOTH",
"373 272 OFFCURVE",
"361 150 OFFCURVE",
"350 55 CURVE SMOOTH"
);
}
);
};
guideLines = (
{
angle = 16.1206;
position = "{402, 307}";
},
{
angle = 27.5824;
position = "{402, 25}";
}
);
hints = (
{
origin = "{0, 9}";
type = Corner;
name = _corner.serif;
},
{
origin = "{1, 0}";
type = Corner;
name = _corner.serif;
}
);
layerId = "B0B60A8F-2DEB-4A58-A43B-60A0DADABD8F";
paths = (
{
closed = 1;
nodes = (
"162 191 LINE",
"136 199 LINE",
"156 267 LINE SMOOTH",
"179 344 OFFCURVE",
"194 392 OFFCURVE",
"194 419 CURVE SMOOTH",
"194 456 OFFCURVE",
"183 491 OFFCURVE",
"155 491 CURVE SMOOTH",
"85 491 LINE",
"41 75 LINE SMOOTH",
"32 -10 OFFCURVE",
"37 -14 OFFCURVE",
"63 -14 CURVE SMOOTH",
"79 -14 OFFCURVE",
"150 6 OFFCURVE",
"152 34 CURVE SMOOTH"
);
},
{
closed = 1;
nodes = (
"434 -16 LINE",
"487 334 LINE SMOOTH",
"489 349 OFFCURVE",
"490 364 OFFCURVE",
"490 378 CURVE SMOOTH",
"490 439 OFFCURVE",
"468 490 OFFCURVE",
"405 490 CURVE SMOOTH",
"323 490 OFFCURVE",
"205 406 OFFCURVE",
"124 175 CURVE",
"150 34 LINE",
"172 247 OFFCURVE",
"316 390 OFFCURVE",
"350 390 CURVE SMOOTH",
"368 390 OFFCURVE",
"376 376 OFFCURVE",
"376 339 CURVE SMOOTH",
"376 322 OFFCURVE",
"372 301 OFFCURVE",
"367 274 CURVE",
"348 170 LINE SMOOTH",
"341 133 OFFCURVE",
"336 69 OFFCURVE",
"336 49 CURVE SMOOTH",
"336 26 OFFCURVE",
"340 -16 OFFCURVE",
"366 -16 CURVE SMOOTH"
);
}
);
width = 537;
},
{
associatedMasterId = "B0B60A8F-2DEB-4A58-A43B-60A0DADABD8F";
background = {
paths = (
{
closed = 1;
nodes = (
"160 475 OFFCURVE",
"129 475 OFFCURVE",
"117 475 CURVE",
"111 475 OFFCURVE",
"106 473 OFFCURVE",
"105 463 CURVE SMOOTH",
"100 411 OFFCURVE",
"83 235 OFFCURVE",
"73 98 CURVE SMOOTH",
"68 28 OFFCURVE",
"58 -2 OFFCURVE",
"84 -2 CURVE SMOOTH",
"108 -2 OFFCURVE",
"179 51 OFFCURVE",
"186 134 CURVE SMOOTH",
"198 282 OFFCURVE",
"210 411 OFFCURVE",
"216 464 CURVE SMOOTH",
"217 473 OFFCURVE",
"213 475 OFFCURVE",
"206 475 CURVE"
);
},
{
closed = 1;
nodes = (
"4 390 OFFCURVE",
"11 383 OFFCURVE",
"30 383 CURVE SMOOTH",
"79 383 LINE SMOOTH",
"97 383 OFFCURVE",
"105 381 OFFCURVE",
"103 358 CURVE SMOOTH",
"97 291 OFFCURVE",
"85 188 OFFCURVE",
"75 98 CURVE SMOOTH",
"67 28 OFFCURVE",
"58 -2 OFFCURVE",
"84 -2 CURVE SMOOTH",
"108 -2 OFFCURVE",
"169 46 OFFCURVE",
"176 129 CURVE SMOOTH",
"181 195 OFFCURVE",
"199 365 OFFCURVE",
"199 377 CURVE",
"177 404 LINE",
"177 425 OFFCURVE",
"134 477 OFFCURVE",
"59 477 CURVE SMOOTH",
"45 477 OFFCURVE",
"32 480 OFFCURVE",
"25 458 CURVE SMOOTH",
"9 405 LINE SMOOTH"
);
},
{
closed = 1;
nodes = (
"359 13 OFFCURVE",
"367 0 OFFCURVE",
"391 0 CURVE SMOOTH",
"408 0 OFFCURVE",
"421 0 OFFCURVE",
"446 0 CURVE SMOOTH",
"463 0 OFFCURVE",
"466 14 OFFCURVE",
"468 33 CURVE SMOOTH",
"492 322 LINE SMOOTH",
"498 395 OFFCURVE",
"445 483 OFFCURVE",
"346 483 CURVE SMOOTH",
"292 483 OFFCURVE",
"211 446 OFFCURVE",
"168 424 CURVE",
"176 272 LINE",
"182 320 OFFCURVE",
"271 431 OFFCURVE",
"328 431 CURVE SMOOTH",
"352 431 OFFCURVE",
"394 392 OFFCURVE",
"391 347 CURVE SMOOTH",
"386 272 OFFCURVE",
"376 160 OFFCURVE",
"364 55 CURVE SMOOTH"
);
},
{
closed = 1;
nodes = (
"358 13 OFFCURVE",
"366 0 OFFCURVE",
"390 0 CURVE SMOOTH",
"407 0 OFFCURVE",
"417 0 OFFCURVE",
"442 0 CURVE SMOOTH",
"459 0 OFFCURVE",
"462 14 OFFCURVE",
"464 33 CURVE SMOOTH",
"492 326 LINE SMOOTH",
"500 411 OFFCURVE",
"437 483 OFFCURVE",
"351 483 CURVE SMOOTH",
"294 483 OFFCURVE",
"198 416 OFFCURVE",
"178 399 CURVE",
"185 230 LINE",
"191 307 OFFCURVE",
"274 426 OFFCURVE",
"329 426 CURVE SMOOTH",
"360 426 OFFCURVE",
"398 382 OFFCURVE",
"394 341 CURVE SMOOTH",
"386 272 OFFCURVE",
"374 150 OFFCURVE",
"363 55 CURVE SMOOTH"
);
}
);
};
guideLines = (
{
angle = 16.1206;
position = "{415, 307}";
},
{
angle = 27.5824;
position = "{415, 25}";
},
{
angle = 82;
locked = 1;
position = "{173, 219}";
},
{
angle = 82;
locked = 1;
position = "{70, 219}";
}
);
layerId = "8600F8D2-8627-43CB-A856-BADFD23AB7A7";
name = "Apr 5 21, 10:10";
paths = (
{
closed = 1;
nodes = (
"142 0 LINE",
"174 221 LINE",
"171 229 LINE",
"179 269 OFFCURVE",
"205 425 OFFCURVE",
"205 444 CURVE SMOOTH",
"205 467 OFFCURVE",
"196 491 OFFCURVE",
"178 491 CURVE SMOOTH",
"151 491 OFFCURVE",
"81 451 OFFCURVE",
"81 417 CURVE SMOOTH",
"81 395 OFFCURVE",
"93 381 OFFCURVE",
"88 347 CURVE SMOOTH",
"39 0 LINE"
);
},
{
closed = 1;
nodes = (
"408 -10 OFFCURVE",
"466 30 OFFCURVE",
"466 64 CURVE SMOOTH",
"466 86 OFFCURVE",
"458 100 OFFCURVE",
"464 134 CURVE SMOOTH",
"497 334 LINE SMOOTH",
"510 413 OFFCURVE",
"474 490 OFFCURVE",
"387 490 CURVE SMOOTH",
"319 490 OFFCURVE",
"283 448 OFFCURVE",
"182 269 CURVE SMOOTH",
"129 175 LINE",
"129 77 LINE",
"262 314 LINE SMOOTH",
"297 376 OFFCURVE",
"321 410 OFFCURVE",
"351 410 CURVE SMOOTH",
"380 410 OFFCURVE",
"406 359 OFFCURVE",
"397 309 CURVE SMOOTH",
"367 133 LINE SMOOTH",
"360 93 OFFCURVE",
"355 56 OFFCURVE",
"355 37 CURVE SMOOTH",
"355 14 OFFCURVE",
"364 -10 OFFCURVE",
"382 -10 CURVE SMOOTH"
);
}
);
width = 536;
}
);
unicode = 006E;
},
